<?xml version="1.0" standalone="no"?>
<!DOCTYPE svg PUBLIC "-//W3C//DTD SVG 1.1//EN" "http://www.w3.org/Graphics/SVG/1.1/DTD/svg11.dtd" >
<svg xmlns="http://www.w3.org/2000/svg">
<metadata></metadata>
<defs>
<font id="selfie_blackregular" horiz-adv-x="628" >
<font-face units-per-em="2048" ascent="1536" descent="-512" />
<missing-glyph horiz-adv-x="305" />
<glyph unicode="&#xfb01;" horiz-adv-x="626" d="M-831 -324q0 80 61 151.5t160 74.5q42 1 58.5 -26t-1 -54.5t-57.5 -26.5q-52 -4 -81.5 -41t-29.5 -78q0 -50 38 -83t120 -33q107 0 209 88t172 243l372 814q-45 14 -61 26q-32 15 -34 44.5t24.5 46t62.5 -0.5q19 -13 54 -22l92 202q88 189 208.5 300.5t268.5 111.5 q137 0 200.5 -64.5t63.5 -164.5q0 -39 -22 -86.5t-60 -90t-97 -71.5t-124 -29q-39 0 -72 8q-51 12 -60 52q-7 34 21 53q22 15 54 6q23 -8 59 -8q84 0 137 57t53 109q0 123 -151 123q-101 0 -199 -84.5t-166 -229.5l-98 -213q58 -4 88 -4q75 0 123 25q41 24 71 -8t9 -66 l-240 -522q-9 -19 -13.5 -39t-3 -39.5t16 -32t41.5 -12.5q26 0 51.5 14t41.5 30t34 44.5t24 40t17 33.5q16 28 45 31.5t47 -17.5t6 -53q-15 -34 -39 -71t-57.5 -74t-78.5 -61t-91 -24q-81 0 -125.5 38.5t-44.5 115.5q0 41 31 115l166 374q22 52 -29 52q-62 0 -137 10 l-371 -805q-192 -422 -489 -422q-134 0 -201 64t-67 159z" />
<glyph unicode="&#xfb02;" d="M-831 -324q0 80 61 151.5t160 74.5q42 1 58.5 -26t-1 -54.5t-57.5 -26.5q-52 -4 -81.5 -41t-29.5 -78q0 -50 38 -83t120 -33q107 0 209 88t172 243l342 748q9 20 3 28.5t-28 8.5h-4q-40 2 -45 36q-5 32 24 55q20 15 46 15h28q44 0 60 37l57 123q44 94 95.5 170 t113.5 136.5t135.5 94t151.5 33.5q50 0 86 -8q19 -6 28.5 -5t26.5 13q104 68 213 68q134 0 201 -64t67 -159q0 -81 -61.5 -153.5t-159.5 -72.5q-34 0 -48 26.5t0 53.5t48 27q51 0 81 39t30 80q0 50 -38 83t-120 33q-106 0 -207.5 -87.5t-173.5 -243.5l-371 -803 q-10 -20 -14.5 -39t-4 -38.5t15 -31.5t42.5 -12q26 0 51.5 14t41.5 30t34 44.5t24 40t17 33.5q16 28 45 31.5t47.5 -17.5t6.5 -53q-15 -34 -39 -71t-58 -74t-79 -61t-91 -24q-81 0 -125.5 38.5t-44.5 115.5q0 52 31 119l354 762q60 129 144 233q3 3 5.5 9.5t-2.5 13t-22 4.5 q-99 -11 -197 -101.5t-165 -234.5l-54 -115q-9 -20 -4 -28.5t27 -8.5h49q41 0 49 -34q7 -33 -21 -56q-19 -16 -46 -16h-82q-42 0 -58 -37q-47 -104 -170.5 -372t-179.5 -392q-192 -422 -489 -422q-134 0 -201 64t-67 159z" />
<glyph horiz-adv-x="0" />
<glyph horiz-adv-x="682" />
<glyph unicode=" "  horiz-adv-x="305" />
<glyph unicode="&#x09;" horiz-adv-x="305" />
<glyph unicode="&#xa0;" horiz-adv-x="305" />
<glyph unicode="!" horiz-adv-x="526" d="M145 78q6 38 38 66t69 28q43 0 69 -30t17 -72q-6 -38 -38.5 -65.5t-72.5 -27.5t-64 31t-18 70zM301 266.5q-18 25.5 0 65.5l404 901q15 33 46.5 39t50 -18t1.5 -62l-400 -895q-18 -41 -51 -48.5t-51 18z" />
<glyph unicode="&#x22;" horiz-adv-x="526" d="M320.5 889q-14.5 26 3.5 69l110 230q24 49 67 50q34 0 45 -29q9 -23 -5 -52l-117 -244q-19 -39 -54 -44.5t-49.5 20.5zM512.5 889q-14.5 26 3.5 69l111 230q23 49 66 50q34 1 45 -29q9 -22 -5 -52l-117 -244q-19 -39 -54 -44.5t-49.5 20.5z" />
<glyph unicode="#" horiz-adv-x="1208" d="M108 393.5q-13 26.5 1.5 53t46.5 26.5h186q41 0 57 37l86 190h-182q-35 0 -48 27t1.5 53.5t46.5 26.5h189q41 0 57 37l106 235q16 33 49 38.5t52 -19.5t2 -64l-86 -190q-9 -20 -3.5 -28.5t27.5 -8.5h135q42 0 58 37l106 235q16 33 49 38.5t52 -19.5t2 -64l-86 -190 q-9 -20 -3.5 -28.5t27.5 -8.5h160q27 0 42 -16.5t15 -37t-15.5 -37t-41.5 -16.5h-207q-41 0 -57 -36l-86 -191h203q36 0 50.5 -26.5t-0.5 -53t-50 -26.5h-209q-42 0 -58 -37l-84 -191q-18 -35 -51 -41t-52 18t-3 62l67 152q9 20 3.5 28.5t-27.5 8.5h-135q-42 0 -58 -37 l-84 -191q-18 -35 -51 -41t-52 18t-3 62l67 152q9 20 3.5 28.5t-27.5 8.5h-139q-35 0 -48 26.5zM519 481.5q6 -8.5 28 -8.5h135q41 0 57 37l70 154q9 20 3 28t-28 8h-135q-41 0 -57 -36l-70 -154q-9 -20 -3 -28.5z" />
<glyph unicode="$" horiz-adv-x="1060" d="M74 471q0 100 45 186t132.5 139.5t199.5 53.5q100 0 182.5 -55.5t85.5 -128.5l37 84q-66 105 -66 196q0 109 76 175.5t164 66.5h22l11 24q13 30 42 34.5t47 -16.5t3 -54l-8 -19q89 -53 100 -149q0 -47 -27 -93.5t-76 -66.5q-35 -15 -56.5 2.5t-15 47.5t39.5 46 q32 14 32 57q0 39 -36 64l-136 -303l19 -27q108 -157 108 -268q0 -101 -39 -184.5t-103.5 -136.5t-144 -82t-163.5 -29h-4l-6 -19q-10 -28 -39 -34.5t-49 11.5t-7 50q-159 32 -264.5 148t-105.5 280zM176 467q0 -130 90 -220t219 -106l154 342q23 47 17 94t-29 85t-69.5 62 t-106.5 24q-125 0 -200 -81.5t-75 -199.5zM592 139q78 13 145 54t111.5 113t44.5 161q0 84 -70 186zM795 942q0 -41 14 -76l96 217q-45 -10 -77.5 -47.5t-32.5 -93.5z" />
<glyph unicode="%" horiz-adv-x="1036" d="M77 103.5q3 20.5 19 37.5l922 1000q27 31 60 24.5t39.5 -36.5t-21.5 -66l-916 -995q-17 -19 -37.5 -24.5t-35 3t-24 22.5t-6.5 34.5zM250 848q0 76 54 130t130 54t130 -54t54 -130t-54 -130t-130 -54t-130 54t-54 130zM360 848q0 -31 21.5 -52.5t52.5 -21.5t52.5 21.5 t21.5 52.5t-21.5 52.5t-52.5 21.5t-52.5 -21.5t-21.5 -52.5zM643 424q0 76 53.5 130t130.5 54t131 -54t54 -130t-54 -130t-131 -54t-130.5 54t-53.5 130zM754 424q0 -31 21 -52.5t52 -21.5t52.5 21.5t21.5 52.5t-21.5 52.5t-52.5 21.5t-52 -21.5t-21 -52.5z" />
<glyph unicode="&#x26;" horiz-adv-x="1622" d="M127 281q0 127 78.5 245t202.5 185q3 1 9 4t7.5 4t4.5 3.5t2 4t-3 5t-6.5 7.5t-11.5 9q-60 48 -92.5 115.5t-32.5 135.5q0 171 144.5 291.5t352.5 120.5q99 0 186 -33t145 -86.5t91 -119.5t33 -132q0 -117 -78.5 -202.5t-204.5 -85.5q-121 0 -194.5 64.5t-73.5 172.5 q0 35 8 60.5t33 54.5q16 15 34.5 17.5t32.5 -5t23.5 -20t8.5 -29t-13 -31.5q-18 -25 -18 -49q0 -56 46.5 -91.5t112.5 -37.5q78 0 128.5 53t50.5 127q0 101 -99 185t-252 84q-167 0 -278 -89t-111 -221q0 -37 15.5 -74t45 -70t79.5 -54t112 -23h14q28 0 43 -15.5t15 -37.5 t-15 -38.5t-43 -16.5h-18q-163 -6 -285.5 -122t-122.5 -265q0 -73 31.5 -142.5t91.5 -127.5t158 -93.5t219 -36.5q116 0 215.5 41.5t162 104.5t97.5 134t35 134q0 92 -63 159.5t-158 67.5q-106 0 -176 -108q-25 -39 -62 -31q-32 7 -38 40q-6 30 16 66q40 64 112.5 104 t147.5 40q55 0 120 -23.5t114 -52.5t111.5 -52.5t113.5 -23.5q64 0 105.5 42t41.5 91q0 39 -31 60q-25 17 -31 40.5t6 39.5t33 23t50 -9q84 -47 84 -154q0 -93 -72 -168t-186 -75q-49 0 -92 12q-31 9 -36 2.5t1 -37.5q4 -32 4 -53q0 -62 -25.5 -131.5t-79 -139t-126 -125.5 t-175.5 -91t-219 -35q-121 1 -223 31t-171.5 80.5t-118 116.5t-71 136.5t-22.5 143.5z" />
<glyph unicode="'" horiz-adv-x="376" d="M313 908.5q-1 22.5 11 49.5l110 230q24 50 66 49q32 -1 43 -32q8 -24 -6 -54l-113 -238q-12 -26 -30.5 -39t-35.5 -11t-30.5 12.5t-14.5 33z" />
<glyph unicode="(" horiz-adv-x="688" d="M236 25q0 141 37.5 296t111.5 306t173.5 279t234 220.5t282.5 124.5q24 5 43.5 -3t27 -23.5t7 -32.5t-14.5 -31.5t-38 -19.5q-129 -32 -249 -117t-210 -201.5t-157.5 -252.5t-102.5 -277t-35 -268q0 -185 64 -285q11 -20 11.5 -41t-11.5 -34t-27 -19t-34.5 3.5 t-33.5 33.5q-79 132 -79 342z" />
<glyph unicode=")" horiz-adv-x="688" d="M-237 -298.5q1 17.5 15 32.5t36 20q108 26 210 90t183.5 152t150 196.5t114 223.5t70.5 231.5t25 222.5q0 187 -63 285q-11 18 -10.5 37.5t12 32t26.5 18.5t33.5 -1.5t32.5 -29.5q80 -139 80 -342q0 -140 -38 -294.5t-112.5 -304t-175 -277t-235 -221t-281.5 -129.5 q-24 -6 -42.5 2t-25 23t-5.5 32.5z" />
<glyph unicode="*" horiz-adv-x="942" d="M226 917q-13 28 6 56t57 28h211l-84 152q-10 20 -8.5 39t13.5 31t27 17t33 -4t31 -32l102 -182l234 211q20 17 41 21t34.5 -4.5t20.5 -23t1 -34.5t-25 -37l-172 -154h198q46 0 53 -37q8 -34 -21 -59q-18 -16 -44 -16h-244l92 -166q19 -43 6 -72t-47 -27t-55 42l-100 186 l-219 -193q-29 -26 -58 -16t-32.5 36.5t16.5 49.5l176 160h-190q-40 0 -53 28z" />
<glyph unicode="+" horiz-adv-x="759" d="M117 459q0 21 15.5 37t39.5 16h166q41 0 57 37l64 143q17 34 47.5 39t47.5 -19.5t1 -62.5l-43 -100q-18 -37 25 -37h122q35 0 49 -26.5t-0.5 -53t-48.5 -26.5h-170q-39 0 -57 -37l-72 -166q-17 -34 -49 -40t-49.5 18.5t0.5 62.5l53 125q18 37 -24 37h-119q-24 0 -39.5 16 t-15.5 37z" />
<glyph unicode="," horiz-adv-x="464" d="M35 -104q6 9 16 14q75 37 121 90q-27 3 -44 27.5t-17 50.5q0 37 30 65.5t68 28.5q40 0 64 -26t24 -64q0 -67 -60 -131.5t-135 -102.5q-43 -22 -65 4q-18 21 -2 44z" />
<glyph unicode="-" horiz-adv-x="669" d="M122.5 432.5q-14.5 26.5 0 53t49.5 26.5h367q34 0 48 -26.5t0 -53t-48 -26.5h-367q-35 0 -49.5 26.5z" />
<glyph unicode="." horiz-adv-x="368" d="M88 59q4 32 30.5 55t57.5 23q36 0 57.5 -25.5t14.5 -60.5q-4 -32 -30.5 -54t-59.5 -22q-36 0 -56 25t-14 59z" />
<glyph unicode="/" horiz-adv-x="741" d="M108 11q-7 23 11 52l715 1143q19 29 53.5 30.5t49 -21t-4.5 -60.5l-713 -1139q-27 -44 -70 -39q-33 4 -41 34z" />
<glyph unicode="0" horiz-adv-x="1155" d="M121 377q-4 142 33 256q54 183 170.5 336t266.5 242t298 89q190 0 304 -128t120 -338q4 -126 -36.5 -260t-116 -250t-172.5 -209t-213 -147t-230 -54q-189 0 -303.5 128t-120.5 335zM231 377q5 -156 89.5 -254t222.5 -98q103 0 205.5 50.5t184 135.5t144.5 189t96 218 t29 216q-5 159 -89 257.5t-222 98.5q-125 0 -253.5 -79t-229.5 -216t-148 -299q-32 -106 -29 -219z" />
<glyph unicode="1" horiz-adv-x="522" d="M31 49q8 18 89 204t189 429q-11 -4 -51 -8q-41 -4 -59 24t-3 57t54 29q54 8 127 54l117 266q53 118 103 161.5t99 43.5q36 0 62 -28t26 -73q2 -56 -29.5 -121t-86 -126.5t-103 -107t-100.5 -87.5l-336 -754q-17 -37 -47.5 -43t-48.5 18t-2 62zM563 1016q-4 -10 1.5 -14 t13.5 4q26 25 67 102t31 88q-15 15 -54 -53q-26 -47 -59 -127z" />
<glyph unicode="2" horiz-adv-x="1095" d="M-84 61q2 27 23 45.5t57 18.5q96 3 215 40t236.5 95t230.5 136.5t200 161t142 171.5t59 166q5 120 -66.5 197t-203.5 77q-77 0 -145 -28t-113.5 -72.5t-72.5 -99t-29 -109.5q-6 -104 49 -174q13 -18 13.5 -37.5t-12.5 -34.5t-30 -24t-37.5 -5t-36.5 21q-84 100 -78 238 q5 81 43 161t102 144.5t159 104.5t204 40q173 0 280 -111t99 -282q-7 -127 -110.5 -274t-271 -273t-353.5 -192q-40 -14 -45 -27q-3 -10 27 -10h423q38 0 58 -20t18 -48q0 -23 -22 -40t-60 -17h-878q-36 0 -55 18t-19 43z" />
<glyph unicode="3" horiz-adv-x="1062" d="M-350.5 -478.5q-6.5 30.5 18 50t64.5 8.5q116 -29 213 -29q136 0 275 56t243.5 143t170.5 198.5t66 217.5q0 84 -43 145q-103 -30 -186 -30q-56 0 -101.5 9.5t-81.5 41t-36 82.5q0 54 52.5 90.5t133.5 36.5q64 0 130.5 -26t119.5 -71q110 44 194.5 125t126.5 172.5 t42 178.5q0 45 -17 90.5t-51 88.5t-96 70t-142 27q-160 0 -266 -95t-106 -208q0 -79 52.5 -139t141.5 -60q76 0 137.5 52.5t61.5 130.5q0 13 -1.5 24t-5.5 21.5t-5.5 15.5t-7.5 15l-5 10q-18 33 11.5 57.5t63.5 7.5q18 -9 30 -29q13 -21 22 -60t9 -73q0 -102 -93.5 -192 t-218.5 -90q-134 0 -217.5 90.5t-83.5 216.5q0 77 35.5 152t97.5 133.5t153.5 94.5t194.5 36q101 0 183 -35.5t132 -92.5t76.5 -124t26.5 -135q0 -155 -107 -316t-292 -248q51 -82 51 -190q0 -99 -46.5 -204.5t-130.5 -198t-191.5 -166.5t-240 -117t-265.5 -43 q-164 0 -248 37q-37 17 -43.5 47.5zM358 410q2 -7 23 -13t49 -6q44 0 90 6q37 6 4 17q-52 18 -100 18q-21 0 -37 -3t-23.5 -8t-5.5 -11z" />
<glyph unicode="4" horiz-adv-x="978" d="M-124 87q11 36 48 63q109 83 220 202t213 265.5t166.5 317.5t64.5 327q0 68 -17 120q-13 39 14.5 62.5t64.5 14t48 -49.5q13 -57 13 -125q0 -154 -51.5 -317t-138.5 -307.5t-182 -264t-202 -223.5q-10 -10 -14 -15t-8.5 -14t3.5 -13.5t29 -4.5h9h295q41 0 57 37l477 1042 q17 35 51.5 40t55.5 -20t4 -63l-463 -999q-8 -20 -2.5 -28.5t26.5 -8.5h91q38 0 57.5 -20t17.5 -48q0 -23 -22 -40t-60 -17h-143q-43 0 -57 -37l-158 -342q-18 -37 -51 -39t-47.5 24.5t0.5 67.5l133 289q8 20 2.5 28.5t-27.5 8.5h-454q-39 0 -56.5 25.5t-6.5 61.5z" />
<glyph unicode="5" horiz-adv-x="997" d="M-438.5 -524.5q-4.5 29.5 20 49t62.5 10.5q118 -31 215 -31q122 0 254.5 48.5t248 133.5t209.5 191t148.5 230t54.5 241q0 128 -76 208.5t-202 80.5q-105 0 -140 -35q-25 -26 -61.5 -24.5t-50 27.5t9.5 71q81 125 165 295.5t109 269.5q8 31 37.5 41t53.5 -6.5t18 -50.5 q-2 -4 1 -8.5t11 -4.5h352q38 0 57 -19.5t17 -47.5q-2 -24 -24 -41t-60 -17h-354q-22 0 -32.5 -8t-18.5 -28q-49 -129 -129 -258q-17 -28 -13 -32.5t43 -4.5h25q160 0 271.5 -113t111.5 -291q0 -111 -40.5 -228t-110.5 -223t-169 -201t-212 -164t-244.5 -109.5t-261.5 -40.5 q-46 0 -128 12t-130 33q-33 15 -37.5 44.5z" />
<glyph unicode="6" horiz-adv-x="1095" d="M31 379q0 130 49 254.5t132.5 225.5t193.5 190.5t232.5 156.5t249 117.5t243.5 78.5t215 34q30 0 43.5 -16.5t13.5 -39.5q0 -22 -15.5 -39t-39.5 -20q-121 -13 -254.5 -52t-268 -99t-255.5 -144.5t-215 -182.5t-149.5 -219.5t-55.5 -248.5q0 -137 86 -229.5t233 -92.5 q100 0 191 40t152 102t96.5 137t35.5 147q0 106 -66 177t-173 71q-117 0 -210.5 -81t-93.5 -183q0 -26 17 -47q18 -25 15 -47.5t-23 -36.5q-18 -16 -45.5 -14.5t-45.5 22.5q-34 42 -34 123q0 63 32 130t86 123.5t134 93t168 36.5q153 0 255.5 -100t102.5 -246 q0 -99 -42.5 -198.5t-117 -181t-188 -132.5t-244.5 -51q-208 0 -324 124.5t-116 317.5z" />
<glyph unicode="7" horiz-adv-x="944" d="M168 29q17 127 86 276t170 289t220 268t243 230q9 7 14 12t7 8.5t3.5 5.5t-3 4t-5.5 2.5t-10.5 2.5t-13.5 3q-17 4 -62 17.5t-78.5 20t-64.5 6.5q-106 0 -129 -35q-21 -29 -46.5 -36t-41 6.5t-20 36.5t15.5 54q59 90 223 90q56 0 169 -32.5t171 -32.5q77 0 90 32 q17 43 60 43q36 0 50 -28q11 -21 -4 -47q-33 -55 -94 -90q-114 -77 -244.5 -203.5t-252.5 -276.5t-216.5 -322.5t-125.5 -320.5q-5 -24 -24.5 -37t-40 -12t-35.5 18.5t-11 47.5z" />
<glyph unicode="8" horiz-adv-x="1126" d="M57 344q0 73 20.5 138t53 114.5t84.5 95.5t103 78.5t122 65.5t127.5 54.5t132.5 47.5q-65 100 -65 207q0 128 104.5 219.5t239.5 91.5h8q111 0 185.5 -70t74.5 -169q0 -62 -26 -112.5t-77 -90t-108 -68.5t-137 -59q36 -39 52.5 -58.5t47 -57.5t46 -66t34 -66.5t26 -78 t7.5 -81.5q0 -122 -76 -237q-79 -134 -219.5 -217.5t-314.5 -83.5q-200 0 -322.5 112t-122.5 291zM176 344q0 -127 91.5 -209t232.5 -82q137 0 250.5 67t181.5 171q28 41 42.5 94t14.5 94q0 65 -28.5 129.5t-60 103.5t-87.5 99l-31 33q-224 -78 -308 -119 q-213 -102 -272 -246q-26 -62 -26 -135zM745 1145q0 -66 76 -168q74 25 125 47t97 51t69 64.5t23 77.5q0 56 -44.5 92.5t-111.5 36.5q-93 0 -163.5 -58.5t-70.5 -142.5z" />
<glyph unicode="9" horiz-adv-x="1114" d="M-92 -127q0 22 15.5 39t39.5 20q101 14 213 46t228.5 81t226 111t206 141.5t168.5 166.5t114 190.5t42 210.5q0 137 -86 229t-233 92q-100 0 -191 -40t-152 -102t-96.5 -137t-35.5 -147q0 -106 66 -177t173 -71q117 0 210 81t93 184q0 27 -16 47q-18 25 -15 47.5t23 36.5 q18 16 45 14t45 -23q35 -44 35 -122q0 -63 -32 -130t-86 -123.5t-134 -93t-168 -36.5q-153 0 -255.5 100t-102.5 246q0 99 42.5 198.5t117 181t188 132.5t244.5 51q208 0 324 -124.5t116 -318.5q0 -114 -38 -224.5t-104 -202t-154.5 -176t-191 -151t-212 -121.5t-219 -92.5 t-210 -60.5t-186.5 -28q-30 0 -43.5 16t-13.5 39z" />
<glyph unicode=":" horiz-adv-x="495" d="M115 78q6 38 37.5 66t68.5 28q43 0 69 -30t17 -72q-8 -38 -39.5 -65.5t-70.5 -27.5q-42 0 -65 30t-17 71zM346 696q6 38 38 66.5t69 28.5q43 0 69 -30.5t17 -72.5q-8 -37 -40 -64.5t-71 -27.5q-42 0 -65 29.5t-17 70.5z" />
<glyph unicode=";" horiz-adv-x="485" d="M35 -104q6 9 16 14q75 37 121 90q-27 3 -44 27.5t-17 50.5q0 37 30 65.5t68 28.5q40 0 64 -26t24 -64q0 -67 -60 -131.5t-135 -102.5q-43 -22 -65 4q-18 21 -2 44zM336 696q6 38 37.5 66.5t68.5 28.5q43 0 69 -30.5t17 -72.5q-8 -38 -39.5 -65t-70.5 -27q-42 0 -65 29.5 t-17 70.5z" />
<glyph unicode="&#x3c;" horiz-adv-x="675" d="M184 412q0 24 10 39.5t33 35.5l168 168q19 13 37 13q21 0 34.5 -15t18.5 -39q8 -36 -22 -57l-121 -121q-16 -16 -16 -24q0 -9 16 -25l113 -113q29 -24 22 -57q-10 -53 -53 -53q-19 0 -37 12l-160 160q-43 34 -43 76z" />
<glyph unicode="=" horiz-adv-x="739" d="M137 293q0 21 16 37t40 16h366q36 0 49 -26.5t-2 -53t-47 -26.5h-366q-24 0 -40 16t-16 37zM221 506q0 21 15.5 37t39.5 16h367q36 0 49 -26.5t-2 -53t-47 -26.5h-367q-24 0 -39.5 16t-15.5 37z" />
<glyph unicode="&#x3e;" horiz-adv-x="661" d="M233 209q-7 33 23 57l121 121q16 16 16 25q0 8 -16 24l-121 121q-31 22 -23 57q5 24 19 39t35 15q17 0 37 -13l168 -168q23 -20 33 -35.5t10 -39.5q0 -42 -43 -76l-168 -168q-18 -12 -37 -12q-21 0 -35 14.5t-19 38.5z" />
<glyph unicode="?" horiz-adv-x="665" d="M123 78q6 38 37.5 66t68.5 28q43 0 69 -30t17 -72q-8 -38 -39.5 -65.5t-70.5 -27.5q-42 0 -65 30t-17 71zM223 948q0 67 30 131.5t82.5 115t131 81.5t168.5 31q101 0 183 -35.5t132 -93t76.5 -124.5t26.5 -134q0 -54 -14.5 -103.5t-36 -87.5t-59 -75.5t-70.5 -63.5 t-83.5 -55.5t-85 -47t-88.5 -43.5q-77 -37 -119 -59.5t-88.5 -58.5t-62.5 -72q-19 -34 -50 -35.5t-43 24t5 68.5q18 35 47.5 65.5t77.5 61t82 48.5t100 51q50 24 78.5 38.5t73.5 40t72 45.5t59.5 50.5t50 60t29.5 68t12 80.5q0 44 -17 89.5t-51 88.5t-96 70.5t-141 27.5 q-134 0 -218.5 -77t-84.5 -169q0 -74 40 -128t113 -54q80 0 133 47q15 15 33 18t31.5 -5t22 -21t5.5 -31.5t-18 -34.5q-87 -84 -209 -84q-117 0 -188.5 85.5t-71.5 205.5z" />
<glyph unicode="@" horiz-adv-x="1746" d="M61 238q0 119 34.5 235t96 215t147 183.5t185.5 143.5t214.5 92.5t230.5 33.5q147 0 273.5 -53t215.5 -145t140 -221.5t51 -277.5q0 -158 -73 -296.5t-189 -218t-242 -79.5q-111 0 -185 54.5t-106 140.5q-70 -70 -156 -70q-84 0 -132 40t-48 116q0 51 29 115l153 323 q110 224 265 224q41 0 79 -17.5t52 -48.5q16 41 55 45q33 2 46 -24q8 -18 -1 -43l-178 -392l-43 -98q-21 -46 -21 -86q0 -73 57 -121.5t134 -48.5q70 0 141 39t126.5 104t90.5 156t35 188q0 253 -162.5 418.5t-414.5 165.5q-147 0 -291 -66t-252.5 -173t-176 -251.5 t-67.5 -293.5q0 -162 74.5 -294t208.5 -208t301 -76q198 0 377 103q37 17 61 0t18.5 -48.5t-40.5 -48.5q-205 -116 -424 -116q-196 0 -354 89.5t-246.5 245t-88.5 345.5zM632.5 145q-1.5 -26 14.5 -44.5t51 -18.5q50 0 91 44t65 95l43 92l119 252q14 29 16.5 55t-13.5 46 t-54 20q-14 0 -27.5 -4t-24 -9t-22.5 -15.5t-20 -18t-18 -22t-15 -22.5t-14 -23.5t-11.5 -21t-10 -20.5t-7.5 -16l-148 -315q-13 -28 -14.5 -54z" />
<glyph unicode="A" horiz-adv-x="2217" d="M39 377q0 109 41 211t113.5 180.5t181 126t233.5 47.5q211 0 326 -106.5t115 -266.5q0 -137 -107 -231q-24 -20 -48 -20q-8 0 -16 2q-32 9 -34 40v5q0 29 30 63q64 58 64 141q0 115 -86 188.5t-248 73.5q-133 0 -238 -64t-160.5 -167t-55.5 -223q0 -130 69.5 -235.5 t180 -162.5t233.5 -57q98 0 197.5 38t185 99.5t167 146t145.5 172t120 183.5q77 131 161.5 245.5t196.5 228t230.5 194t263.5 130.5t295 50q103 0 174 -43q26 -16 26 -42q0 -9 -3 -18q-10 -32 -42 -40q-26 -6 -53 12q-36 22 -92 25q-58 0 -115.5 -36.5t-105 -97.5t-82 -119 t-64.5 -122l-397 -856q-41 -96 -41 -185q0 -114 88 -114q11 0 35 4q37 7 51 -27q5 -12 4 -24q0 -20 -15 -38q-15 -17 -40 -22q-24 -4 -41 -4q-99 0 -145.5 63.5t-46.5 161.5q0 113 53 226l143 307q8 20 2.5 28.5t-26.5 8.5h-291q-29 0 -47 -8.5t-24 -16t-17 -26.5 q-77 -124 -165 -226.5t-194.5 -187.5t-232.5 -132.5t-258 -47.5q-161 0 -296 70t-216.5 200.5t-81.5 294.5zM1590 576q6 -16 30 -15h287q43 0 59 37l158 338q105 216 196 324q-208 -64 -393 -232.5t-334 -425.5q-6 -6 -6 -15q1 -5 3 -11z" />
<glyph unicode="B" horiz-adv-x="1691" d="M-27 -4q0 55 57.5 97t137.5 42q58 0 128 -20t113 -39t123 -58q55 34 103.5 86.5t93.5 127t75.5 134.5t76.5 158l-2 -2q32 79 69 154v-2l70 151q6 14 27 60t29.5 64t28 60t30.5 62t29.5 54.5t32.5 54t31.5 43.5t34 40t33.5 27q-122 39 -237 39q-177 0 -328 -45t-253 -118 t-175 -166.5t-106 -188.5t-33 -186q0 -119 56 -210.5t159 -135.5q36 -15 42 -46t-18 -51q-15 -13 -35 -13q-13 0 -28 5q-140 52 -214.5 174.5t-74.5 278.5q0 102 38.5 211t120.5 216t197 191t283 136.5t363 52.5q179 0 334.5 -65t251.5 -185.5t96 -268.5q0 -125 -63 -225 t-165 -160q80 -92 80 -217q0 -77 -31 -155.5t-88.5 -146.5t-133 -121.5t-171.5 -84t-196 -30.5q-107 0 -205.5 31t-218.5 88q-121 -59 -289 -62q-38 1 -79.5 8.5t-89.5 24t-79 50.5t-31 81zM82 -4q0 -17 19.5 -28.5t50.5 -16.5t54 -6.5t46 -1.5q76 0 154 20q-5 2 -24 10.5 t-25 11t-23 10t-25 10l-24 7.5t-27 7t-26.5 5t-30.5 4t-31 1q-40 -1 -64 -11.5t-24 -21.5zM647 -37q174 -76 311 -76q105 0 201 37.5t163 97.5t106.5 136.5t39.5 154.5q0 104 -63 162q-92 -35 -201 -35q-65 0 -111 33t-46 74q0 51 46.5 81.5t110.5 30.5q115 0 213 -55 q89 45 145 126.5t56 184.5q0 95 -59.5 183.5t-163.5 148.5q-33 -13 -67.5 -54.5t-66.5 -100t-63.5 -127.5t-63.5 -141q-11 -25 -16 -38l-137 -299q-47 -102 -77 -162t-73 -135.5t-88 -130t-96 -96.5zM1145 553q-2 -2 -2 -4q0 -7 20 -15q21 -9 43 -10h14q51 0 95 19 q-29 20 -87 25q-12 1 -22 1q-41 0 -61 -16z" />
<glyph unicode="C" horiz-adv-x="1470" d="M160 412q4 126 52 261.5t137.5 262t206.5 227.5t271.5 162t319.5 61q110 0 200 -31t146 -82.5t86 -114.5t31 -130q-5 -129 -101 -230.5t-233 -101.5q-72 0 -125 21t-81 57q-28 35 -40 75q-11 34 -10 73v12q0 55 41 106q28 36 63 36q34 0 44 -26q4 -9 4 -19q0 -20 -13 -44 q-9 -13 -19 -34t-10 -36q0 -45 36 -77q38 -34 116 -35q90 0 153.5 65.5t65.5 147.5v6q0 100 -91 176q-94 78 -267 78q-146 0 -283 -54t-240 -144t-182 -202t-121 -232.5t-45 -231.5v-17q0 -96 31 -190q34 -102 97.5 -183.5t162 -131.5t213.5 -50q91 0 172 31t137.5 81.5 t92 113.5t43.5 129q2 16 2 32q0 73 -47 133q-57 72 -156 72h-4q-81 0 -133 -38q-53 -39 -56 -93q-3 -41 -30 -58t-52 -1q-22 15 -22 50v9q5 95 93 169q86 73 216 73h4q97 0 170 -52.5t105 -134.5q22 -57 22 -118q0 -27 -4 -54q-13 -83 -58.5 -163.5t-116 -145.5t-170.5 -105 t-212 -40q-140 0 -258.5 55.5t-196 149.5t-119.5 217q-38 112 -38 235v23z" />
<glyph unicode="D" horiz-adv-x="1994" d="M-27 12q0 56 58.5 97t142.5 41q94 0 184.5 -25t210.5 -72q48 35 90 83t83.5 118.5t67 122t71.5 147.5v-2l168 373q100 225 192 362q13 19 13 32q0 18 -25 24q-69 10 -174 10q-148 0 -278.5 -31.5t-226.5 -85t-171.5 -123t-122 -148.5t-70.5 -157.5t-24 -152.5 q0 -115 59.5 -211t161.5 -138q33 -14 37 -44t-20 -50q-15 -12 -35 -12q-12 0 -27 4q-140 52 -214.5 174.5t-74.5 278.5q0 85 28 175.5t82 181t140 171t194 143t253.5 99.5t308.5 37q267 0 461 -86q144 -64 246 -167t151 -224t49 -252q0 -138 -45 -271t-130.5 -244t-200 -196 t-262 -132.5t-308.5 -47.5q-70 0 -151.5 19t-135.5 39t-147 58q-137 -79 -330 -82q-38 1 -79.5 8.5t-89.5 24t-79 50.5t-31 81zM82 12q0 -17 19.5 -28.5t50.5 -16.5t54 -6.5t46 -1.5q79 0 151 16q9 2 12.5 6t0.5 8.5t-13 8.5q-139 47 -233 47q-40 0 -64 -10.5t-24 -22.5z M702 23q-6 -7 -6 -13q0 -9 17 -14q76 -26 109 -36t91.5 -23t102.5 -13q177 0 333.5 64.5t264.5 171.5t170.5 249.5t62.5 295.5q0 116 -44.5 221.5t-140 194.5t-230.5 139q-18 9 -32 9q-4 -1 -8 -1q-18 -4 -38 -31q-34 -45 -72 -113t-62.5 -119t-70.5 -149l-168 -367 q-147 -318 -279 -466z" />
<glyph unicode="E" horiz-adv-x="1413" d="M129 193q2 86 41 172t106.5 160t169.5 129.5t222 76.5q-76 115 -76 252v10q3 124 83 232t210.5 170.5t275.5 62.5q107 0 197.5 -30t149.5 -79.5t92 -112t34 -128.5q0 -132 -95.5 -235t-233.5 -103h-4q-123 0 -193 68q-68 66 -68 152v7q0 91 54 140q23 18 46 18l14 -1 q30 -8 36 -34t-16 -55q-25 -25 -25 -68q-3 -49 39 -84q40 -34 113 -34h4q90 0 154.5 67t64.5 152q2 99 -100.5 176.5t-266.5 77.5q-118 0 -223 -48.5t-168.5 -131.5t-65.5 -179v-11q0 -92 48 -151q50 -62 153 -63h37q30 0 46.5 -17.5t16.5 -41.5q0 -25 -16 -41.5t-45 -16.5 h-47q-20 1 -40 1q-107 0 -209 -32q-120 -38 -204 -103.5t-137.5 -151t-60.5 -172.5q1 -54 18.5 -106.5t54 -102.5t87.5 -88t125 -61t161 -23q90 0 169.5 30.5t135 80.5t89.5 112.5t40 128.5q1 12 1 24q0 78 -50 140q-58 72 -155 71h-4q-78 0 -130 -38q-52 -39 -55 -91 q-1 -31 -17.5 -48t-39.5 -17t-37 16.5t-14 48.5q3 95 89 170q85 74 216 74h4q73 0 134.5 -31t100.5 -82t58 -115q14 -47 14 -96q0 -18 -2 -36q-9 -66 -39 -131t-79.5 -123.5t-113 -104t-146 -72t-171.5 -26.5q-121 0 -218.5 30t-160.5 79t-104.5 114.5t-58.5 133.5 q-15 61 -15 124v15z" />
<glyph unicode="F" horiz-adv-x="1261" d="M-61 50q16 30 52 24t52 -51q14 -39 70.5 -66t132.5 -27q74 0 139 16t115.5 41.5t98 71t81.5 88.5t71 110t62.5 120t60.5 133l15 33q9 20 3 28.5t-28 8.5h-4q-42 0 -49 34q-7 33 22 56q20 16 48 16h32q42 0 58 37l41 92q118 264 207 381q9 12 12 19.5t-2.5 15.5t-24.5 14 q-130 35 -221 41q-26 1 -52 1q-145 1 -269 -33q-148 -40 -248 -109t-172 -160t-105 -187t-33 -190q0 -141 74 -257.5t205 -166.5q26 -10 39.5 -28t11.5 -35t-12.5 -32t-32 -18.5t-47.5 5.5q-162 62 -255 211.5t-93 318.5q0 108 35 218t110.5 214t182 184.5t263 129.5 t339.5 49q5 0 14 -1t14 -1h31q99 -4 217 -31.5t206.5 -58t188.5 -55.5t170 -25q111 0 173 44.5t67 98.5q4 42 33 56q11 5 22 5q17 0 33 -14q22 -18 22 -52q0 -6 -1 -13q-4 -40 -29.5 -80.5t-69 -75t-109 -56.5t-141.5 -22h-6q-104 0 -350 68q-28 7 -45 4t-33 -23 q-99 -125 -217 -393l-24 -53q-9 -20 -3.5 -28.5t27.5 -8.5h80q42 0 50 -35q8 -33 -20 -57q-19 -16 -48 -16h-113q-41 0 -57 -37l-29 -62q-34 -73 -56.5 -120t-56 -110.5t-60.5 -104t-64.5 -89.5t-73.5 -80t-82.5 -63t-96.5 -49.5t-110.5 -29.5t-128.5 -13 q-109 0 -193.5 42.5t-113.5 112.5q-10 24 -10 44q0 17 8 31z" />
<glyph unicode="G" horiz-adv-x="1388" d="M150 502q0 110 40.5 233t119.5 239t183 209.5t243.5 150.5t289.5 57q199 0 316.5 -92.5t119.5 -219.5q0 -118 -83.5 -210.5t-207.5 -92.5q-113 0 -174 61t-61 144q0 73 49 125q23 25 52 22t37 -27q3 -7 3 -14q0 -20 -16 -47q-21 -31 -21 -59q2 -41 34 -69t97 -29 q78 0 130.5 58.5t52.5 135.5q0 84 -88 145.5t-238 61.5q-109 0 -213 -35.5t-187 -95.5t-153.5 -138.5t-117.5 -165.5t-73 -176.5t-26 -170.5t26.5 -155t75 -132t126 -92.5t171.5 -34.5q85 0 163.5 27t134.5 67.5t105 95t79 101.5t53 96l41 86q25 48 67 51q33 3 43 -26 q6 -22 -8 -51l-284 -629q-192 -422 -490 -422q-133 0 -200.5 64.5t-67.5 158.5q0 80 62.5 152.5t160.5 72.5q40 0 56 -26t-0.5 -52t-57.5 -26q-47 0 -79 -36q-29 -34 -29 -77v-8q3 -50 39.5 -83.5t115.5 -33.5q108 0 209.5 87.5t171.5 244.5l62 135q7 14 4 17t-9.5 1 t-13.5 -7q-144 -88 -328 -88q-119 0 -217 44t-160 118t-96 167t-34 193z" />
<glyph unicode="H" horiz-adv-x="1880" d="M-14 14q-2 8 -2 15q0 24 19 39q24 19 54 10t39 -43q11 -40 68 -66t135 -26q74 0 138.5 16t115 41.5t97.5 70.5t81 88.5t71.5 110t63 120t60.5 132.5l12 29q9 20 3 28.5t-28 8.5h-8q-43 0 -51 34q-7 33 22 56q20 16 48 16h41q41 0 57 37l43 94q125 278 229 428 q-209 62 -336 62q-139 0 -261.5 -44t-207.5 -116t-147 -162.5t-91.5 -183.5t-29.5 -180q0 -137 74 -252.5t205 -171.5q45 -17 45 -58q0 -20 -17.5 -36.5t-40.5 -16.5q-22 0 -30 6l2 -2q-168 68 -258 212t-90 319q0 100 33 207.5t103 213.5t166.5 189.5t236.5 135.5t300 52 q66 0 139.5 -11t127.5 -23.5t163 -40.5q113 113 228 116q84 0 131 -35t47 -85q0 -70 -53.5 -112t-130.5 -42q-71 0 -193 31q-14 -18 -28 -38t-25.5 -36.5t-26.5 -43t-23.5 -41t-25 -46t-22.5 -43.5t-24 -49t-22 -45.5t-24 -50.5t-23 -48l-24 -53q-9 -20 -4.5 -28.5 t26.5 -8.5h549q43 0 57 37l150 322q92 198 217 316t279 118q134 0 201 -64t67 -159q0 -80 -61 -151.5t-160 -74.5q-34 -1 -47.5 26t0.5 54.5t47 26.5q51 4 80.5 41.5t29.5 77.5q0 50 -37.5 83t-119.5 33q-103 0 -207.5 -90.5t-173.5 -240.5l-398 -875q-20 -44 -20 -74 q0 -29 16 -47q25 -28 17 -55t-33.5 -32.5t-52.5 11.5q-58 47 -58 123q0 41 31 115l152 336q9 20 3 28.5t-28 8.5h-549q-41 0 -57 -37l-29 -62q-32 -69 -51.5 -110t-50 -101.5t-53 -96.5t-55 -84.5t-62 -77.5t-68 -63t-79 -53.5t-88.5 -37.5t-103 -25.5t-117 -7.5 q-119 0 -207 50.5t-108 131.5zM1505 1321q41 -14 99 -14q71 0 71 32q0 23 -65 23q-52 0 -105 -41z" />
<glyph unicode="I" horiz-adv-x="1187" d="M4 12q-10 24 -10 43.5t10 33.5q20 28 54 18.5t48 -52.5q12 -40 69 -66t136 -26q75 0 142 20t117 48t100.5 81.5t83 95.5t73.5 116t62 118t58 125q25 55 38 82t49 106.5t61.5 132.5t63 123.5t76.5 125t78 90.5q19 17 14 28.5t-41 18.5q-49 10 -102 10q-197 0 -328 -136.5 t-131 -338.5q0 -71 18 -129q7 -14 7 -27q0 -18 -13 -34q-19 -23 -47 -23h-10q-35 4 -49 47q-27 82 -27 166q0 160 76.5 294.5t210 213t293.5 78.5q148 0 262 -41q36 -12 54 -32q17 -18 17 -37t-8 -37q-7 -16 -18 -27q-78 -61 -134 -123t-73 -90q-34 -54 -192 -396 q-111 -241 -154 -318q-134 -245 -293 -348q-145 -93 -334 -93q-109 0 -193.5 43.5t-113.5 115.5z" />
<glyph unicode="J" horiz-adv-x="1187" d="M-106 -138q20 28 54 18.5t48 -52.5q12 -40 69 -66t136 -26q251 0 422 219q85 108 190 335q7 16 22 49q26 56 39 83q6 13 59 128t91.5 193t94.5 187t105.5 185t88.5 112q19 17 14 28.5t-41 18.5q-49 10 -102 10q-197 0 -328 -136.5t-131 -338.5q0 -71 18 -129q7 -14 7 -27 q0 -18 -13 -34q-19 -23 -47 -23h-10q-35 5 -49 47q-27 82 -27 166q0 160 76.5 294.5t210 213t293.5 78.5q148 0 262 -41q36 -13 54 -32q17 -19 17 -37q0 -20 -8 -37q-7 -16 -18 -27q-78 -61 -134 -123t-73 -90q-25 -39 -138.5 -275.5t-164.5 -347.5q-111 -240 -151 -315 q-133 -245 -291 -349q-146 -96 -338 -96q-109 0 -193.5 44t-113.5 116q-10 25 -10 44t10 33z" />
<glyph unicode="K" horiz-adv-x="1763" d="M-21 12q14 26 46.5 21t52.5 -41q22 -39 75.5 -65.5t127.5 -26.5q53 0 69 2q-123 110 -190.5 254t-67.5 301q0 195 77 369.5t206 297.5t304 195t365 72q207 0 373 -91q22 -13 32 -22t8.5 -20t-7 -18t-20.5 -23q-122 -129 -256 -416q-74 -166 -101 -223l-102 -222 q-86 -185 -173 -303.5t-208 -185.5q108 -55 194 -74q45 -9 45 -47q1 -34 -30 -52q-25 -14 -54 -3q-162 49 -274 121q-85 -20 -188 -23q-105 0 -188 41t-115 109q-8 25 -8 44q0 17 7 29zM203 457q0 -148 74 -285.5t206 -234.5q54 20 102.5 55.5t85.5 76t74 98.5t64.5 111 t60.5 125l201 441q101 228 195 348q14 21 10.5 30.5t-25.5 18.5q-91 39 -207 39q-168 0 -322 -63t-268.5 -171t-182.5 -262t-68 -327zM1124 406q18 42 70 43q40 7 81.5 27.5t76.5 46.5t78 69.5t74 79t75 94.5t71 97t72 104q48 68 77 108.5t75.5 100t79.5 95.5t78 78t82.5 65 t81 38.5t85.5 15.5q59 0 111 -24q38 -18 42 -51t-22 -48q-13 -7 -30 -7q-18 0 -39 8q-27 12 -62 12q-31 0 -64.5 -14.5t-63 -34t-68 -58.5t-65.5 -69.5t-70 -87t-67.5 -90.5t-70.5 -99q-50 -69 -77 -106.5t-75.5 -100.5t-81 -100t-79.5 -85t-85.5 -76.5t-85 -54.5t-91.5 -38 q41 -81 135 -305q37 -94 59.5 -148t63 -138t74 -133.5t84.5 -109t103.5 -91t121.5 -54t147 -22.5q137 0 228.5 72t91.5 161q0 43 -20.5 84.5t-51.5 67.5q-20 22 -21 44.5t13 36t34 19t42 -7.5q54 -37 84.5 -102.5t30.5 -133.5q0 -103 -63 -185t-160.5 -124.5t-207.5 -42.5 q-94 0 -177.5 25t-145 60.5t-121 101.5t-97.5 120t-83 146t-69 150t-64 159h2l-27 59q-9 23 -34.5 87.5t-42 103.5t-33.5 71q-16 29 -16 56q-1 18 7 35z" />
<glyph unicode="L" horiz-adv-x="1771" d="M16 33q0 63 32.5 113t86 79.5t115 44.5t125.5 15q142 0 277.5 -68.5t289.5 -193.5q117 83 209 194q18 20 13 28t-36 1q-110 -21 -194 -21q-192 0 -354 76t-256.5 209.5t-94.5 294.5q0 122 44 229.5t118 184t169.5 132t199.5 82.5t207 27q167 0 357 -77.5t310 -211.5 q148 259 293 259q74 0 112 -55t38 -156q0 -154 -94.5 -328.5t-261 -327.5t-365.5 -241q-143 -253 -322 -379l94 -84q74 -66 117.5 -104t117.5 -97.5t127.5 -95t129 -77.5t141 -65t145 -39t158.5 -16q92 0 170 27t128 71t78 97.5t28 107.5q0 82 -68 133q-24 20 -20.5 48.5 t26.5 39.5t54 -4q116 -71 116 -223q0 -72 -34.5 -143t-97 -130.5t-163 -96.5t-219.5 -37q-70 0 -140 11t-129 26t-125 45.5t-114 55t-111 69t-102 73.5t-102 82.5t-94 82t-94 85.5q-40 38 -111 98q-219 -124 -477 -127q-188 0 -317.5 75t-129.5 202zM131 37 q0 -75 100 -122.5t232 -47.5q189 0 350 80q37 18 0 43q-122 89 -224.5 136.5t-205.5 47.5q-116 0 -184 -37t-68 -100zM340 809q0 -131 80 -239.5t217 -170t299 -61.5q166 0 344 72l2 4q59 117 149 324t130 288q12 16 10.5 32.5t-23.5 35.5q-104 115 -256 186h2 q-156 70 -327 70q-87 0 -176 -23t-170 -69.5t-143.5 -110t-100 -151.5t-37.5 -187zM1442 498q2 -2 5 -1q6 0 19 7q217 138 358.5 341t141.5 378q0 96 -47 96q-88 0 -215 -248l47 -84q9 -18 9 -34.5t-9 -33.5q-17 -32 -50 -32q-1 1 -3 1q-34 2 -58 50l-2 4q-5 -12 -61.5 -140 t-126.5 -278q-9 -15 -9 -21q0 -3 1 -5z" />
<glyph unicode="M" horiz-adv-x="1738" d="M-66 1116q0 109 63 202t165 146.5t215 53.5q111 0 212 -48t167.5 -142t66.5 -212q0 -31 -2 -47q25 35 70 78q57 57 133.5 91t134.5 34q80 0 127 -43.5t60 -112.5q0 -1 1 -4t1 -4q4 -18 24 2q70 73 156 117.5t151 44.5q99 0 151 -60.5t52 -146.5q0 -67 -24 -117l-437 -944 q-20 -58 -20 -72q0 -20 4 -24q26 -23 26 -50q0 -13 -6 -27q-14 -33 -46 -38q-4 -1 -7 -1q-17 0 -31 13q-59 40 -59 127q0 45 31 121q46 102 176.5 380t241.5 519q24 58 24 99q0 43 -26.5 70.5t-77.5 27.5q-92 0 -192 -77.5t-167 -221.5l-387 -840q-23 -47 -69 -47 q-32 0 -49 23.5t1 60.5l422 905q29 63 29 97q0 45 -26 72.5t-68 27.5q-99 0 -209 -90t-193 -262l-16 -35l-342 -752q-23 -47 -70 -47q-31 0 -47 24t0 60l348 752l35 75l17 37q45 102 45 201q0 131 -99.5 214t-238.5 83q-81 0 -156.5 -35.5t-125.5 -105t-50 -154.5 q0 -96 63 -163.5t162 -67.5q48 0 89 21.5t59 62.5q9 23 26 35t33.5 9.5t31 -11.5t19.5 -28t-2 -40q-28 -76 -98 -116t-158 -40q-140 0 -237 99t-97 241z" />
<glyph unicode="N" horiz-adv-x="1249" d="M-66 1116q0 109 63 202t165 146.5t215 53.5q111 0 212 -48t167.5 -142t66.5 -212q0 -15 2.5 -22t8.5 -4t9.5 6t12.5 12q143 143 303 143q99 0 151 -62.5t52 -148.5q0 -64 -25 -116l-419 -944q-21 -61 -21 -72q0 -21 4 -25q26 -23 26 -50q0 -13 -6 -27q-14 -33 -46 -36h-5 q-17 0 -32 13v-2q-60 41 -60 127q0 45 31 121q27 61 86.5 197.5t136.5 310t178 391.5q25 60 25 98q0 42 -27 70t-78 28q-54 0 -98.5 -19.5t-97.5 -62.5q-124 -100 -217 -305l-342 -751q-23 -47 -70 -47q-31 0 -47 24t0 60l410 888q45 102 45 201q0 131 -99.5 214t-238.5 83 q-81 0 -156.5 -35.5t-125.5 -105t-50 -154.5q0 -96 63 -163.5t162 -67.5q48 0 89 21.5t59 62.5q9 23 26 35t33.5 9.5t31 -11.5t19.5 -28t-2 -40q-28 -76 -98 -116t-158 -40q-140 0 -237 99t-97 241z" />
<glyph unicode="O" horiz-adv-x="1705" d="M190 446q0 88 23 185q48 209 185.5 386.5t326.5 280.5t383 103q128 0 236.5 -46t183 -126t116.5 -191t42 -239q0 -84 -21 -187q-49 -209 -186 -386t-326 -279.5t-383 -102.5q-128 0 -237 46t-184 126t-117 191t-42 239zM301 446q0 -215 130 -353t339 -138q124 0 251 55.5 t231.5 147.5t185 216.5t116.5 258.5v-2q21 92 21 168q0 216 -129 353.5t-338 137.5q-169 0 -335 -91t-287 -247.5t-164 -339.5q-21 -107 -21 -166z" />
<glyph unicode="P" horiz-adv-x="1662" d="M-31 -55q-2 13 -2 24q-1 23 7 41q12 28 49 27q16 0 32.5 -13.5t22.5 -35.5q11 -43 63 -76t123 -33q59 0 112.5 10.5t97.5 27t85.5 46t73.5 58.5t66 74t58 82t53.5 94.5t49.5 99t49 106.5l166 363q132 296 266 438q-156 70 -321 70q-156 0 -288.5 -42t-222 -109.5 t-152.5 -154.5t-92 -176t-29 -174q0 -132 62.5 -237t184.5 -156q43 -22 43 -51q0 -23 -15 -38t-40 -15q-17 0 -29 6l2 -2q-153 63 -236 195.5t-83 293.5q0 101 33 205.5t105 205.5t174 179.5t252 127t327 48.5q231 0 411 -98q76 54 164 67q11 2 20 2q32 0 46 -26 q17 -30 -8 -56q-17 -18 -50 -22q-34 -9 -69 -29q115 -84 177 -199.5t62 -248.5q0 -96 -32.5 -183.5t-88.5 -154.5t-128 -117t-154 -76t-164 -26q-69 0 -134 23t-89 59q-39 -82 -69.5 -140.5t-72 -125t-81 -112t-92 -90.5t-109.5 -71.5t-129 -43t-154 -17.5 q-104 2 -193.5 52.5t-109.5 123.5zM1010 436q12 4 20 4q16 0 53 -18q4 -1 19 -6.5t23.5 -8t22.5 -6t27.5 -5t26.5 -1.5q110 0 214.5 57t173.5 162.5t69 231.5q0 113 -59.5 211.5t-163.5 169.5q-115 -110 -260 -428v2l-164 -361q0 -1 -1 -2t-1 -2z" />
<glyph unicode="Q" horiz-adv-x="1552" d="M31 25q2 78 69 135t197 57q122 0 235 -63t242 -179q22 -18 33 -20t27 6q127 57 239 141.5t200.5 188.5t142 231t57.5 258v24q0 208 -131 350q-140 149 -361 149q-122 -1 -229 -36t-184 -94t-133.5 -135t-85 -160t-30.5 -169v-16q0 -91 41 -172q45 -88 132 -142.5 t196 -54.5q153 0 250 83.5t102 206.5q0 63 -43 113q-15 19 -15.5 39t10.5 33.5t27 21t36.5 2.5t36.5 -22q29 -27 46 -81q15 -48 15 -98v-12q-3 -72 -36.5 -141.5t-91.5 -126.5t-146.5 -92.5t-192.5 -36.5q-138 0 -250.5 67t-173.5 180q-56 102 -56 219q0 11 1 23 q2 103 38 205.5t104 193.5t159.5 160.5t215 110.5t261.5 41h4q174 0 312 -83q140 -83 215 -228q69 -134 69 -296v-26q-6 -148 -58.5 -286.5t-140 -249.5t-199 -198.5t-239.5 -147.5q-25 -11 -36 -21.5t-8.5 -22t10.5 -21.5t26 -26q65 -68 102.5 -105.5t103.5 -99 t113.5 -96.5t117 -79t131 -67t137.5 -39.5t153 -16.5q165 0 282.5 87t131.5 195q1 10 1 21q0 32 -14 65q-19 42 -51 66q-19 19 -23 38.5t6 32.5t26 20.5t36.5 4t36.5 -17.5q43 -36 68 -96q24 -57 24 -112v-9q-3 -87 -52.5 -164.5t-126 -129t-168.5 -82t-181 -30.5 q-107 0 -205.5 21t-184.5 63.5t-157 88.5t-146 115t-127 122t-123 129q-4 5 -7 8l-47 51q-5 5 -11 9t-11 6t-12 2.5t-11.5 1t-11.5 -0.5t-10 -2t-9.5 -2.5t-7.5 -1.5q-130 -36 -264 -36q-197 0 -309 79q-109 76 -109 174v5zM143 18q0 -52 89 -97q86 -44 215 -44h6 q47 0 168 17q32 5 37 22v5q0 15 -25 34q-174 151 -338 154h-5q-71 0 -108 -27t-39 -64z" />
<glyph unicode="R" horiz-adv-x="1908" d="M209 47q0 25 17 40t40 15q17 0 33.5 -12.5t22.5 -34.5q7 -40 63 -66t131 -26q101 0 178.5 24.5t153 87t145 168.5t144.5 269l155 336q101 220 191 354q14 19 17 29t-2.5 16.5t-24.5 14.5q-70 36 -163.5 56.5t-185.5 20.5q-160 0 -292 -42t-217.5 -108.5t-144 -153 t-83.5 -173t-25 -170.5q0 -137 74 -252.5t205 -171.5q45 -17 45 -57q0 -21 -17 -37t-40 -16q-25 0 -31 6l2 -2q-168 68 -258 211.5t-90 318.5q0 101 29 203.5t96.5 203t165.5 178t248 125.5t331 48q325 0 547 -178q122 -93 193 -216.5t71 -260.5q0 -224 -130 -385t-324 -213 q-29 -7 -33 -14.5t8 -32.5q17 -34 52.5 -113.5t52.5 -116.5q107 -234 170 -334q134 -211 305 -265q66 -21 141 -21q152 0 234.5 76t82.5 175q0 74 -67 134q-24 17 -16.5 48.5t33.5 43t59 -9.5q49 -38 74.5 -97t25.5 -125q0 -64 -26.5 -126t-77.5 -114t-135 -84t-189 -32 q-88 0 -165 22t-134.5 53t-113.5 90t-92 106.5t-80 131t-67 134.5t-63 145l2 -2q-10 20 -59 126t-80 163q-20 37 -20 66q1 14 5 26q14 38 64 39q83 7 164 48.5t145 107t103.5 158.5t40.5 194q0 210 -185 362q-19 16 -30 18.5t-17 -3t-18 -23.5q-78 -114 -180 -344l-244 -510 q-209 -439 -623 -444q-75 0 -147 23t-121 68.5t-49 102.5z" />
<glyph unicode="S" horiz-adv-x="1558" d="M135 356v24q-1 142 65 269q72 138 209.5 225t307.5 87q107 0 192.5 -32t138.5 -86.5t81 -123.5t28 -146q0 -71 -46.5 -154t-117.5 -124q-22 -12 -41 -11.5t-30.5 11.5t-16.5 26t2.5 32.5t26.5 29.5q113 74 113 190q0 117 -87 197t-247 80q-137 0 -247 -70 q-110 -69 -168 -182q-52 -102 -52 -218v-24q6 -134 79 -242t189.5 -166.5t251.5 -58.5q84 0 168.5 24t160.5 73.5t135 117t93.5 161t34.5 200.5q0 92 -62 280q-65 201 -65 320q0 85 34 157t87 116.5t115.5 69t123.5 24.5q69 0 130.5 -26.5t104 -84.5t42.5 -137 q0 -80 -61 -151.5t-160 -74.5q-38 -1 -52.5 26t1.5 54.5t51 26.5q51 4 80.5 41.5t29.5 77.5q0 61 -46.5 101t-117.5 40q-91 0 -171.5 -72t-80.5 -188q0 -95 62 -279q65 -197 65 -321q0 -128 -41 -240t-110.5 -192t-160 -138.5t-190 -87t-200.5 -28.5q-172 0 -313 72 t-226 204t-92 301z" />
<glyph unicode="T" horiz-adv-x="1198" d="M-61 50q16 30 52 24t52 -51q14 -39 70.5 -66t132.5 -27q74 0 139 16t115.5 41.5t98 71t81.5 88.5t71 110t62.5 120t60.5 133l138 305q118 264 207 381q8 10 9.5 20t-5 18t-19.5 11q-130 35 -221 41q-26 1 -52 1q-145 1 -269 -33q-148 -40 -248 -109t-172 -160t-105 -187 t-33 -190q0 -141 74 -257.5t205 -166.5q26 -10 39.5 -28t11.5 -35t-12.5 -32t-32 -18.5t-47.5 5.5q-162 62 -255 211.5t-93 318.5q0 108 35 218t110.5 214t182 184.5t263 129.5t339.5 49q112 0 237.5 -27t217 -59t199 -59t187.5 -27q111 0 173 44.5t67 98.5q4 42 33 56 q11 5 22 5q17 0 33 -14q22 -18 22 -52q0 -6 -1 -13q-4 -40 -29.5 -80.5t-69 -75t-109 -56.5t-141.5 -22h-5q-114 0 -404 82q-113 -132 -242 -426l-137 -297q-34 -73 -56.5 -120t-56 -110.5t-60.5 -104t-64.5 -89.5t-73.5 -80t-82.5 -63t-96.5 -49.5t-110.5 -29.5t-128.5 -13 q-109 0 -193.5 42.5t-113.5 112.5q-10 24 -10 44q0 17 8 31z" />
<glyph unicode="U" horiz-adv-x="1521" d="M-8 1063q0 112 62 208t163 151t213 55q107 0 194.5 -36t143.5 -102t82 -153q18 -59 19 -128q-1 -34 -5 -68q-12 -108 -65 -222l-219 -473q-37 -79 -37 -162q0 -73 39.5 -117.5t128.5 -44.5q160 0 356 193q22 175 47 260q48 158 90 274.5t91.5 222t101.5 161t104 55.5 q48 0 77.5 -44.5t29.5 -105.5q0 -180 -128 -428.5t-311 -439.5q-6 -62 -6 -133q0 -85 12 -156.5t38 -132.5t74 -96t114 -35q58 0 102.5 18t69.5 47.5t38 61t15 63.5v10q0 34 -18 58q-15 19 -15.5 39t10 32.5t25.5 19t34 -0.5t34 -27q39 -49 39 -117v-10q-1 -38 -13 -78 t-38.5 -81.5t-64 -73.5t-95 -52t-125.5 -20q-79 0 -140.5 29t-99.5 76.5t-62 115t-33 137.5t-9 152v47q-179 -149 -344 -149q-139 0 -208 77t-69 195q0 95 51 207l220 471q51 113 56 215q1 12 1 24q0 86 -32 152q-36 74 -115 119t-187 45q-125 0 -226.5 -87.5t-101.5 -219.5 q0 -101 57 -172.5t148 -71.5q56 0 103 25t65 71q15 40 47.5 46.5t53.5 -19.5q13 -16 13 -35q0 -12 -5 -26q-26 -82 -103 -125t-174 -43q-129 0 -221 102t-92 250zM1209 347q0 -5 2 -6h1q2 0 6 4q5 5 13 15t20 27q183 254 236 459q3 11 8 36q5 26 9 58q3 18 3 33q1 12 -1 23 q-4 24 -17 24q-42 0 -117.5 -181.5t-150.5 -437.5q-5 -19 -8 -31q-4 -14 -4 -23z" />
<glyph unicode="V" horiz-adv-x="1490" d="M20 1124q0 109 63 202t165 146.5t215 53.5q111 0 212 -48t167.5 -142t66.5 -212q0 -112 -61 -243l-268 -586q-37 -79 -37 -162q0 -73 39.5 -117.5t128.5 -44.5t193 62t197 161.5t174 224t132 249.5q30 76 55 192t25 215q0 130 -37 211q-16 36 -3.5 61t44 23t49.5 -37 q55 -101 55 -256q0 -120 -23 -237.5t-59 -204.5q-57 -136 -149.5 -273.5t-200 -248.5t-228 -180.5t-224.5 -69.5q-139 0 -208 77t-69 195q0 92 51 203l269 582q45 95 45 200q0 131 -99.5 214t-238.5 83q-81 0 -156.5 -35.5t-125.5 -105t-50 -154.5q0 -96 63 -163.5 t162 -67.5q48 0 89 21.5t59 62.5q9 23 26 35t33.5 9.5t31 -11.5t19.5 -28t-2 -40q-28 -76 -98 -116t-158 -40q-140 0 -237 99t-97 241z" />
<glyph unicode="W" horiz-adv-x="2007" d="M-8 1063q0 109 62.5 202t164.5 146t215 53q83 0 162.5 -28.5t143 -79t102.5 -127.5t39 -166q0 -115 -62 -248l-239 -522q-37 -87 -37 -160t39.5 -117.5t128.5 -44.5q156 0 346 183q-2 20 -2 63q0 162 45.5 333t110.5 294.5t137 203.5t125 80q59 0 93 -46q33 -45 33 -114 q0 -172 -123 -414q-124 -244 -302 -427q18 -72 65.5 -113t118.5 -41q61 0 119.5 29t105.5 78t83.5 103.5t64.5 115.5l337 733q15 32 34 66t51.5 78.5t67.5 78t81 57t92 23.5q40 0 92 -24q34 -17 38 -49q0 -4 1 -7q0 -27 -22 -39q-12 -7 -27 -7q-17 0 -39 8q-23 10 -43 10 q-36 0 -73.5 -27t-68 -70.5t-50 -78t-35.5 -70.5l-338 -727q-181 -389 -477 -389q-90 0 -161.5 48t-105.5 128q-201 -178 -374 -178q-139 0 -208 77t-69 195q0 95 51 207l238 516q45 95 45 199q0 132 -98 215.5t-238 83.5q-81 0 -156.5 -35.5t-125.5 -105t-50 -154.5 q0 -96 63.5 -164t162.5 -68q50 0 90.5 20.5t56.5 63.5q16 47 50 55q35 9 55 -19q12 -16 11 -36q0 -16 -7 -34q-28 -76 -98 -116t-158 -40q-137 0 -235.5 98.5t-98.5 241.5zM1165 319q-1 -9 -1 -15q0 -14 5 -15h1q7 0 20 18q132 161 219.5 352t87.5 322q0 39 -24 39 q-30 0 -77.5 -64t-94 -161t-85.5 -227.5t-51 -248.5z" />
<glyph unicode="X" horiz-adv-x="1366" d="M-268 -10q-5 14 -5 26q-1 20 13 36q22 25 53.5 18.5t44.5 -45.5q12 -40 69 -66.5t134 -26.5q231 0 696 451l207 203q-5 382 -101.5 575t-301.5 193q-76 0 -149.5 -34t-123 -99.5t-49.5 -145.5q0 -103 68 -175.5t172 -72.5q49 0 89.5 20t53.5 60q13 42 44 49t53 -18 q15 -17 15 -40q0 -10 -3 -21q-21 -77 -89.5 -116.5t-158.5 -39.5q-142 0 -247 107.5t-105 250.5q0 106 60.5 194.5t158.5 138.5t209 50q239 0 365 -187t147 -536q2 -28 10 -30.5t33 20.5q125 125 260.5 256.5t208.5 200.5l73 69q17 15 35.5 17t32 -7t21.5 -23t4.5 -32 t-19.5 -32q-328 -317 -653 -633q0 -230 23.5 -411t73 -317t130.5 -209t191 -73q112 0 183 58t85 128q5 21 -0.5 46t-18.5 38q-23 24 -23 48q0 9 3 17q12 33 44 37q4 1 8 1q28 0 56 -25q27 -27 38 -77q6 -29 6 -56q0 -19 -3 -37q-9 -48 -38 -96.5t-76 -92.5t-119.5 -71.5 t-157.5 -27.5q-102 1 -185 47.5t-141.5 130t-99.5 204t-62.5 265t-27.5 317.5q0 27 -13 27q-12 0 -34 -23l-88 -88q-59 -59 -117 -112.5t-146.5 -125t-168 -122t-170.5 -86.5t-166 -37q-114 0 -199.5 46.5t-111.5 121.5z" />
<glyph unicode="Y" horiz-adv-x="1472" d="M35 1063q0 112 62 208t163 151t213 55q107 0 194.5 -36t143.5 -102t83 -153q18 -59 18 -128q0 -33 -4 -68q-13 -108 -66 -222l-160 -354q-37 -79 -37 -162q0 -69 43 -118q40 -46 114 -46h9q82 3 156.5 37t128.5 87t91.5 106.5t63.5 109.5l303 659q22 47 64 50 q35 2 48 -27q4 -9 4 -19q0 -15 -9 -34l-531 -1151q-193 -420 -489 -420q-111 0 -189.5 56t-78.5 165q0 82 60 152t157 73q34 0 48 -25.5t0 -51t-48 -25.5q-46 -1 -76.5 -38.5t-30.5 -88.5q0 -46 39 -78.5t119 -32.5q99 0 203 95.5t178 238.5l68 133q6 11 8.5 18t1 9t-4 2.5 t-8 -2.5t-10.5 -6t-12 -8q-53 -39 -121 -64t-131 -28q-138 0 -207 77t-69 195q0 95 51 207l160 354q50 113 54 215q1 12 1 23q0 88 -32 155q-36 74 -114 118t-186 44q-125 0 -226.5 -87.5t-101.5 -219.5q0 -101 57 -172.5t148 -71.5q56 0 103 25t65 71q15 40 47.5 46.5 t53.5 -19.5q13 -15 13 -35q0 -12 -5 -26q-26 -82 -103 -125t-174 -43q-129 0 -221 102t-92 250z" />
<glyph unicode="Z" horiz-adv-x="1581" d="M16 33q0 64 33.5 114.5t88 79.5t116.5 44q59 14 119 14h8q224 0 461 -179l61 70l758 864q21 20 21 36q0 19 -29 32q-10 4 -38 17.5t-42 19.5q-2 2 -4 2q-152 70 -280 108.5t-279 38.5q-85 0 -164 -33.5t-134 -103t-55 -158.5q0 -97 63.5 -164t162.5 -67q48 0 88.5 21.5 t58.5 62.5q14 39 45.5 44.5t53 -20t10.5 -59.5q-25 -77 -95.5 -116t-160.5 -39q-137 0 -235.5 98t-98.5 241q0 113 67 207t173.5 145.5t224.5 51.5q80 -1 156.5 -13t153 -37t124 -43.5t123.5 -51.5q130 -63 215 -80q171 194 319 194q83 0 124.5 -38.5t41.5 -98.5 q0 -71 -87.5 -136t-219.5 -65q-62 0 -139 15q-140 -159 -419 -475t-419 -474q-44 -49 -57 -61q60 -50 205 -184q80 -70 135.5 -116.5t139 -110.5t155 -105.5t156 -81t171 -59t172.5 -19.5q110 0 205.5 45t147 110t51.5 128q0 45 -20 86.5t-48 66.5q-25 21 -27.5 44 t12.5 35.5t37 17t46 -12.5q110 -73 110 -227q0 -89 -46.5 -166.5t-121 -128t-166 -79.5t-182.5 -29q-87 0 -174 18t-160.5 44t-153.5 70.5t-141 85t-135.5 100.5t-124 103t-118.5 107l-74 67q-41 38 -137 115q-215 -172 -447 -172h-10q-155 1 -261 63q-110 64 -110 177z M131 35q0 -40 39.5 -70.5t99.5 -45.5t127 -15q154 0 316 104q11 7 16.5 12.5t8 9t0 8t-4.5 6.5t-9.5 7.5t-10.5 7.5q-179 115 -330 115q-117 0 -185.5 -38t-66.5 -101zM1923 1149q3 -2 14 -2q21 0 53 3.5t73.5 12.5t69.5 28.5t28 45.5q0 11 -11 19t-32 8q-84 0 -189 -101 q-7 -9 -7 -12q0 -2 1 -2z" />
<glyph unicode="[" horiz-adv-x="563" d="M-2 -231l643 1437q14 35 55 35h199q43 0 51 -34q7 -33 -22 -56q-20 -16 -47 -16h-146l-598 -1342h131q44 0 51 -34q7 -32 -22 -55q-20 -17 -49 -17h-199q-27 0 -43 25.5t-4 56.5z" />
<glyph unicode="\" horiz-adv-x="741" d="M258 1180q-8 39 15.5 60.5t53 10t35.5 -50.5l205 -1149q6 -24 -1.5 -42.5t-22 -25.5t-31.5 -6.5t-31.5 14t-19.5 36.5z" />
<glyph unicode="]" horiz-adv-x="563" d="M-132 -279q-7 33 22 56q20 16 47 16h145l598 1342h-131q-44 0 -51 34q-7 32 22 55q20 17 49 17h199q27 0 43 -25.5t4 -56.5l-643 -1438q-14 -34 -55 -34h-199q-43 0 -50 34z" />
<glyph unicode="^" horiz-adv-x="837" d="M159.5 340q1.5 20 16.5 37q39 47 88.5 103.5t81.5 92t96.5 106t85.5 93.5q21 18 50 17.5t40 -29.5l121 -387q12 -36 -7.5 -57.5t-48.5 -15t-40 39.5l-92 301l-291 -332q-16 -20 -35.5 -26t-33.5 2t-23.5 21.5t-8 33.5z" />
<glyph unicode="_" horiz-adv-x="714" d="M87.5 20.5q14.5 26.5 49.5 26.5h367q36 0 50.5 -26.5t0 -53t-50.5 -26.5h-367q-35 0 -49.5 26.5t0 53z" />
<glyph unicode="`" horiz-adv-x="675" d="M406 1206.5q8 30.5 35.5 36.5t58.5 -18l198 -197l-2 2q29 -23 24 -55t-31 -40.5t-56 15.5l-207 201q-28 25 -20 55.5z" />
<glyph unicode="a" d="M-51 131q0 53 28 115l154 323q14 28 25 48.5t37 56.5t52.5 59t66.5 41.5t83 18.5q41 0 79 -17.5t52 -48.5q15 41 54 45q35 3 47 -24q9 -18 0 -43l-228 -502q-20 -44 -20 -74q0 -47 59 -47q26 0 51.5 14t41.5 30t34 44.5t24 40t17 33.5q16 28 45 31.5t47 -17.5 q11 -13 12 -30q0 -11 -5 -23q-15 -34 -39 -71t-58 -74t-79 -61t-91 -24q-111 0 -151 72q-69 -72 -158 -72q-84 0 -132 40t-48 116zM63 141q0 -23 15 -41q16 -18 51 -18q50 0 91 44t65 95l161 344q14 29 16 55q0 4 1 7q0 22 -14 39q-16 20 -54 20q-14 0 -27.5 -4t-24 -9 t-22.5 -15.5t-20 -18t-18 -22t-15 -22.5t-14 -23.5t-11.5 -21t-10 -20.5t-7.5 -16l-147 -315q-15 -31 -15 -58z" />
<glyph unicode="b" horiz-adv-x="563" d="M-51 135q0 50 28 111l164 356l277 604q17 35 51 41q7 1 13 1q24 0 37 -18q8 -11 8 -28t-9 -39l-196 -399q53 31 100 31q69 0 109 -43t41 -115q0 -21 -9.5 -57t-21.5 -60l-152 -321q-103 -224 -264 -224q-83 0 -129.5 43t-46.5 117zM67 115q13 -33 58 -33q26 0 51.5 14.5 t41 29.5t35 46t24.5 41t18 37l147 319q9 20 13 38.5t2.5 37.5t-16 30t-42.5 11q-30 0 -59.5 -17t-52 -44t-38 -51t-26.5 -48l-151 -338q-10 -23 -10 -44q0 -15 5 -29zM329 2q-6 13 -6.5 26.5t6.5 26.5q13 27 44 27q26 0 51.5 14t41.5 30t34 44.5t24 40t17 33.5q16 28 45 32 h8q24 0 39 -18q11 -13 11 -29q0 -11 -5 -24q-15 -34 -39 -71t-57.5 -74t-78.5 -61t-91 -24q-31 1 -44 27z" />
<glyph unicode="c" horiz-adv-x="473" d="M-33 174q0 67 45 162l111 233q105 224 256 224q76 0 122 -38.5t46 -103.5q0 -58 -37 -133q-22 -44 -65 -44q-37 -1 -50 29q-11 24 6 56q29 60 29 92q0 14 -13.5 24.5t-37.5 10.5t-46.5 -12.5t-36.5 -26t-32 -43t-24 -42.5t-21 -44l-106 -225q-29 -62 -29 -109 q0 -49 32 -75.5t91 -26.5q80 0 146 53.5t100 112.5q17 29 45.5 31.5t45.5 -19.5q9 -12 9 -28q0 -13 -6 -27q-39 -93 -134.5 -161.5t-205.5 -68.5q-107 0 -173.5 52t-66.5 147z" />
<glyph unicode="d" d="M-51 131q0 53 28 115l154 323q14 28 25 48.5t37 56.5t52.5 59t66.5 41.5t83 18.5q38 0 74.5 -16t52.5 -44l219 473q17 35 51 41q7 1 14 1q24 0 37 -18q8 -11 8 -28t-9 -39l-443 -960q-10 -20 -14.5 -39t-4 -38.5t15 -31.5t42.5 -12q26 0 51.5 14t41.5 30t34 44.5t24 40 t17 33.5q16 28 45 31.5t47.5 -17.5t6.5 -53q-15 -34 -39 -71t-58 -74t-79 -61t-91 -24q-52 0 -92 19v-2q-21 11 -33 20q-17 13 -26 35q-69 -72 -158 -72q-84 0 -132 40t-48 116zM63 141q0 -23 15 -41q16 -18 51 -18q52 0 96 49.5t74 116.5l135 293l21 45q9 19 9 37 q0 17 -7 31q-14 32 -62 32q-14 0 -27.5 -4t-24 -9t-22.5 -15.5t-20 -18t-18 -22t-15 -22.5t-14 -23.5t-11.5 -21t-10 -20.5t-7.5 -16l-147 -315q-15 -31 -15 -58z" />
<glyph unicode="e" horiz-adv-x="475" d="M-31 174q0 67 45 162l111 233q105 224 256 224q76 0 117 -37.5t41 -102.5q0 -42 -17 -88q-49 -127 -119 -185t-170 -58q-19 0 -59 8q-10 3 -18 3q-26 0 -37 -28q-33 -82 -33 -121q0 -99 123 -102q80 0 146 53.5t100 112.5q18 35 48.5 37.5t46.5 -22.5q8 -13 9 -27 q0 -14 -8 -31q-45 -93 -139 -161.5t-203 -68.5q-107 0 -173.5 52t-66.5 147zM206 453q8 -19 42 -19q51 0 88 34.5t67 106.5q16 41 16 66q0 40 -38 45q-6 1 -11 1q-75 0 -137 -140l-26 -60q-5 -8 -5 -17q0 -8 4 -17z" />
<glyph unicode="f" horiz-adv-x="319" d="M-831 -324q0 80 61 151.5t160 74.5h3q40 0 55 -26q17 -27 0 -54t-55 -27h-3q-52 -4 -81.5 -41t-29.5 -78q0 -50 38 -83t120 -33q107 0 209 88t172 243l342 748q9 20 3 28.5t-28 8.5h-4q-40 2 -45 36q-5 32 24 55q20 15 46 15h28q44 0 60 37l71 154q44 94 95.5 170 t113.5 136.5t135.5 94t151.5 33.5q134 0 201 -64t67 -159q0 -80 -61 -151.5t-160 -74.5q-22 -1 -36.5 10t-17.5 27.5t1 32.5t18.5 27t34.5 10q51 4 81 41.5t30 77.5q0 50 -38 83t-120 33q-101 0 -205.5 -92t-175.5 -243l-68 -146q-9 -20 -4 -28.5t27 -8.5h49q41 0 49 -34 q7 -33 -21 -56q-19 -16 -46 -16h-82q-42 0 -58 -37q-47 -104 -170.5 -372t-179.5 -392q-192 -422 -489 -422q-134 0 -201 64t-67 159z" />
<glyph unicode="g" horiz-adv-x="595" d="M-483 -289q0 80 61 151.5t160 74.5q27 0 41.5 -16.5t14.5 -37t-15 -37t-41 -16.5q-52 -4 -81.5 -41t-29.5 -78q0 -50 38 -83.5t120 -33.5q104 0 216 108t183 275l13 29q-12 -14 -33.5 -22.5t-34.5 -8.5q-84 0 -132 40t-48 116q0 38 28 115l154 323q103 224 264 224 q40 0 77 -17t54 -47q15 34 54 41q39 8 49 -21q7 -18 -2 -44l-82 -181l-271 -592q-204 -444 -489 -444q-134 0 -201 64t-67 159zM59 131q0 -24 19 -36.5t51 -12.5q57 0 96.5 46.5t71.5 115.5l147 321q17 38 17 58q0 63 -66 63q-97 0 -170 -172l-147 -315q-19 -47 -19 -68z M360 2q-5 11 -5 24q0 14 8 29q14 27 43 27q26 0 51.5 14.5t41 29.5t34 44.5t23.5 39.5l17 34q16 28 45 32h8q24 0 40 -18q11 -13 11 -30q0 -10 -5 -23q-15 -34 -39 -71t-57.5 -74t-78.5 -61t-91 -24q-34 0 -46 27z" />
<glyph unicode="h" horiz-adv-x="624" d="M-238 2q-5 12 -6 24q0 15 8 29q14 27 43 27q32 0 60 16t49.5 45t34 50.5t26.5 50.5l443 962q17 35 51 41q7 1 13 1q24 0 37 -18q8 -11 8 -28t-9 -39l-203 -411q50 43 103 43q71 0 112 -42.5t41 -115.5q0 -21 -9 -57t-21 -60l-150 -319q-18 -40 -18 -72q0 -47 59 -47 q26 0 51.5 14t41.5 30t34 44.5t24 40t17 33.5q16 28 45 31.5t47 -17.5q11 -13 11 -29q0 -11 -5 -24q-15 -34 -39 -71t-57.5 -74t-78.5 -61t-91 -24q-81 0 -125.5 38.5t-44.5 115.5q0 52 31 119l149 321q19 47 19 68q0 24 -19 36.5t-51 12.5q-51 0 -92.5 -43t-64.5 -92 l-158 -348q-14 -32 -36 -66t-56 -73t-81 -64t-98 -25q-33 1 -45 27z" />
<glyph unicode="i" horiz-adv-x="307" d="M-53 129q0 48 28 115l228 501q15 33 47 37t51.5 -19.5t3.5 -57.5l-229 -500q-9 -19 -13.5 -39t-3.5 -39.5t16 -32t42 -12.5q26 0 51.5 14t41.5 30t34 44.5t24 40t17 33.5q16 28 45 31.5t47 -17.5t6 -53q-15 -34 -39 -71t-57.5 -74t-78.5 -61t-91 -24q-81 0 -125.5 38.5 t-44.5 115.5zM283 973q6 35 33.5 59.5t60.5 24.5q37 1 61 -27q18 -21 19 -49q0 -8 -2 -16q-6 -35 -34.5 -58.5t-62.5 -23.5q-39 0 -60 27q-16 21 -16 47q0 8 1 16z" />
<glyph unicode="j" horiz-adv-x="276" d="M-803 -289q0 80 61 151.5t160 74.5q22 1 37 -10t18 -27.5t-0.5 -32.5t-18.5 -27t-36 -10q-51 -4 -80.5 -41t-29.5 -78q0 -50 38 -83.5t119 -33.5q106 0 207.5 95t171.5 262l13 29l350 765q15 33 46.5 39t50.5 -18q10 -12 10 -29q0 -15 -7 -32l-352 -771 q-193 -446 -490 -446q-134 0 -201 64t-67 159zM40 2q-7 13 -7 26.5t7 26.5q13 27 46 27q26 0 51.5 14t41.5 30t34 44.5t24 40t17 33.5q16 28 45 31.5t47 -17.5t6 -53q-15 -34 -39 -71t-57.5 -74t-78.5 -61t-91 -24q-33 0 -46 27zM285 973q6 35 33.5 59.5t60.5 24.5 q38 0 61 -27q19 -22 19 -49q0 -8 -2 -16q-6 -35 -34.5 -58.5t-62.5 -23.5q-39 0 -60 27q-16 21 -16 47q0 8 1 16z" />
<glyph unicode="k" horiz-adv-x="591" d="M-238 2q-5 12 -6 24q0 15 8 29q14 27 43 27q32 0 60 16t49.5 45t34 50.5t26.5 50.5l443 962q17 35 51 41q7 1 13 1q24 0 37 -18q8 -11 8 -28t-9 -39l-209 -428q75 58 138 58q69 0 110 -42t41 -116q0 -102 -87.5 -199.5t-197.5 -144.5q-19 -7 -25.5 -20.5t-6.5 -41.5 q0 -147 106 -147q32 0 64 18.5t56 47.5t39 52.5t25 43.5q16 28 45 32q30 3 48 -18q11 -13 11 -30q0 -11 -5 -23q-33 -77 -114 -153.5t-169 -76.5q-61 0 -105.5 21t-68 57.5t-34.5 77.5t-11 88q0 53 16 123q8 29 13 34.5t28 8.5q79 10 166.5 86.5t87.5 159.5q0 55 -57 55 q-51 0 -104.5 -36t-83.5 -101l-158 -346q-14 -32 -36 -66t-56 -73t-81 -64t-98 -25q-33 1 -45 27z" />
<glyph unicode="l" horiz-adv-x="309" d="M-51 129q0 52 31 119l442 958q17 35 51 41q7 1 13 1q24 0 37 -18q8 -11 8 -28t-9 -39l-442 -960q-10 -20 -14.5 -39t-4 -38.5t15 -31.5t42.5 -12q26 0 51.5 14t41.5 30t34 44.5t24 40t17 33.5q16 28 45 31.5t47 -17.5t6 -53q-15 -34 -39 -71t-57.5 -74t-78.5 -61t-91 -24 q-81 0 -125.5 38.5t-44.5 115.5z" />
<glyph unicode="m" horiz-adv-x="946" d="M-225 66q13 16 35 16q32 0 59 16t49 46.5t33 50t26 51.5l232 502q16 36 55 36t45 -41q14 17 46 33.5t63 16.5q105 0 143 -80q80 80 168 80q77 0 121.5 -41t44.5 -115q0 -20 -9.5 -56t-21.5 -61l-147 -317q-21 -46 -21 -74q0 -47 60 -47q26 0 51.5 14t41.5 30t34 44.5 t24 40t17 33.5q16 28 45 31.5t47 -17.5q11 -13 11 -29q0 -11 -5 -24q-15 -34 -39 -71t-57.5 -74t-78.5 -61t-91 -24q-81 0 -125.5 38.5t-44.5 115.5q0 54 30 119l150 321q18 45 18 68q0 49 -55 49q-54 0 -103 -48t-77 -108l-225 -487q-22 -48 -67 -52q-37 -4 -50 23 q-9 20 4 47l235 504q19 47 19 72q0 22 -16 35.5t-43 13.5q-55 0 -102.5 -46.5t-67.5 -92.5l-156 -344q-14 -32 -36 -66t-55.5 -73t-80.5 -64t-98 -25q-24 1 -37 17q-12 15 -12 34q0 22 14 40z" />
<glyph unicode="n" horiz-adv-x="626" d="M-225 66q13 16 35 16q26 0 50 12t40 27.5t33 41.5t24.5 41t19.5 40l232 504q17 36 53 36q42 0 47 -41q11 16 40.5 31.5t58.5 18.5q9 1 18 1q62 0 102 -38q46 -44 47 -119q0 -21 -9 -57t-21 -60l-148 -317q-20 -44 -20 -74q0 -47 59 -47q26 0 51.5 14t41.5 30t34 44.5 t24 40t17 33.5q16 28 45 31.5t47 -17.5q11 -13 11 -29q0 -11 -5 -24q-15 -34 -39 -71t-57.5 -74t-78.5 -61t-91 -24q-81 0 -125.5 38.5t-44.5 115.5q0 52 31 119l149 321q19 47 19 68q0 22 -16 35.5t-43 13.5q-55 0 -102.5 -46.5t-67.5 -92.5l-156 -344q-14 -32 -36 -66 t-55.5 -73t-80.5 -64t-98 -25q-24 1 -37 17q-12 15 -12 34q0 22 14 40z" />
<glyph unicode="o" horiz-adv-x="550" d="M-51 131q0 53 28 115l154 323q14 28 25 48.5t37 56.5t52.5 59t66.5 41.5t83 18.5q84 0 132 -40t48 -116q0 -21 -9 -57t-21 -60l-152 -321q-14 -28 -25 -48.5t-37 -56.5t-52.5 -59t-66.5 -41.5t-83 -18.5q-84 0 -132 40t-48 116zM59 131q0 -24 19 -36.5t51 -12.5 q26 0 51.5 14.5t41 29.5t35 46t24.5 41t18 37l147 319q14 30 16 55q0 3 1 7q0 21 -14 37q-16 18 -54 18q-14 0 -27.5 -4t-24 -9t-22.5 -15.5t-20 -18t-18 -22t-15 -22.5t-14 -23.5t-11.5 -21t-10 -20.5t-7.5 -16l-147 -315q-19 -40 -19 -68z" />
<glyph unicode="p" horiz-adv-x="565" d="M-350 -465l557 1210q23 49 60 49h2q28 -2 36 -27q4 -13 -2 -28q-3 -7 -1 -8.5t7 4.5q20 25 51.5 41.5t57.5 16.5q155 0 155 -156q0 -29 -30 -117l-152 -321q-103 -224 -264 -224q-83 0 -131 48q-97 -214 -119 -259v3l-121 -273q-18 -40 -52 -47q-8 -1 -14 -1 q-25 0 -40 21q-10 13 -10 30t10 38zM63 110q15 -28 64 -28q26 0 51.5 14.5t41 29.5t35 46t24.5 41t18 37l147 319q19 47 19 68q0 49 -62 49q-52 0 -96 -44.5t-72 -100.5v2l-167 -371q-10 -19 -10 -35q0 -14 7 -27zM331 2q-7 13 -7 26.5t7 26.5q13 27 44 27q26 0 51.5 14 t41.5 30t34 44.5t24 40t17 33.5q16 28 45 32h8q24 0 39 -18q11 -13 11 -29q0 -11 -5 -24q-15 -34 -39 -71t-57.5 -74t-78.5 -61t-91 -24q-31 0 -44 27z" />
<glyph unicode="q" horiz-adv-x="595" d="M-51 131q0 38 28 115l154 323q103 224 264 224q40 0 77 -17t54 -47q15 34 54 41q39 8 49 -21q7 -18 -2 -44l-551 -1211q-18 -40 -53 -47q-7 -1 -14 -1q-25 0 -41 21q-9 13 -9 30t10 38l228 467q1 4 0 4q-12 -14 -33.5 -22.5t-34.5 -8.5q-84 0 -132 40t-48 116zM59 131 q0 -24 19 -36.5t51 -12.5q31 0 57 13t46 37t33.5 46.5t27.5 52.5l151 334q17 38 17 58q0 63 -66 63q-97 0 -170 -172l-147 -315q-19 -47 -19 -68zM360 2q-5 11 -5 24q0 14 8 29q14 27 43 27q26 0 51.5 14.5t41 29.5t34 44.5t23.5 39.5l17 34q16 28 45 32h8q24 0 40 -18 q11 -13 11 -30q0 -10 -5 -23q-15 -34 -39 -71t-57.5 -74t-78.5 -61t-91 -24q-34 0 -46 27z" />
<glyph unicode="r" horiz-adv-x="579" d="M-23 244l316 676q14 30 45 34q5 1 9 1q25 -1 41 -19q19 -22 3 -53q-17 -32 -12.5 -53t21 -28t40 -17t46 -20.5t38 -37.5t15.5 -68q0 -28 -31 -118l-158 -338q-10 -20 -14.5 -39t-4 -38.5t15 -31.5t42.5 -12q26 0 51.5 14t41.5 30t34 44.5t24 40t17 33.5q16 28 45 31.5 t47 -17.5q11 -13 11 -29q0 -11 -5 -24q-15 -34 -39 -71t-57.5 -74t-78.5 -61t-91 -24q-81 0 -125.5 38.5t-44.5 115.5q0 55 31 119l153 330q19 48 19 67q0 21 -14.5 32t-32 13.5t-33.5 15t-18 35.5l-250 -540q-14 -30 -44 -33q-32 -4 -50 18q-10 12 -10 29q0 13 7 29z" />
<glyph unicode="s" horiz-adv-x="518" d="M-138 81q0 15 8 28q9 14 22 23.5t31.5 7.5t35.5 -17q18 -21 49 -33q24 -8 51 -8q92 0 157 67t73 166q1 9 1 19q0 70 -38 155q-5 12 -8 18l-6 12t-5 6.5l-4 1t-4.5 -4t-4.5 -7.5t-6 -11.5t-7 -14.5q-27 -52 -71 -152.5t-60 -133.5q-17 -35 -48.5 -38t-49.5 22t-1 59 q47 93 275 602q16 36 50 42l14 2q24 0 40 -20q10 -13 10 -31q0 -15 -8 -34l-10 -23q-19 -46 -22 -79q-1 -7 -1 -15q0 -58 37 -174q15 -50 20.5 -69t11.5 -59q5 -31 6 -59q0 -8 -1 -16q-11 -137 -110 -239.5t-236 -102.5q-52 0 -98 17q-40 15 -80 59q-13 14 -13 34zM281 55 q13 27 47 27q26 0 51.5 14t41.5 30t34 44.5t24 40t17 33.5q16 28 45 32h8q24 0 39 -18q11 -13 11 -29q0 -11 -5 -24q-15 -34 -39 -71t-57.5 -74t-78.5 -61t-91 -24q-32 1 -46 27q-7 14 -7 27t6 26z" />
<glyph unicode="t" horiz-adv-x="325" d="M-51 129q0 44 31 115l182 395q14 37 -8 37q-41 0 -48 34q-7 33 21 56q18 16 45 16h8q44 0 58 37l77 164q17 35 51 41q7 1 14 1q24 -1 37 -19q8 -11 8 -27q0 -17 -9 -39l-58 -121q-8 -20 -2.5 -28.5t27.5 -8.5h29q37 0 46 -34q2 -8 2 -15q0 -25 -22 -42q-18 -15 -45 -15 h-59q-42 0 -58 -37l-196 -436q-14 -30 -14 -55q0 -15 5 -29q13 -37 64 -37q26 0 51.5 14t41.5 30t34 44.5t24 40t17 33.5q16 28 45 31.5t47 -17.5t6 -53q-33 -77 -105.5 -149.5t-160.5 -80.5q-12 -1 -24 -1q-69 0 -112 36q-50 42 -50 119z" />
<glyph unicode="u" horiz-adv-x="626" d="M-53 131q0 41 30 113l230 501q16 35 48 39q5 1 9 1q26 1 42 -21q10 -13 9 -30q0 -15 -8 -34l-231 -501q-19 -47 -19 -68q0 -24 19 -36.5t51 -12.5q49 0 93.5 46.5t68.5 98.5l235 518q15 35 47 40q6 1 11 1q25 0 40 -20q10 -13 10 -30q0 -14 -7 -31l-228 -502 q-20 -44 -20 -74q0 -47 59 -47q26 0 51.5 14t41.5 30t34 44.5t24 40t17 33.5q16 28 45 31.5t47 -17.5q11 -13 11 -29q0 -11 -5 -24q-15 -34 -39 -71t-57.5 -74t-78.5 -61t-91 -24q-111 0 -151 72q-69 -72 -158 -72q-84 0 -132 40t-48 116z" />
<glyph unicode="v" horiz-adv-x="559" d="M-53 131q0 41 30 113l230 501q22 41 60 41h5q34 -2 44 -31q8 -22 -7 -50l-231 -506q-19 -47 -19 -68q0 -24 15 -36.5t39 -12.5q69 0 120 53.5t84 128.5l76 176q56 131 56 191q0 35 -17 65q-15 25 -7.5 44t24 30.5t38.5 9t35 -21.5q35 -51 35 -125q0 -65 -27.5 -143 t-101.5 -242q-20 -43 -47 -85t-67 -87t-92.5 -73t-108.5 -28q-77 0 -121.5 40t-44.5 116z" />
<glyph unicode="w" horiz-adv-x="874" d="M-53 131q0 41 30 113l230 501q14 35 46 43q8 2 15 2q22 0 36 -18q10 -13 11 -32q0 -16 -8 -35l-231 -506q-19 -47 -19 -68q0 -24 15 -36.5t39 -12.5q54 0 105 49.5t77 106.5l231 507q16 35 48.5 38.5t52 -21.5t2.5 -60l-228 -493q-22 -49 -22 -78q0 -24 14.5 -36.5 t38.5 -12.5q66 0 125.5 66t79.5 116l76 176q55 129 55 191q0 39 -16 65q-12 22 -12 41.5t12 31.5t27 16.5t33 -2.5t30 -25q34 -49 34 -125q0 -103 -73 -266l-53 -119q-16 -41 -44.5 -85.5t-69 -88t-94.5 -71.5t-110 -28q-51 0 -89.5 21t-57.5 59q-92 -80 -172 -80 q-77 0 -120.5 40t-43.5 116z" />
<glyph unicode="x" horiz-adv-x="819" d="M-53 131q0 46 28 113q18 33 48.5 33.5t47.5 -24t3 -52.5q-17 -39 -17 -70q0 -49 49 -49q102 0 228 289l24 57l10.5 24t11.5 29.5t12 34.5t10.5 34.5t7.5 36t2.5 33t-3.5 30.5t-12.5 22.5t-21.5 16t-33 5.5q-44 0 -90 -58q-41 -52 -41 -133v-18q3 -37 -14.5 -58t-42.5 -21 q-27 0 -44.5 22.5t-17.5 56.5q0 79 25 136q75 175 225 180h7q138 0 163 -111q94 111 184 111q75 0 117.5 -40t42.5 -116q0 -44 -29 -113q-18 -33 -48 -33.5t-47 24t-3 52.5q16 37 16 70q0 49 -49 49q-50 0 -110 -73t-113 -203l-27 -66q-11 -27 -22 -68q-12 -40 -18 -88 q-2 -16 -2 -31q0 -28 9 -50q13 -33 48 -33q17 0 33 5.5t27.5 12.5t23.5 21.5t18.5 23.5t15.5 27.5t12 25.5t10 26t7 20q11 30 40 33.5t49.5 -18.5t9.5 -54q-26 -86 -94 -158t-160 -72q-60 0 -100 30.5t-54 80.5q-94 -111 -184 -111q-78 0 -123 40t-45 116z" />
<glyph unicode="y" horiz-adv-x="595" d="M-483 -289q0 80 61 151.5t160 74.5q22 1 37 -10t18 -27.5t-0.5 -32.5t-18.5 -27t-36 -10q-52 -4 -81.5 -41t-29.5 -78q0 -50 38 -83.5t120 -33.5q106 0 207.5 95t171.5 262l12 29q-35 -5 -47 -5q-84 0 -132 40t-48 116q0 57 31 115v-2l229 501q15 33 47 39q6 1 12 1 q24 0 39 -19q10 -13 10 -29q0 -15 -8 -32l-231 -506q-19 -47 -19 -68q0 -24 19 -36.5t51 -12.5q26 0 51.5 14t42 30.5t35 45t25 41t16.5 33.5v-2l227 501q15 33 48 39q6 1 12 1q24 0 39 -19q10 -13 10 -29q0 -15 -8 -32l-353 -771q-193 -446 -489 -446q-134 0 -201 64 t-67 159zM360 2q-7 13 -7 26.5t7 26.5q13 27 46 27q26 0 51.5 14.5t41 29.5t34 44.5t23.5 39.5l17 34q16 28 45 32h8q24 0 40 -18q11 -13 11 -30q0 -10 -5 -23q-15 -34 -39 -71t-57.5 -74t-78.5 -61t-91 -24q-33 0 -46 27z" />
<glyph unicode="z" horiz-adv-x="612" d="M-449 -313q0 80 61.5 151t160.5 74h3q37 0 52 -26q16 -27 -0.5 -54.5t-54.5 -26.5q-52 -4 -81.5 -40.5t-29.5 -77.5q0 -50 38 -83.5t120 -33.5q70 0 143 38t132.5 100t108 136t75 150.5t26.5 138.5q0 60 -17 96.5t-50 36.5q-20 0 -33 9.5t-9 35t35 62.5l250 295h-82 q-40 0 -86 26q-10 -20 -53 -107.5t-65 -133.5l-123 -258q-21 -34 -54 -37t-46 21q-5 10 -5 23q0 19 10 44l302 626q17 36 51 40q5 1 9 1q27 -1 40 -23q7 -12 7 -27q0 -17 -9 -38q-10 -28 -2.5 -39.5t24.5 -11.5l174 4q42 0 62.5 -18t17.5 -43t-26 -49q-117 -138 -281 -324 q35 -23 54.5 -78t19.5 -129q0 -17 -4 -57q1 0 3 1t3 1q26 0 51.5 14t41.5 30t34 44.5t24 40t17 33.5q16 28 45 31.5t47 -17.5q11 -13 11 -29q0 -11 -5 -24q-15 -34 -39 -71t-57.5 -74t-78.5 -61t-91 -24q-16 0 -29 13q-29 -93 -86.5 -185.5t-132 -168.5t-168.5 -123.5 t-186 -47.5q-134 0 -201.5 64.5t-67.5 159.5z" />
<glyph unicode="{" horiz-adv-x="632" d="M135 -25q11 123 119 326v-2q5 9 14 27l13.5 27t11.5 23.5t10.5 23t7.5 19t6 18.5t2 14q0 12 -9 25.5t-23 17.5q-40 13 -47 45t19.5 53t68.5 6q70 -24 127 119q32 77 69 146.5t92 145t116 129.5t142 89t168 35q69 0 134 -35q36 -17 34.5 -49.5t-29.5 -46t-63 1.5 q-34 18 -80 18q-77 0 -151 -38.5t-134.5 -106t-110 -149.5t-87.5 -177q-28 -65 -58.5 -105.5t-78.5 -60.5q15 -33 12 -63q-4 -58 -78 -187h2q-101 -183 -108 -284q-4 -87 24.5 -149t61.5 -67q26 -5 38.5 -24.5t10 -40t-21 -35t-48.5 -10.5q-66 10 -124.5 101.5t-51.5 219.5z " />
<glyph unicode="|" horiz-adv-x="481" d="M75 7q-9 23 7 54l514 1145q19 38 53.5 42.5t49.5 -21t-1 -66.5l-510 -1138q-26 -47 -68 -46q-35 0 -45 30z" />
<glyph unicode="}" horiz-adv-x="737" d="M-421.5 -274.5q1.5 32.5 29 46.5t62.5 -1q36 -19 80 -19q77 0 151 38.5t134.5 106t110 149.5t87.5 177q27 65 58.5 105.5t79.5 60.5q-15 36 -13 64q2 25 15.5 60t23.5 53.5t39 72.5q100 181 107 285q4 87 -24.5 148.5t-61.5 66.5q-34 7 -45.5 36.5t7.5 54.5t58 19 q66 -10 124.5 -101.5t51.5 -219.5q-10 -118 -118 -324q-64 -121 -66 -151q0 -12 9.5 -25.5t23.5 -17.5q40 -13 47 -45t-19.5 -53.5t-68.5 -6.5q-70 24 -127 -119q-32 -77 -69 -146.5t-92.5 -145t-116.5 -129t-142 -88.5t-168 -35q-69 0 -133 34q-36 17 -34.5 49.5z" />
<glyph unicode="~" horiz-adv-x="1837" d="M193 334q57 132 181.5 214.5t264.5 82.5q50 0 95 -11t90.5 -36.5t73 -44t75.5 -54.5q87 -65 161 -100t162 -35q103 0 192 56.5t126 142.5q16 36 48 40.5t51 -22t3 -65.5q-53 -109 -173.5 -185.5t-244.5 -76.5q-191 0 -387 153q-54 41 -88 64t-85 43t-99 20 q-107 0 -204.5 -64t-139.5 -165q-16 -37 -49 -44t-52 19t-1 68z" />
<glyph unicode="&#xa1;" horiz-adv-x="509" d="M-106 -426l399 895q18 41 51 48.5t51 -18t0 -65.5l-403 -901q-15 -33 -46.5 -39t-50 18t-1.5 62zM358 696q6 38 38.5 65t72.5 27t64 -30.5t18 -69.5q-6 -38 -38 -66t-69 -28q-43 0 -69 30t-17 72z" />
<glyph unicode="&#xa2;" horiz-adv-x="1189" d="M264 420q-3 99 25 201q68 221 239.5 379.5t348.5 158.5h18l20 45q16 31 47 36t51 -17t7 -56l-16 -34q92 -42 137 -113q26 -41 3 -79q-20 -32 -50 -23q-20 6 -35 30q-37 64 -98 88l-388 -870h19q119 0 233 82q22 16 43 18.5t32.5 -7.5t16.5 -25t-4 -34.5t-30 -35.5 q-140 -105 -291 -105q-30 0 -66 4l-20 -49q-17 -42 -59 -44q-36 -3 -48 26q-10 22 4 53l23 51q-75 44 -118 128.5t-44 191.5zM369 420q3 -161 100 -219q62 141 188.5 424.5t188.5 425.5q-141 -13 -272.5 -146t-184.5 -315q-20 -66 -20 -170z" />
<glyph unicode="&#xa3;" horiz-adv-x="1370" d="M-2 268q0 62 56.5 88.5t129.5 24.5q92 0 222 -80q135 69 227 272l10 23q9 20 3 28.5t-28 8.5h-83q-31 0 -44 26.5t0 53t44 26.5h131q50 0 63 29q20 63 45.5 122t69.5 129t95 121t124.5 85.5t155.5 34.5q117 0 185.5 -65.5t70.5 -152.5q2 -83 -56.5 -148t-146.5 -65 q-113 -3 -162 86q-9 18 -8.5 34.5t11 26.5t23 14t27.5 -3t25 -24q19 -35 82 -35q46 0 76 33t28 77q0 49 -41 86t-114 37q-62 0 -119 -28.5t-97.5 -69.5t-77 -97.5t-57.5 -102.5t-39 -95q-6 -15 0 -22t27 -7h45q35 0 50 -26.5t1 -53t-51 -26.5h-92q-39 0 -57 -37l-25 -57 q-84 -194 -231 -301q55 -39 86 -58.5t82 -46.5t100.5 -39t101.5 -12q102 0 167 50t75 116q2 49 -37 98q-21 18 -13.5 44t32 35t53.5 -7q79 -58 69 -178q-12 -102 -104.5 -180t-243.5 -78q-66 0 -127 14.5t-120.5 46t-94 54t-94.5 65.5l-33 22q-89 -37 -209 -37 q-84 0 -136 30.5t-52 90.5zM102 270q0 -20 84 -20q48 0 95 6q-68 29 -105 29q-74 0 -74 -15z" />
<glyph unicode="&#xa4;" horiz-adv-x="1386" d="M334 5q8 15 26 15q9 -3 21 0q37 37 37 113q0 35 -15.5 117.5t-15.5 124.5q0 73 52.5 124.5t127.5 51.5q38 0 72 -24.5t41 -65.5q3 -17 -7 -26.5t-22 -7t-16 14.5q-7 23 -27 35t-41 12q-51 0 -84.5 -32.5t-33.5 -81.5q0 -36 12 -119.5t12 -124.5q0 -31 -6 -61 q-3 -12 -4.5 -20t-3.5 -15.5t-0.5 -12t0 -8.5t3 -6t4 -3.5t6.5 -2t8 -0.5h11.5h12.5q119 0 224 37.5t170 106t65 151.5q0 53 -34 85t-91 32t-93 -29q-24 -20 -38 5q-16 30 8 76q3 6 6 11q79 121 149 158q21 14 20.5 17.5t-18.5 13.5q-102 57 -174 57q-103 0 -168 -68 q-21 -24 -44 -11q-20 11 -11 33q3 8 10 15q88 88 213 88q59 0 132 -31t130.5 -68t126 -68t119.5 -31q94 0 140 63q22 23 43.5 5.5t1.5 -42.5q-29 -38 -77 -61t-108 -23q-93 0 -219 72q-45 27 -101 -17t-100 -116q27 10 56 10q81 0 131.5 -49t50.5 -127q0 -100 -73.5 -182.5 t-192.5 -128t-254 -45.5q-74 0 -144 18q-18 0 -26 15.5t0 30.5z" />
<glyph unicode="&#xa5;" horiz-adv-x="933" d="M133 293q0 21 14.5 37t36.5 16h140l10 23q9 20 3 28.5t-28 8.5h-49q-36 0 -50 26.5t1 53t49 26.5l127 4l-96 571q-6 36 20 56.5t55.5 12.5t34.5 -40l74 -498q6 -41 35 -12l473 514q42 39 84 24q33 -13 33 -46q0 -26 -25 -51l-526 -535h78q35 0 50 -26.5t1 -53t-51 -26.5 h-115q-39 0 -57 -37l-9 -23h105q25 0 41 -16t16 -37t-16 -37t-41 -16h-111q-41 0 -57 -37l-92 -205q-12 -17 -37.5 -15.5t-49 21t-16.5 39.5q12 28 37.5 83t34.5 77q9 20 3.5 28.5t-27.5 8.5h-52q-22 0 -36.5 16t-14.5 37z" />
<glyph unicode="&#xa6;" horiz-adv-x="481" d="M58 -44q-12 26 5 62l240 537q10 22 27.5 32.5t34 7.5t30.5 -13t17 -29.5t-6 -42.5l-236 -530q-21 -49 -64 -52q-35 -3 -48 28zM381 731l240 537q11 25 29.5 38t35.5 11t31 -12t15.5 -32t-9.5 -50l-236 -531q-18 -41 -52.5 -48t-53 19.5t-0.5 67.5z" />
<glyph unicode="&#xa7;" horiz-adv-x="1386" d="M334 5q8 15 26 15q9 -3 21 0q37 37 37 113q0 35 -15.5 117.5t-15.5 124.5q0 73 52.5 124.5t127.5 51.5q38 0 72 -24.5t41 -65.5q3 -17 -7 -26.5t-22 -7t-16 14.5q-7 23 -27 35t-41 12q-51 0 -84.5 -32.5t-33.5 -81.5q0 -36 12 -119.5t12 -124.5q0 -31 -6 -61 q-3 -12 -4.5 -20t-3.5 -15.5t-0.5 -12t0 -8.5t3 -6t4 -3.5t6.5 -2t8 -0.5h11.5h12.5q119 0 224 37.5t170 106t65 151.5q0 53 -34 85t-91 32t-93 -29q-24 -20 -38 5q-16 30 8 76q3 6 6 11q79 121 149 158q21 14 20.5 17.5t-18.5 13.5q-102 57 -174 57q-103 0 -168 -68 q-21 -24 -44 -11q-20 11 -11 33q3 8 10 15q88 88 213 88q59 0 132 -31t130.5 -68t126 -68t119.5 -31q94 0 140 63q22 23 43.5 5.5t1.5 -42.5q-29 -38 -77 -61t-108 -23q-93 0 -219 72q-45 27 -101 -17t-100 -116q27 10 56 10q81 0 131.5 -49t50.5 -127q0 -100 -73.5 -182.5 t-192.5 -128t-254 -45.5q-74 0 -144 18q-18 0 -26 15.5t0 30.5z" />
<glyph unicode="&#xa8;" horiz-adv-x="309" d="M197 944q5 31 31 54.5t57 23.5q34 0 55.5 -26t15.5 -60q-6 -32 -32 -54t-58 -22q-36 0 -55.5 25t-13.5 59zM401 944q5 31 31 54.5t57 23.5q34 0 56 -26t16 -60q-6 -32 -32 -54t-58 -22q-36 0 -56 25t-14 59z" />
<glyph unicode="&#xa9;" horiz-adv-x="1036" d="M186 598q0 166 117 282.5t283 116.5t282.5 -116.5t116.5 -282.5t-116.5 -282.5t-282.5 -116.5t-283 116.5t-117 282.5zM297 598q0 -120 84.5 -204.5t204.5 -84.5t204 84.5t84 204.5t-84 204.5t-204 84.5t-204.5 -84.5t-84.5 -204.5zM381 604q0 100 62 168t151 68 q28 0 64 -13t63 -32q30 -21 26 -53t-29.5 -43.5t-55.5 6.5q-36 24 -68 24q-43 0 -72.5 -35.5t-29.5 -89.5t29.5 -89.5t72.5 -35.5q36 0 68 25q29 22 58 9.5t30.5 -41.5t-29.5 -58q-24 -20 -61 -32.5t-66 -12.5q-90 0 -151.5 68t-61.5 167z" />
<glyph unicode="&#xaa;" d="M166 717q0 46 22 94l119 256q13 27 30 53.5t44 58t65 51t80 19.5q60 0 97 -37q21 22 47 22.5t42.5 -21.5t2.5 -50l-180 -395q-17 -39 -17 -53q0 -13 12 -21t31 -8q64 0 133 125q15 27 44 30t45.5 -18.5t0.5 -54.5q-14 -28 -34.5 -57t-49 -59t-65.5 -49t-74 -19 q-46 0 -80.5 19.5t-46.5 55.5q-18 -29 -49.5 -50t-67.5 -25q-70 -7 -110.5 29t-40.5 104zM270 721q0 -35 47 -35q35 0 64 31.5t47 70.5l133 289q7 16 7.5 31t-9.5 27t-33 12q-65 0 -116 -111l-125 -262q-15 -30 -15 -53z" />
<glyph unicode="&#xab;" horiz-adv-x="1019" d="M229 412q0 24 10 39.5t33 35.5l168 168q20 13 37 13q21 0 34.5 -15t18.5 -39q8 -36 -22 -57l-121 -121q-16 -16 -16 -24q0 -9 16 -25l111 -111q29 -24 22 -57q-10 -53 -53 -53q-19 0 -37 12l-158 158q-43 34 -43 76zM512 412q0 24 10 39.5t33 35.5l168 168q19 13 37 13 q21 0 34.5 -15t18.5 -39q8 -36 -22 -57l-121 -121q-17 -17 -17 -24q0 -8 17 -25l110 -111q30 -24 23 -57q-10 -53 -53 -53q-19 0 -37 12l-158 158q-43 34 -43 76z" />
<glyph unicode="&#xac;" horiz-adv-x="1386" d="M334 5q8 15 26 15q9 -3 21 0q37 37 37 113q0 35 -15.5 117.5t-15.5 124.5q0 73 52.5 124.5t127.5 51.5q38 0 72 -24.5t41 -65.5q3 -17 -7 -26.5t-22 -7t-16 14.5q-7 23 -27 35t-41 12q-51 0 -84.5 -32.5t-33.5 -81.5q0 -36 12 -119.5t12 -124.5q0 -31 -6 -61 q-3 -12 -4.5 -20t-3.5 -15.5t-0.5 -12t0 -8.5t3 -6t4 -3.5t6.5 -2t8 -0.5h11.5h12.5q119 0 224 37.5t170 106t65 151.5q0 53 -34 85t-91 32t-93 -29q-24 -20 -38 5q-16 30 8 76q3 6 6 11q79 121 149 158q21 14 20.5 17.5t-18.5 13.5q-102 57 -174 57q-103 0 -168 -68 q-21 -24 -44 -11q-20 11 -11 33q3 8 10 15q88 88 213 88q59 0 132 -31t130.5 -68t126 -68t119.5 -31q94 0 140 63q22 23 43.5 5.5t1.5 -42.5q-29 -38 -77 -61t-108 -23q-93 0 -219 72q-45 27 -101 -17t-100 -116q27 10 56 10q81 0 131.5 -49t50.5 -127q0 -100 -73.5 -182.5 t-192.5 -128t-254 -45.5q-74 0 -144 18q-18 0 -26 15.5t0 30.5z" />
<glyph unicode="&#xad;" horiz-adv-x="669" d="M145 444q-8 14 0 28.5t27 14.5h367q21 0 30 -14.5t0 -28.5t-30 -14h-367q-19 0 -27 14z" />
<glyph unicode="&#xae;" horiz-adv-x="1036" d="M211 598q0 155 110 265t265 110t265 -110t110 -265t-110 -265t-265 -110t-265 110t-110 265zM272 598q0 -130 91.5 -221.5t222.5 -91.5q130 0 221.5 91.5t91.5 221.5t-91.5 221.5t-221.5 91.5q-131 0 -222.5 -91.5t-91.5 -221.5zM444 426v352q18 18 55 29.5t70 11.5 q75 0 116.5 -42t41.5 -99q0 -46 -26.5 -81.5t-75.5 -47.5q27 -94 69 -94q17 0 27 6q24 14 35 -9q12 -23 -5 -41q-5 -5 -12 -8q-27 -10 -45 -10q-87 0 -133 152q-8 0 -14 2q-16 0 -22.5 15.5t0 30.5t22.5 15q10 -2 33 -2q41 0 63.5 21t22.5 51q0 32 -25.5 56t-71.5 24 q-38 0 -63 -10v-322q0 -16 -15.5 -22.5t-31 0t-15.5 22.5z" />
<glyph unicode="&#xaf;" horiz-adv-x="557" d="M236.5 919.5q-13.5 26.5 0 53t46.5 26.5h356q34 0 48 -26.5t0 -53t-48 -26.5h-356q-33 0 -46.5 26.5z" />
<glyph unicode="&#xb0;" horiz-adv-x="546" d="M231 1026q0 74 61 133.5t140 59.5q55 0 90 -36t35 -91q0 -75 -62.5 -134t-134.5 -59q-56 0 -92.5 37t-36.5 90zM297 1034q0 -33 20.5 -53t55.5 -20q45 0 83 35t38 81q0 34 -21 57t-53 23q-46 0 -84.5 -36t-38.5 -87z" />
<glyph unicode="&#xb1;" horiz-adv-x="829" d="M40 14.5q0 20.5 15 37t41 16.5h463q36 0 50.5 -27t0 -53.5t-50.5 -26.5h-463q-26 0 -41 16.5t-15 37zM188 459q0 21 16 37t40 16h166q41 0 57 37l63 143q17 34 48 39t48 -19.5t1 -62.5l-43 -100q-18 -37 24 -37h123q35 0 49 -26.5t-0.5 -53t-48.5 -26.5h-170 q-39 0 -57 -37l-72 -166q-17 -34 -49 -40t-49.5 18.5t0.5 62.5l53 125q18 37 -25 37h-118q-24 0 -40 16t-16 37z" />
<glyph unicode="&#xb2;" horiz-adv-x="1009" d="M251 552.5q-15 27.5 0 55t52 27.5h19q93 4 205.5 52t205.5 118t156 156.5t63 160.5q0 72 -45 118t-127 46q-94 0 -154.5 -58.5t-60.5 -129.5q0 -50 29 -94q16 -17 19 -37t-6.5 -33.5t-23.5 -22.5t-33 -6t-34 19q-61 70 -61 163q0 75 38.5 145t116 117.5t176.5 47.5 q119 0 197 -77t78 -194q0 -124 -113.5 -255t-277.5 -214q-15 -8 -13 -17q1 -5 11 -5h223q29 0 45.5 -17.5t16.5 -38t-16.5 -38t-45.5 -17.5h-588q-37 1 -52 28.5z" />
<glyph unicode="&#xb3;" horiz-adv-x="843" d="M11 175q-10 29 8.5 51.5t56.5 15.5q89 -21 131 -21q112 0 214 50.5t162 129.5t60 160q0 68 -48.5 114.5t-121.5 51.5q-26 0 -41 16.5t-15 37t15 37t41 16.5q88 0 164 29t125 75.5t76.5 101t27.5 107.5q0 54 -44.5 103.5t-129.5 49.5q-95 0 -157 -54t-62 -118 q0 -46 43 -86q27 -31 0 -62q-24 -27 -59 -20q-21 4 -35 23q-55 61 -55 143q0 112 92.5 197.5t232.5 85.5q55 0 102 -16t80 -42.5t56 -60.5t34 -70.5t11 -72.5q0 -116 -81 -227t-222 -160q4 -4 -5 -4l-14 -4q44 -26 72.5 -81t28.5 -110q0 -78 -44 -158.5t-117 -145 t-176 -105.5t-212 -41q-89 0 -154 24q-30 11 -40 40z" />
<glyph unicode="&#xb4;" horiz-adv-x="528" d="M353.5 972.5q-5.5 15.5 1.5 34t26 31.5l285 201q34 25 62 11.5t26.5 -43.5t-31.5 -56h2l-285 -201q-19 -14 -38.5 -14.5t-31 10.5t-17 26.5z" />
<glyph unicode="&#xb6;" horiz-adv-x="1386" d="M334 5q8 15 26 15q9 -3 21 0q37 37 37 113q0 35 -15.5 117.5t-15.5 124.5q0 73 52.5 124.5t127.5 51.5q38 0 72 -24.5t41 -65.5q3 -17 -7 -26.5t-22 -7t-16 14.5q-7 23 -27 35t-41 12q-51 0 -84.5 -32.5t-33.5 -81.5q0 -36 12 -119.5t12 -124.5q0 -31 -6 -61 q-3 -12 -4.5 -20t-3.5 -15.5t-0.5 -12t0 -8.5t3 -6t4 -3.5t6.5 -2t8 -0.5h11.5h12.5q119 0 224 37.5t170 106t65 151.5q0 53 -34 85t-91 32t-93 -29q-24 -20 -38 5q-16 30 8 76q3 6 6 11q79 121 149 158q21 14 20.5 17.5t-18.5 13.5q-102 57 -174 57q-103 0 -168 -68 q-21 -24 -44 -11q-20 11 -11 33q3 8 10 15q88 88 213 88q59 0 132 -31t130.5 -68t126 -68t119.5 -31q94 0 140 63q22 23 43.5 5.5t1.5 -42.5q-29 -38 -77 -61t-108 -23q-93 0 -219 72q-45 27 -101 -17t-100 -116q27 10 56 10q81 0 131.5 -49t50.5 -127q0 -100 -73.5 -182.5 t-192.5 -128t-254 -45.5q-74 0 -144 18q-18 0 -26 15.5t0 30.5z" />
<glyph unicode="&#xb7;" horiz-adv-x="395" d="M184 440q6 31 32 54.5t56 23.5q34 0 56 -26t16 -60q-6 -32 -32 -54t-58 -22q-36 0 -55.5 24.5t-14.5 59.5z" />
<glyph unicode="&#xb8;" horiz-adv-x="475" d="M-96 -283q0 23 14 40.5t39 17.5q12 0 32.5 -9.5t28.5 -9.5q22 0 38 16t16 38q0 26 -22.5 74t-22.5 77q0 33 22 82q17 39 55 39q21 0 38.5 -15.5t17.5 -35.5q0 -13 -11.5 -33t-11.5 -33q0 -26 22.5 -75.5t22.5 -79.5q0 -68 -48 -116t-116 -48q-38 0 -76 18t-38 53z" />
<glyph unicode="&#xb9;" horiz-adv-x="604" d="M225 627q0 8 4 20l138 295q-40 -8 -60 -8t-32.5 15t-12.5 36q0 20 11.5 36.5t33.5 20.5q71 14 125 45l80 170q32 67 71.5 95t75.5 28t59 -25t23 -59q0 -56 -61 -131q-57 -77 -160 -147q-30 -67 -96 -206.5t-96 -207.5q-16 -22 -47 -22q-23 0 -39.5 12.5t-16.5 32.5z" />
<glyph unicode="&#xba;" horiz-adv-x="1402" d="M70 817q0 94 28 168q59 162 191.5 276.5t263.5 114.5q118 0 184 -77t66 -205q0 -124 -69.5 -251.5t-184 -211.5t-234.5 -84q-113 0 -179 74t-66 196zM182 817q0 -70 36.5 -112.5t98.5 -42.5q68 0 137 41t120 103t83.5 138t32.5 143q0 78 -37 127.5t-102 49.5 q-100 0 -202 -92t-146 -224q-21 -62 -21 -131z" />
<glyph unicode="&#xbb;" horiz-adv-x="948" d="M233 209q-7 33 23 57l121 121q16 16 16 25q0 8 -16 24l-121 121q-31 22 -23 57q5 24 19 39t35 15q17 0 37 -13l168 -168q23 -20 33 -35.5t10 -39.5q0 -42 -43 -76l-168 -168q-18 -12 -37 -12q-21 0 -35 14.5t-19 38.5zM516 209q-7 33 23 57l120 121q17 17 17 25 q0 7 -17 24l-120 121q-31 22 -23 57q5 24 18.5 39t34.5 15q17 0 37 -13l168 -168q23 -20 33 -35.5t10 -39.5q0 -42 -43 -76l-168 -168q-18 -12 -37 -12q-43 0 -53 53z" />
<glyph unicode="&#xbc;" horiz-adv-x="1503" d="M212 10q-7 24 11 53l715 1143q19 29 53.5 30.5t49 -21t-4.5 -60.5l-712 -1139q-27 -43 -69 -39q-34 4 -43 33zM225 627q0 8 4 20l138 295q-40 -8 -60 -8t-32.5 15t-12.5 36q0 20 11.5 36.5t33.5 20.5q71 14 125 45l80 170q32 67 71.5 95t75.5 28t59 -25t23 -59 q0 -56 -61 -131q-57 -77 -160 -147q-30 -67 -96 -206.5t-96 -207.5q-16 -22 -47 -22q-23 0 -39.5 12.5t-16.5 32.5zM557.5 49.5q7.5 30.5 36.5 50.5q61 41 126 107t121.5 145t93 170t36.5 170q0 30 -6 60q-11 41 13 64t57.5 13t45.5 -51q6 -18 6 -73q0 -87 -30.5 -180 t-80 -173t-104.5 -146t-112 -116h121q43 0 57 37l254 545q16 31 48.5 35t53 -20t4.5 -60l-249 -537h34q66 0 66 -61q0 -23 -18.5 -39.5t-51.5 -16.5h-49q-40 0 -57 -36l-68 -158q-17 -33 -50.5 -35t-48.5 22.5t1 63.5l47 107q9 20 3 28t-28 8h-213q-34 0 -50 23t-8.5 53.5z " />
<glyph unicode="&#xbd;" horiz-adv-x="1503" d="M212 10q-7 24 11 53l715 1143q19 29 53.5 30.5t49 -21t-4.5 -60.5l-712 -1139q-27 -43 -69 -39q-34 4 -43 33zM225 627q0 8 4 20l138 295q-40 -8 -60 -8t-32.5 15t-12.5 36q0 20 11.5 36.5t33.5 20.5q71 14 125 45l80 170q32 67 71.5 95t75.5 28t59 -25t23 -59 q0 -56 -61 -131q-57 -77 -160 -147q-30 -67 -96 -206.5t-96 -207.5q-16 -22 -47 -22q-23 0 -39.5 12.5t-16.5 32.5zM598 35q3 25 20 41t48 16h39q99 8 222 73t213 157t95 170q3 49 -32.5 86.5t-90.5 37.5q-73 0 -122 -45.5t-52 -101.5q-3 -40 23 -82q20 -34 5 -64t-44.5 -32 t-55.5 24q-52 65 -49 146q6 105 91 188.5t212 83.5q107 0 172.5 -67.5t59.5 -173.5q-4 -98 -105.5 -212t-242.5 -180v-8h143q31 0 49 -17.5t16 -43.5q0 -22 -17.5 -39t-49.5 -17h-481q-32 0 -49 17.5t-17 42.5z" />
<glyph unicode="&#xbe;" horiz-adv-x="1746" d="M-43.5 300q-4.5 30 21 50t65.5 10q55 -16 123 -16q102 0 203 52.5t164 133.5t63 160q0 28 -10 55q-52 -10 -103 -10q-56 0 -100.5 26t-44.5 81q0 34 36.5 59t96.5 25q43 0 84.5 -13.5t60.5 -25.5l13 -10q47 19 83.5 51.5t56 70t29 74t9.5 70.5q0 54 -40.5 100.5 t-119.5 46.5q-77 0 -125.5 -43.5t-48.5 -95.5q0 -33 19 -61q23 -34 4 -66.5t-51.5 -32t-55.5 38.5q-29 60 -29 117q0 100 81.5 177t205.5 77q87 0 152.5 -41t95 -98.5t29.5 -118.5q0 -97 -60.5 -196t-171.5 -156q23 -51 23 -101q0 -108 -77 -215.5t-207 -178.5t-269 -71 q-92 0 -166 27q-35 18 -39.5 48zM485 11q-7 23 11 52l714 1143q19 29 53.5 30.5t49.5 -21t-4 -60.5l-713 -1139q-27 -44 -70 -39q-33 4 -41 34zM805.5 49.5q7.5 30.5 36.5 50.5q61 41 126 107t121.5 145t93 170t36.5 170q0 25 -7 60q-11 41 13.5 64t58 13t45.5 -51 q6 -18 6 -73q0 -87 -30.5 -180t-80 -173t-104.5 -146t-112 -116h120q44 0 58 37l254 545q16 31 48.5 35t53 -20t4.5 -60l-250 -537h35q66 0 66 -61q0 -23 -18.5 -39.5t-51.5 -16.5h-49q-40 0 -57 -36l-68 -158q-17 -33 -50.5 -35t-48.5 22.5t1 63.5l47 107q9 20 3 28t-28 8 h-213q-34 0 -50 23t-8.5 53.5z" />
<glyph unicode="&#xbf;" horiz-adv-x="819" d="M-100 -152q0 54 14.5 103.5t36 87.5t58.5 75.5t70 63.5t83.5 55.5t85 47t88.5 43.5q77 37 119 59.5t88.5 58.5t62.5 72q19 34 50 35.5t43 -24t-5 -68.5q-18 -35 -47.5 -65.5t-77.5 -61t-82 -48.5t-100 -51q-50 -24 -78.5 -38.5t-73.5 -40t-72 -45.5t-59.5 -50.5t-50 -60 t-29.5 -68t-12 -80.5q0 -44 17 -89.5t51 -88.5t96 -70.5t141 -27.5q134 0 219 77t85 169q0 74 -40.5 128t-113.5 54q-80 0 -133 -47q-9 -9 -18.5 -13.5t-18.5 -5t-17.5 1.5t-15.5 7.5t-12.5 12t-7.5 15t-2 18t4.5 19.5t13.5 19q87 84 209 84q117 0 188.5 -85.5t71.5 -205.5 q0 -67 -30 -131.5t-82.5 -115t-131 -81.5t-168.5 -31q-101 0 -183 35.5t-131.5 93t-76 124.5t-26.5 134zM637 698q8 38 40 65.5t71 27.5q42 0 64.5 -30t16.5 -71q-6 -38 -37.5 -66t-68.5 -28q-43 0 -69 30t-17 72z" />
<glyph unicode="&#xc0;" horiz-adv-x="2217" d="M39 377q0 109 41 211t113.5 180.5t181 126t233.5 47.5q211 0 326 -106.5t115 -266.5q0 -137 -107 -231q-32 -27 -63.5 -18t-34.5 40t30 68q64 58 64 141q0 115 -86 188.5t-248 73.5q-133 0 -238 -64t-160.5 -167t-55.5 -223q0 -130 69.5 -235.5t180 -162.5t233.5 -57 q98 0 197.5 38t185 99.5t167 146t145.5 172t120 183.5q77 131 161.5 245.5t196.5 228t230.5 194t263.5 130.5t295 50q103 0 174 -43q35 -22 23 -60q-10 -32 -42 -40q-26 -6 -53 12q-36 22 -92 25q-58 0 -115.5 -36.5t-105 -97.5t-82 -119t-64.5 -122l-397 -856 q-41 -96 -41 -185q0 -114 88 -114q11 0 35 4q37 7 50.5 -27t-10.5 -62q-15 -17 -40 -22q-24 -4 -41 -4q-99 0 -145.5 63.5t-46.5 161.5q0 113 53 226l143 307q8 20 2.5 28.5t-26.5 8.5h-291q-29 0 -47 -8.5t-24 -16t-17 -26.5q-77 -124 -165 -226.5t-194.5 -187.5 t-232.5 -132.5t-258 -47.5q-161 0 -296 70t-216.5 200.5t-81.5 294.5zM1589.5 576.5q5.5 -15.5 30.5 -15.5h287q43 0 59 37l158 338q105 216 196 324q-208 -64 -393 -232.5t-334 -425.5q-9 -10 -3.5 -25.5zM2269.5 1806.5q7.5 30.5 35 36.5t58.5 -18l199 -197l-2 2 q29 -23 24 -55t-31 -40.5t-56 15.5l-207 201q-28 25 -20.5 55.5z" />
<glyph unicode="&#xc1;" horiz-adv-x="2217" d="M39 377q0 109 41 211t113.5 180.5t181 126t233.5 47.5q211 0 326 -106.5t115 -266.5q0 -137 -107 -231q-32 -27 -63.5 -18t-34.5 40t30 68q64 58 64 141q0 115 -86 188.5t-248 73.5q-133 0 -238 -64t-160.5 -167t-55.5 -223q0 -130 69.5 -235.5t180 -162.5t233.5 -57 q98 0 197.5 38t185 99.5t167 146t145.5 172t120 183.5q77 131 161.5 245.5t196.5 228t230.5 194t263.5 130.5t295 50q103 0 174 -43q35 -22 23 -60q-10 -32 -42 -40q-26 -6 -53 12q-36 22 -92 25q-58 0 -115.5 -36.5t-105 -97.5t-82 -119t-64.5 -122l-397 -856 q-41 -96 -41 -185q0 -114 88 -114q11 0 35 4q37 7 50.5 -27t-10.5 -62q-15 -17 -40 -22q-24 -4 -41 -4q-99 0 -145.5 63.5t-46.5 161.5q0 113 53 226l143 307q8 20 2.5 28.5t-26.5 8.5h-291q-29 0 -47 -8.5t-24 -16t-17 -26.5q-77 -124 -165 -226.5t-194.5 -187.5 t-232.5 -132.5t-258 -47.5q-161 0 -296 70t-216.5 200.5t-81.5 294.5zM1589.5 576.5q5.5 -15.5 30.5 -15.5h287q43 0 59 37l158 338q105 216 196 324q-208 -64 -393 -232.5t-334 -425.5q-9 -10 -3.5 -25.5zM2332 1572.5q-6 15.5 1 34t26 31.5l285 201q34 25 62 11.5 t26.5 -43.5t-31.5 -56h2l-284 -201q-19 -14 -38.5 -14.5t-31 10.5t-17.5 26.5z" />
<glyph unicode="&#xc2;" horiz-adv-x="2217" d="M39 377q0 109 41 211t113.5 180.5t181 126t233.5 47.5q211 0 326 -106.5t115 -266.5q0 -137 -107 -231q-32 -27 -63.5 -18t-34.5 40t30 68q64 58 64 141q0 115 -86 188.5t-248 73.5q-133 0 -238 -64t-160.5 -167t-55.5 -223q0 -130 69.5 -235.5t180 -162.5t233.5 -57 q98 0 197.5 38t185 99.5t167 146t145.5 172t120 183.5q77 131 161.5 245.5t196.5 228t230.5 194t263.5 130.5t295 50q103 0 174 -43q35 -22 23 -60q-10 -32 -42 -40q-26 -6 -53 12q-36 22 -92 25q-58 0 -115.5 -36.5t-105 -97.5t-82 -119t-64.5 -122l-397 -856 q-41 -96 -41 -185q0 -114 88 -114q11 0 35 4q37 7 50.5 -27t-10.5 -62q-15 -17 -40 -22q-24 -4 -41 -4q-99 0 -145.5 63.5t-46.5 161.5q0 113 53 226l143 307q8 20 2.5 28.5t-26.5 8.5h-291q-29 0 -47 -8.5t-24 -16t-17 -26.5q-77 -124 -165 -226.5t-194.5 -187.5 t-232.5 -132.5t-258 -47.5q-161 0 -296 70t-216.5 200.5t-81.5 294.5zM1589.5 576.5q5.5 -15.5 30.5 -15.5h287q43 0 59 37l158 338q105 216 196 324q-208 -64 -393 -232.5t-334 -425.5q-9 -10 -3.5 -25.5zM2280.5 1573.5q-4.5 15.5 3 34.5t24.5 32l262 187q19 16 45.5 15 t38.5 -27l86 -187q20 -44 -10 -73q-26 -25 -55 -10q-16 8 -25 28l-45 98q-9 20 -20.5 22t-30.5 -10l-187 -131q-22 -15 -41.5 -15.5t-30 10.5t-15 26.5z" />
<glyph unicode="&#xc3;" horiz-adv-x="2217" d="M39 377q0 109 41 211t113.5 180.5t181 126t233.5 47.5q211 0 326 -106.5t115 -266.5q0 -137 -107 -231q-32 -27 -63.5 -18t-34.5 40t30 68q64 58 64 141q0 115 -86 188.5t-248 73.5q-133 0 -238 -64t-160.5 -167t-55.5 -223q0 -130 69.5 -235.5t180 -162.5t233.5 -57 q98 0 197.5 38t185 99.5t167 146t145.5 172t120 183.5q77 131 161.5 245.5t196.5 228t230.5 194t263.5 130.5t295 50q103 0 174 -43q35 -22 23 -60q-10 -32 -42 -40q-26 -6 -53 12q-36 22 -92 25q-58 0 -115.5 -36.5t-105 -97.5t-82 -119t-64.5 -122l-397 -856 q-41 -96 -41 -185q0 -114 88 -114q11 0 35 4q37 7 50.5 -27t-10.5 -62q-15 -17 -40 -22q-24 -4 -41 -4q-99 0 -145.5 63.5t-46.5 161.5q0 113 53 226l143 307q8 20 2.5 28.5t-26.5 8.5h-291q-29 0 -47 -8.5t-24 -16t-17 -26.5q-77 -124 -165 -226.5t-194.5 -187.5 t-232.5 -132.5t-258 -47.5q-161 0 -296 70t-216.5 200.5t-81.5 294.5zM1589.5 576.5q5.5 -15.5 30.5 -15.5h287q43 0 59 37l158 338q105 216 196 324q-208 -64 -393 -232.5t-334 -425.5q-9 -10 -3.5 -25.5zM2455 1566q-6 15 1 34t26 34q49 39 103 39q33 0 92 -26 q52 -27 90 -9q31 16 54 0.5t22 -44t-29 -46.5q-46 -28 -86 -28q-42 0 -88 24q-21 10 -33.5 14.5t-30 4t-32.5 -12.5q-19 -15 -39 -16.5t-32 8t-18 24.5z" />
<glyph unicode="&#xc4;" horiz-adv-x="2217" d="M39 377q0 109 41 211t113.5 180.5t181 126t233.5 47.5q211 0 326 -106.5t115 -266.5q0 -137 -107 -231q-32 -27 -63.5 -18t-34.5 40t30 68q64 58 64 141q0 115 -86 188.5t-248 73.5q-133 0 -238 -64t-160.5 -167t-55.5 -223q0 -130 69.5 -235.5t180 -162.5t233.5 -57 q98 0 197.5 38t185 99.5t167 146t145.5 172t120 183.5q77 131 161.5 245.5t196.5 228t230.5 194t263.5 130.5t295 50q103 0 174 -43q35 -22 23 -60q-10 -32 -42 -40q-26 -6 -53 12q-36 22 -92 25q-58 0 -115.5 -36.5t-105 -97.5t-82 -119t-64.5 -122l-397 -856 q-41 -96 -41 -185q0 -114 88 -114q11 0 35 4q37 7 50.5 -27t-10.5 -62q-15 -17 -40 -22q-24 -4 -41 -4q-99 0 -145.5 63.5t-46.5 161.5q0 113 53 226l143 307q8 20 2.5 28.5t-26.5 8.5h-291q-29 0 -47 -8.5t-24 -16t-17 -26.5q-77 -124 -165 -226.5t-194.5 -187.5 t-232.5 -132.5t-258 -47.5q-161 0 -296 70t-216.5 200.5t-81.5 294.5zM1589.5 576.5q5.5 -15.5 30.5 -15.5h287q43 0 59 37l158 338q105 216 196 324q-208 -64 -393 -232.5t-334 -425.5q-9 -10 -3.5 -25.5zM2296 1544q5 31 31 54.5t57 23.5q34 0 56 -26t16 -60 q-6 -32 -32.5 -54t-58.5 -22q-36 0 -55.5 25t-13.5 59zM2501 1544q5 31 31 54.5t57 23.5q34 0 55.5 -26t15.5 -60q-6 -32 -32 -54t-58 -22q-36 0 -55.5 25t-13.5 59z" />
<glyph unicode="&#xc5;" horiz-adv-x="2217" d="M39 377q0 109 41 211t113.5 180.5t181 126t233.5 47.5q211 0 326 -106.5t115 -266.5q0 -137 -107 -231q-32 -27 -63.5 -18t-34.5 40t30 68q64 58 64 141q0 115 -86 188.5t-248 73.5q-133 0 -238 -64t-160.5 -167t-55.5 -223q0 -130 69.5 -235.5t180 -162.5t233.5 -57 q98 0 197.5 38t185 99.5t167 146t145.5 172t120 183.5q77 131 161.5 245.5t196.5 228t230.5 194t263.5 130.5t295 50q103 0 174 -43q35 -22 23 -60q-10 -32 -42 -40q-26 -6 -53 12q-36 22 -92 25q-58 0 -115.5 -36.5t-105 -97.5t-82 -119t-64.5 -122l-397 -856 q-41 -96 -41 -185q0 -114 88 -114q11 0 35 4q37 7 50.5 -27t-10.5 -62q-15 -17 -40 -22q-24 -4 -41 -4q-99 0 -145.5 63.5t-46.5 161.5q0 113 53 226l143 307q8 20 2.5 28.5t-26.5 8.5h-291q-29 0 -47 -8.5t-24 -16t-17 -26.5q-77 -124 -165 -226.5t-194.5 -187.5 t-232.5 -132.5t-258 -47.5q-161 0 -296 70t-216.5 200.5t-81.5 294.5zM1589.5 576.5q5.5 -15.5 30.5 -15.5h287q43 0 59 37l158 338q105 216 196 324q-208 -64 -393 -232.5t-334 -425.5q-9 -10 -3.5 -25.5zM2431 1642q0 79 65 143t150 64q62 0 101.5 -41.5t39.5 -103.5 q0 -80 -66.5 -143.5t-144.5 -63.5q-64 0 -104.5 41.5t-40.5 103.5zM2540 1649q0 -21 13 -34t36 -13q34 0 63 26.5t29 61.5q0 23 -13 37t-34 16q-35 2 -64.5 -26.5t-29.5 -67.5z" />
<glyph unicode="&#xc6;" horiz-adv-x="292" />
<glyph unicode="&#xc7;" horiz-adv-x="1470" d="M160 412q4 126 52 261.5t137.5 262t206.5 227.5t271.5 162t319.5 61q110 0 200 -31t146 -82.5t86 -114.5t31 -130q-5 -129 -101 -230.5t-233 -101.5q-72 0 -125 21t-80.5 56.5t-40 75.5t-10.5 85q0 55 41 106q28 36 62.5 36.5t45 -26t-9.5 -63.5q-10 -13 -19.5 -34 t-9.5 -31q-2 -48 36.5 -82.5t115.5 -34.5q90 0 153.5 65.5t65.5 147.5q3 103 -91 181.5t-267 78.5q-146 0 -283 -54t-240 -144t-182 -202t-121 -232.5t-45 -231.5q-3 -105 31 -207t97.5 -183.5t162 -131.5t213.5 -50q91 0 172 31t137.5 81.5t92 113.5t43.5 129 q12 94 -45 165.5t-156 71.5q-84 1 -137 -38t-56 -93q-3 -41 -30 -58t-52 -0.5t-22 58.5q5 95 92.5 169t220.5 73q97 0 170 -52.5t105 -134.5t18 -172q-13 -83 -58.5 -163.5t-116 -145.5t-170.5 -105t-212 -40q-30 0 -80 4q-2 -4 -2 -15q0 -26 22.5 -75.5t22.5 -79.5 q0 -68 -48.5 -116t-115.5 -48q-38 0 -76 18.5t-38 53.5q0 23 14 40t39 17q12 0 32.5 -9t28.5 -9q22 0 38 15.5t16 37.5q0 26 -22.5 74t-22.5 77q0 20 6 41q-202 63 -317 244.5t-109 409.5z" />
<glyph unicode="&#xc8;" horiz-adv-x="1433" d="M129 193q2 86 41 172t106.5 160t169.5 129.5t222 76.5q-79 119 -76 262q3 124 83 232t210.5 170.5t275.5 62.5q107 0 197.5 -30t149.5 -79.5t92 -112t34 -128.5q0 -132 -95.5 -235t-233.5 -103q-127 -1 -197.5 67.5t-67.5 159.5q0 91 54 140q30 24 60 16.5t36 -33.5 t-16 -55q-25 -25 -25 -68q-2 -49 39.5 -84t116.5 -34q90 0 154.5 67t64.5 152q2 99 -100.5 176.5t-266.5 77.5q-118 0 -223 -48.5t-168.5 -131.5t-65.5 -179q-3 -100 47.5 -162t153.5 -63h37q30 0 46.5 -17.5t16.5 -41.5q0 -25 -16 -41.5t-45 -16.5h-47q-129 7 -248.5 -30.5 t-204 -103.5t-138 -151.5t-60.5 -172.5q1 -54 18.5 -106.5t54 -102.5t87.5 -88t125 -61t161 -23q90 0 169.5 30.5t135 80.5t89.5 112.5t40 128.5q9 92 -49 163.5t-155 71.5q-82 1 -134.5 -38t-54.5 -91q-1 -31 -17.5 -48t-39.5 -17t-37 16.5t-14 48.5q2 95 88.5 170 t220.5 74q73 0 134.5 -31t100.5 -82t58 -115.5t12 -131.5q-9 -66 -39 -131t-79.5 -123.5t-113 -104t-146 -72t-171.5 -26.5q-121 0 -218.5 30t-160.5 79t-104.5 114.5t-58.5 133.5t-15 139zM953 1806.5q8 30.5 35.5 36.5t58.5 -18l198 -197l-2 2q29 -23 24 -55t-31 -40.5 t-56 15.5l-207 201q-28 25 -20 55.5z" />
<glyph unicode="&#xc9;" horiz-adv-x="1433" d="M129 193q2 86 41 172t106.5 160t169.5 129.5t222 76.5q-79 119 -76 262q3 124 83 232t210.5 170.5t275.5 62.5q107 0 197.5 -30t149.5 -79.5t92 -112t34 -128.5q0 -132 -95.5 -235t-233.5 -103q-127 -1 -197.5 67.5t-67.5 159.5q0 91 54 140q30 24 60 16.5t36 -33.5 t-16 -55q-25 -25 -25 -68q-2 -49 39.5 -84t116.5 -34q90 0 154.5 67t64.5 152q2 99 -100.5 176.5t-266.5 77.5q-118 0 -223 -48.5t-168.5 -131.5t-65.5 -179q-3 -100 47.5 -162t153.5 -63h37q30 0 46.5 -17.5t16.5 -41.5q0 -25 -16 -41.5t-45 -16.5h-47q-129 7 -248.5 -30.5 t-204 -103.5t-138 -151.5t-60.5 -172.5q1 -54 18.5 -106.5t54 -102.5t87.5 -88t125 -61t161 -23q90 0 169.5 30.5t135 80.5t89.5 112.5t40 128.5q9 92 -49 163.5t-155 71.5q-82 1 -134.5 -38t-54.5 -91q-1 -31 -17.5 -48t-39.5 -17t-37 16.5t-14 48.5q2 95 88.5 170 t220.5 74q73 0 134.5 -31t100.5 -82t58 -115.5t12 -131.5q-9 -66 -39 -131t-79.5 -123.5t-113 -104t-146 -72t-171.5 -26.5q-121 0 -218.5 30t-160.5 79t-104.5 114.5t-58.5 133.5t-15 139zM1087 1572.5q-6 15.5 1 34t26 31.5l285 201q34 25 62 11.5t26.5 -43.5t-31.5 -56h2 l-284 -201q-19 -14 -38.5 -14.5t-31 10.5t-17.5 26.5z" />
<glyph unicode="&#xca;" horiz-adv-x="1433" d="M129 193q2 86 41 172t106.5 160t169.5 129.5t222 76.5q-79 119 -76 262q3 124 83 232t210.5 170.5t275.5 62.5q107 0 197.5 -30t149.5 -79.5t92 -112t34 -128.5q0 -132 -95.5 -235t-233.5 -103q-127 -1 -197.5 67.5t-67.5 159.5q0 91 54 140q30 24 60 16.5t36 -33.5 t-16 -55q-25 -25 -25 -68q-2 -49 39.5 -84t116.5 -34q90 0 154.5 67t64.5 152q2 99 -100.5 176.5t-266.5 77.5q-118 0 -223 -48.5t-168.5 -131.5t-65.5 -179q-3 -100 47.5 -162t153.5 -63h37q30 0 46.5 -17.5t16.5 -41.5q0 -25 -16 -41.5t-45 -16.5h-47q-129 7 -248.5 -30.5 t-204 -103.5t-138 -151.5t-60.5 -172.5q1 -54 18.5 -106.5t54 -102.5t87.5 -88t125 -61t161 -23q90 0 169.5 30.5t135 80.5t89.5 112.5t40 128.5q9 92 -49 163.5t-155 71.5q-82 1 -134.5 -38t-54.5 -91q-1 -31 -17.5 -48t-39.5 -17t-37 16.5t-14 48.5q2 95 88.5 170 t220.5 74q73 0 134.5 -31t100.5 -82t58 -115.5t12 -131.5q-9 -66 -39 -131t-79.5 -123.5t-113 -104t-146 -72t-171.5 -26.5q-121 0 -218.5 30t-160.5 79t-104.5 114.5t-58.5 133.5t-15 139zM1076.5 1573.5q-4.5 15.5 3 34.5t24.5 32l262 187q19 16 45.5 15t38.5 -27l86 -187 q20 -44 -10 -73q-26 -25 -55 -10q-16 8 -25 28l-45 98q-9 20 -20.5 22t-30.5 -10l-187 -131q-22 -15 -41.5 -15.5t-30 10.5t-15 26.5z" />
<glyph unicode="&#xcb;" horiz-adv-x="1433" d="M129 193q2 86 41 172t106.5 160t169.5 129.5t222 76.5q-79 119 -76 262q3 124 83 232t210.5 170.5t275.5 62.5q107 0 197.5 -30t149.5 -79.5t92 -112t34 -128.5q0 -132 -95.5 -235t-233.5 -103q-127 -1 -197.5 67.5t-67.5 159.5q0 91 54 140q30 24 60 16.5t36 -33.5 t-16 -55q-25 -25 -25 -68q-2 -49 39.5 -84t116.5 -34q90 0 154.5 67t64.5 152q2 99 -100.5 176.5t-266.5 77.5q-118 0 -223 -48.5t-168.5 -131.5t-65.5 -179q-3 -100 47.5 -162t153.5 -63h37q30 0 46.5 -17.5t16.5 -41.5q0 -25 -16 -41.5t-45 -16.5h-47q-129 7 -248.5 -30.5 t-204 -103.5t-138 -151.5t-60.5 -172.5q1 -54 18.5 -106.5t54 -102.5t87.5 -88t125 -61t161 -23q90 0 169.5 30.5t135 80.5t89.5 112.5t40 128.5q9 92 -49 163.5t-155 71.5q-82 1 -134.5 -38t-54.5 -91q-1 -31 -17.5 -48t-39.5 -17t-37 16.5t-14 48.5q2 95 88.5 170 t220.5 74q73 0 134.5 -31t100.5 -82t58 -115.5t12 -131.5q-9 -66 -39 -131t-79.5 -123.5t-113 -104t-146 -72t-171.5 -26.5q-121 0 -218.5 30t-160.5 79t-104.5 114.5t-58.5 133.5t-15 139zM1130 1618q5 31 31.5 54.5t57.5 23.5q34 0 55.5 -26t15.5 -60q-6 -32 -32 -54 t-58 -22q-36 0 -56 25t-14 59zM1335 1618q5 31 31 54.5t57 23.5q34 0 56 -26t16 -60q-6 -32 -32 -54t-58 -22q-36 0 -56 25t-14 59z" />
<glyph unicode="&#xcc;" horiz-adv-x="1187" d="M4 12q-20 49 0 77t54 18.5t48 -52.5q12 -40 69 -66t136 -26q75 0 142 20t117 48t100.5 81.5t83 95.5t73.5 116t62 118t58 125q25 55 38 82t49 106.5t61.5 132.5t63 123.5t76.5 125t78 90.5q19 17 14 28.5t-41 18.5q-49 10 -102 10q-197 0 -328 -136.5t-131 -338.5 q0 -71 18 -129q16 -34 -6 -61t-57 -22.5t-49 46.5q-27 82 -27 166q0 160 76.5 294.5t210 213t293.5 78.5q148 0 262 -41q36 -13 54 -32.5t17 -39t-8 -35t-18 -26.5q-78 -61 -134 -123t-73 -90q-34 -54 -192 -396q-111 -241 -154 -318q-134 -245 -293 -348q-145 -93 -334 -93 q-109 0 -193.5 43.5t-113.5 115.5zM1260 1806.5q8 30.5 35.5 36.5t58.5 -18l198 -197l-2 2q29 -23 24 -55t-31 -40.5t-56 15.5l-207 201q-28 25 -20 55.5z" />
<glyph unicode="&#xcd;" horiz-adv-x="1187" d="M4 12q-20 49 0 77t54 18.5t48 -52.5q12 -40 69 -66t136 -26q75 0 142 20t117 48t100.5 81.5t83 95.5t73.5 116t62 118t58 125q25 55 38 82t49 106.5t61.5 132.5t63 123.5t76.5 125t78 90.5q19 17 14 28.5t-41 18.5q-49 10 -102 10q-197 0 -328 -136.5t-131 -338.5 q0 -71 18 -129q16 -34 -6 -61t-57 -22.5t-49 46.5q-27 82 -27 166q0 160 76.5 294.5t210 213t293.5 78.5q148 0 262 -41q36 -13 54 -32.5t17 -39t-8 -35t-18 -26.5q-78 -61 -134 -123t-73 -90q-34 -54 -192 -396q-111 -241 -154 -318q-134 -245 -293 -348q-145 -93 -334 -93 q-109 0 -193.5 43.5t-113.5 115.5zM1412.5 1572.5q-5.5 15.5 1.5 34t26 31.5l284 201q34 25 62 11.5t27 -43.5t-31 -56h2l-285 -201q-19 -14 -38.5 -14.5t-31 10.5t-17 26.5z" />
<glyph unicode="&#xce;" horiz-adv-x="1187" d="M4 12q-20 49 0 77t54 18.5t48 -52.5q12 -40 69 -66t136 -26q75 0 142 20t117 48t100.5 81.5t83 95.5t73.5 116t62 118t58 125q25 55 38 82t49 106.5t61.5 132.5t63 123.5t76.5 125t78 90.5q19 17 14 28.5t-41 18.5q-49 10 -102 10q-197 0 -328 -136.5t-131 -338.5 q0 -71 18 -129q16 -34 -6 -61t-57 -22.5t-49 46.5q-27 82 -27 166q0 160 76.5 294.5t210 213t293.5 78.5q148 0 262 -41q36 -13 54 -32.5t17 -39t-8 -35t-18 -26.5q-78 -61 -134 -123t-73 -90q-34 -54 -192 -396q-111 -241 -154 -318q-134 -245 -293 -348q-145 -93 -334 -93 q-109 0 -193.5 43.5t-113.5 115.5zM1236.5 1573.5q-4.5 15.5 3 34.5t24.5 32l262 187q19 16 45.5 15t38.5 -27l86 -187q20 -44 -10 -73q-26 -25 -55 -10q-16 8 -25 28l-45 98q-6 13 -13.5 18.5t-16.5 3.5t-22 -10l-186 -131q-22 -15 -41.5 -15.5t-30 10.5t-15 26.5z" />
<glyph unicode="&#xcf;" horiz-adv-x="1187" d="M4 12q-20 49 0 77t54 18.5t48 -52.5q12 -40 69 -66t136 -26q75 0 142 20t117 48t100.5 81.5t83 95.5t73.5 116t62 118t58 125q25 55 38 82t49 106.5t61.5 132.5t63 123.5t76.5 125t78 90.5q19 17 14 28.5t-41 18.5q-49 10 -102 10q-197 0 -328 -136.5t-131 -338.5 q0 -71 18 -129q16 -34 -6 -61t-57 -22.5t-49 46.5q-27 82 -27 166q0 160 76.5 294.5t210 213t293.5 78.5q148 0 262 -41q36 -13 54 -32.5t17 -39t-8 -35t-18 -26.5q-78 -61 -134 -123t-73 -90q-34 -54 -192 -396q-111 -241 -154 -318q-134 -245 -293 -348q-145 -93 -334 -93 q-109 0 -193.5 43.5t-113.5 115.5zM1217 1544q5 31 31 54.5t57 23.5q34 0 55.5 -26t15.5 -60q-6 -32 -32 -54t-58 -22q-36 0 -55.5 25t-13.5 59zM1421 1544q5 31 31 54.5t57 23.5q34 0 56 -26t16 -60q-6 -32 -32 -54t-58 -22q-36 0 -56 25t-14 59z" />
<glyph unicode="&#xd0;" horiz-adv-x="1994" d="M-27 12q0 56 58.5 97t142.5 41q94 0 184.5 -25t210.5 -72q64 46 123 124.5t97 151t90 183.5q16 37 -27 37h-68q-28 0 -42.5 16.5t-13.5 36.5t16 36.5t40 16.5h115q41 0 57 37l93 203q100 225 192 362q32 45 -12 56q-69 10 -174 10q-148 0 -278.5 -31.5t-226.5 -85 t-171.5 -123t-122 -148.5t-70.5 -157.5t-24 -152.5q0 -115 59.5 -211t161.5 -138q33 -14 37.5 -44t-20 -50t-62.5 -8q-140 52 -214.5 174.5t-74.5 278.5q0 85 28 175.5t82 181t140 171t194 143t253.5 99.5t308.5 37q267 0 461 -86q144 -64 246 -167t151 -224t49 -252 q0 -138 -45 -271t-130.5 -244t-200 -196t-262 -132.5t-308.5 -47.5q-70 0 -151.5 19t-135.5 39t-147 58q-137 -79 -330 -82q-38 1 -79.5 8.5t-89.5 24t-79 50.5t-31 81zM82 12q0 -17 19.5 -28.5t50.5 -16.5t54 -6.5t46 -1.5q79 0 151 16q9 2 12.5 6t0.5 8.5t-13 8.5 q-139 47 -233 47q-40 0 -64 -10.5t-24 -22.5zM702 23q-16 -19 11 -27q76 -26 109 -36t91.5 -23t102.5 -13q177 0 333.5 64.5t264.5 171.5t170.5 249.5t62.5 295.5q0 116 -44.5 221.5t-140 194.5t-230.5 139q-23 12 -40.5 8.5t-37.5 -31.5q-34 -45 -72 -113t-62.5 -119 t-70.5 -149l-76 -164q-8 -20 -2.5 -28.5t27.5 -8.5h53q41 0 57.5 -26.5t0 -53t-57.5 -26.5h-102q-42 0 -58 -37l-10 -23q-147 -318 -279 -466z" />
<glyph unicode="&#xd1;" horiz-adv-x="1208" d="M-102 1116q0 109 62.5 202t164.5 146.5t215 53.5q111 0 212 -48t167.5 -142t66.5 -212q0 -15 2.5 -22t8.5 -4t9.5 6t12.5 12q143 143 303 143q99 0 151 -62.5t52 -148.5q0 -64 -25 -116l-419 -944q-21 -61 -21 -72q0 -21 4 -25q39 -34 20 -77q-14 -33 -46 -36 q-20 -2 -37 13v-2q-60 41 -60 127q0 45 31 121q26 58 86.5 197t137.5 311.5t178 390.5q24 58 24 98q0 43 -26.5 70.5t-77.5 27.5q-54 0 -99 -19.5t-98 -62.5q-124 -100 -217 -305l-342 -751q-23 -47 -70 -47q-32 0 -47.5 24t0.5 60l410 888q45 102 45 201q0 131 -99.5 214 t-238.5 83q-81 0 -156.5 -35.5t-125.5 -105t-50 -154.5q0 -96 63 -163.5t162 -67.5q48 0 89 21.5t59 62.5q9 23 26 35t33.5 9.5t31 -11.5t19.5 -28t-2 -40q-28 -76 -98 -116t-158 -40q-140 0 -236.5 99t-96.5 241zM1048 1501q-6 15 1 34t26 34q49 39 103 39q31 0 92 -27 q51 -27 90 -8q31 16 54 0.5t22 -44t-29 -46.5q-48 -29 -86 -29q-40 0 -88 25q-21 10 -33.5 14.5t-30.5 4t-32 -12.5q-19 -15 -39 -16.5t-32 8t-18 24.5z" />
<glyph unicode="&#xd2;" horiz-adv-x="1705" d="M190 446q0 88 23 185q48 209 185.5 386.5t326.5 280.5t383 103q128 0 236.5 -46t183 -126t116.5 -191t42 -239q0 -84 -21 -187q-49 -209 -186 -386t-326 -279.5t-383 -102.5q-128 0 -237 46t-184 126t-117 191t-42 239zM301 446q0 -215 130 -353t339 -138q124 0 251 55.5 t231.5 147.5t185 216.5t116.5 258.5v-2q21 92 21 168q0 216 -129 353.5t-338 137.5q-169 0 -335 -91t-287 -247.5t-164 -339.5q-21 -107 -21 -166zM987.5 1806.5q7.5 30.5 35 36.5t58.5 -18l199 -197l-2 2q29 -23 23.5 -55t-31.5 -40.5t-56 15.5l-206 201q-28 25 -20.5 55.5 z" />
<glyph unicode="&#xd3;" horiz-adv-x="1705" d="M190 446q0 88 23 185q48 209 185.5 386.5t326.5 280.5t383 103q128 0 236.5 -46t183 -126t116.5 -191t42 -239q0 -84 -21 -187q-49 -209 -186 -386t-326 -279.5t-383 -102.5q-128 0 -237 46t-184 126t-117 191t-42 239zM301 446q0 -215 130 -353t339 -138q124 0 251 55.5 t231.5 147.5t185 216.5t116.5 258.5v-2q21 92 21 168q0 216 -129 353.5t-338 137.5q-169 0 -335 -91t-287 -247.5t-164 -339.5q-21 -107 -21 -166zM1142 1572.5q-6 15.5 1 34t26 31.5l285 201q34 25 62 11.5t26.5 -43.5t-31.5 -56h2l-284 -201q-19 -14 -38.5 -14.5t-31 10.5 t-17.5 26.5z" />
<glyph unicode="&#xd4;" horiz-adv-x="1705" d="M190 446q0 88 23 185q48 209 185.5 386.5t326.5 280.5t383 103q128 0 236.5 -46t183 -126t116.5 -191t42 -239q0 -84 -21 -187q-49 -209 -186 -386t-326 -279.5t-383 -102.5q-128 0 -237 46t-184 126t-117 191t-42 239zM301 446q0 -215 130 -353t339 -138q124 0 251 55.5 t231.5 147.5t185 216.5t116.5 258.5v-2q21 92 21 168q0 216 -129 353.5t-338 137.5q-169 0 -335 -91t-287 -247.5t-164 -339.5q-21 -107 -21 -166zM1025.5 1573.5q-4.5 15.5 3 34.5t24.5 32l262 187q19 16 45.5 15t38.5 -27l86 -187q20 -44 -10 -73q-26 -25 -55 -10 q-16 8 -25 28l-45 98q-6 13 -13.5 18.5t-16.5 3.5t-22 -10l-186 -131q-22 -15 -41.5 -15.5t-30 10.5t-15 26.5z" />
<glyph unicode="&#xd5;" horiz-adv-x="1705" d="M190 446q0 88 23 185q48 209 185.5 386.5t326.5 280.5t383 103q128 0 236.5 -46t183 -126t116.5 -191t42 -239q0 -84 -21 -187q-49 -209 -186 -386t-326 -279.5t-383 -102.5q-128 0 -237 46t-184 126t-117 191t-42 239zM301 446q0 -215 130 -353t339 -138q124 0 251 55.5 t231.5 147.5t185 216.5t116.5 258.5v-2q21 92 21 168q0 216 -129 353.5t-338 137.5q-169 0 -335 -91t-287 -247.5t-164 -339.5q-21 -107 -21 -166zM1070.5 1553q-0.5 29 29.5 57q49 39 102 39q31 0 92 -27q51 -27 90 -8q31 16 54.5 0.5t22.5 -44t-29 -46.5q-48 -29 -86 -29 q-41 0 -89 25q-21 10 -33.5 14.5t-30 4t-32.5 -12.5q-32 -25 -61 -13.5t-29.5 40.5z" />
<glyph unicode="&#xd6;" horiz-adv-x="1705" d="M190 446q0 88 23 185q48 209 185.5 386.5t326.5 280.5t383 103q128 0 236.5 -46t183 -126t116.5 -191t42 -239q0 -84 -21 -187q-49 -209 -186 -386t-326 -279.5t-383 -102.5q-128 0 -237 46t-184 126t-117 191t-42 239zM301 446q0 -215 130 -353t339 -138q124 0 251 55.5 t231.5 147.5t185 216.5t116.5 258.5v-2q21 92 21 168q0 216 -129 353.5t-338 137.5q-169 0 -335 -91t-287 -247.5t-164 -339.5q-21 -107 -21 -166zM1061 1544q5 31 31 54.5t57 23.5q34 0 56 -26t16 -60q-6 -32 -32.5 -54t-58.5 -22q-36 0 -55.5 25t-13.5 59zM1266 1544 q5 31 31 54.5t57 23.5q34 0 55.5 -26t15.5 -60q-6 -32 -32 -54t-58 -22q-36 0 -55.5 25t-13.5 59z" />
<glyph unicode="&#xd7;" horiz-adv-x="1386" d="M334 5q8 15 26 15q9 -3 21 0q37 37 37 113q0 35 -15.5 117.5t-15.5 124.5q0 73 52.5 124.5t127.5 51.5q38 0 72 -24.5t41 -65.5q3 -17 -7 -26.5t-22 -7t-16 14.5q-7 23 -27 35t-41 12q-51 0 -84.5 -32.5t-33.5 -81.5q0 -36 12 -119.5t12 -124.5q0 -31 -6 -61 q-3 -12 -4.5 -20t-3.5 -15.5t-0.5 -12t0 -8.5t3 -6t4 -3.5t6.5 -2t8 -0.5h11.5h12.5q119 0 224 37.5t170 106t65 151.5q0 53 -34 85t-91 32t-93 -29q-24 -20 -38 5q-16 30 8 76q3 6 6 11q79 121 149 158q21 14 20.5 17.5t-18.5 13.5q-102 57 -174 57q-103 0 -168 -68 q-21 -24 -44 -11q-20 11 -11 33q3 8 10 15q88 88 213 88q59 0 132 -31t130.5 -68t126 -68t119.5 -31q94 0 140 63q22 23 43.5 5.5t1.5 -42.5q-29 -38 -77 -61t-108 -23q-93 0 -219 72q-45 27 -101 -17t-100 -116q27 10 56 10q81 0 131.5 -49t50.5 -127q0 -100 -73.5 -182.5 t-192.5 -128t-254 -45.5q-74 0 -144 18q-18 0 -26 15.5t0 30.5z" />
<glyph unicode="&#xd8;" horiz-adv-x="1705" d="M190 446q0 88 23 185q48 209 185.5 386.5t326.5 280.5t383 103q120 0 213 -37l29 45q19 29 53 30.5t48 -21t-5 -60.5l-27 -41q126 -78 196.5 -214t70.5 -304q0 -84 -21 -187q-49 -209 -186 -386t-326 -279.5t-383 -102.5q-128 0 -244 50l-34 -58q-26 -43 -70 -36 q-33 5 -41 35q-7 22 10 48l39 64q-113 79 -176.5 209t-63.5 290zM301 446q0 -130 49 -235t139 -170l771 1227q-74 22 -152 22q-169 0 -335 -91t-287 -247.5t-164 -339.5q-21 -107 -21 -166zM588 -12q91 -33 182 -33q124 0 251 55.5t231.5 147.5t185 216.5t116.5 258.5v-2 q21 92 21 168q0 139 -56.5 249.5t-158.5 172.5z" />
<glyph unicode="&#xd9;" horiz-adv-x="1521" d="M-8 1063q0 112 62 208t163 151t213 55q107 0 194.5 -36t143.5 -102t82.5 -153t14 -195.5t-65.5 -222.5l-219 -473q-37 -79 -37 -162q0 -73 39.5 -117.5t128.5 -44.5q160 0 356 193q22 175 47 260q48 158 90 274.5t91.5 222t101.5 161t104 55.5q48 0 77.5 -44.5 t29.5 -105.5q0 -180 -128 -428.5t-311 -439.5q-6 -62 -6 -133q0 -85 12 -156.5t38 -132.5t74 -96t114 -35q58 0 102.5 18t69.5 47.5t38 61t15 63.5q3 40 -18 68q-15 19 -15.5 39t10 32.5t25.5 19t34 -0.5t34 -27q42 -52 39 -127q-1 -38 -13 -78t-38.5 -81.5t-64 -73.5 t-95 -52t-125.5 -20q-79 0 -140.5 29t-99.5 76.5t-62 115t-33 137.5t-9 152v47q-179 -149 -344 -149q-139 0 -208 77t-69 195q0 95 51 207l220 471q51 112 56 214.5t-31.5 177t-115 119t-186.5 44.5q-125 0 -226.5 -87.5t-101.5 -219.5q0 -101 57 -172.5t148 -71.5 q56 0 103 25t65 71q15 40 47.5 46.5t53.5 -19t8 -61.5q-26 -82 -103 -125t-174 -43q-129 0 -221 102t-92 250zM1114.5 1806.5q7.5 30.5 35 36.5t58.5 -18l199 -197l-2 2q29 -23 23.5 -55t-31.5 -40.5t-56 15.5l-206 201q-28 25 -20.5 55.5zM1209.5 350q-0.5 -8 1.5 -9t7 4 t13 15t20 27q183 254 236 459q3 11 8 36t9.5 57.5t1 56.5t-16.5 24q-42 0 -117.5 -181.5t-150.5 -437.5q-5 -20 -8 -31.5t-3.5 -19.5z" />
<glyph unicode="&#xda;" horiz-adv-x="1521" d="M-8 1063q0 112 62 208t163 151t213 55q107 0 194.5 -36t143.5 -102t82.5 -153t14 -195.5t-65.5 -222.5l-219 -473q-37 -79 -37 -162q0 -73 39.5 -117.5t128.5 -44.5q160 0 356 193q22 175 47 260q48 158 90 274.5t91.5 222t101.5 161t104 55.5q48 0 77.5 -44.5 t29.5 -105.5q0 -180 -128 -428.5t-311 -439.5q-6 -62 -6 -133q0 -85 12 -156.5t38 -132.5t74 -96t114 -35q58 0 102.5 18t69.5 47.5t38 61t15 63.5q3 40 -18 68q-15 19 -15.5 39t10 32.5t25.5 19t34 -0.5t34 -27q42 -52 39 -127q-1 -38 -13 -78t-38.5 -81.5t-64 -73.5 t-95 -52t-125.5 -20q-79 0 -140.5 29t-99.5 76.5t-62 115t-33 137.5t-9 152v47q-179 -149 -344 -149q-139 0 -208 77t-69 195q0 95 51 207l220 471q51 112 56 214.5t-31.5 177t-115 119t-186.5 44.5q-125 0 -226.5 -87.5t-101.5 -219.5q0 -101 57 -172.5t148 -71.5 q56 0 103 25t65 71q15 40 47.5 46.5t53.5 -19t8 -61.5q-26 -82 -103 -125t-174 -43q-129 0 -221 102t-92 250zM1209.5 350q-0.5 -8 1.5 -9t7 4t13 15t20 27q183 254 236 459q3 11 8 36t9.5 57.5t1 56.5t-16.5 24q-42 0 -117.5 -181.5t-150.5 -437.5q-5 -20 -8 -31.5 t-3.5 -19.5zM1242.5 1572.5q-5.5 15.5 1.5 34t26 31.5l284 201q34 25 62 11.5t27 -43.5t-31 -56h2l-285 -201q-19 -14 -38.5 -14.5t-31 10.5t-17 26.5z" />
<glyph unicode="&#xdb;" horiz-adv-x="1521" d="M-8 1063q0 112 62 208t163 151t213 55q107 0 194.5 -36t143.5 -102t82.5 -153t14 -195.5t-65.5 -222.5l-219 -473q-37 -79 -37 -162q0 -73 39.5 -117.5t128.5 -44.5q160 0 356 193q22 175 47 260q48 158 90 274.5t91.5 222t101.5 161t104 55.5q48 0 77.5 -44.5 t29.5 -105.5q0 -180 -128 -428.5t-311 -439.5q-6 -62 -6 -133q0 -85 12 -156.5t38 -132.5t74 -96t114 -35q58 0 102.5 18t69.5 47.5t38 61t15 63.5q3 40 -18 68q-15 19 -15.5 39t10 32.5t25.5 19t34 -0.5t34 -27q42 -52 39 -127q-1 -38 -13 -78t-38.5 -81.5t-64 -73.5 t-95 -52t-125.5 -20q-79 0 -140.5 29t-99.5 76.5t-62 115t-33 137.5t-9 152v47q-179 -149 -344 -149q-139 0 -208 77t-69 195q0 95 51 207l220 471q51 112 56 214.5t-31.5 177t-115 119t-186.5 44.5q-125 0 -226.5 -87.5t-101.5 -219.5q0 -101 57 -172.5t148 -71.5 q56 0 103 25t65 71q15 40 47.5 46.5t53.5 -19t8 -61.5q-26 -82 -103 -125t-174 -43q-129 0 -221 102t-92 250zM1097 1573.5q-5 15.5 2.5 34.5t24.5 32l262 187q19 16 45.5 15t38.5 -27l86 -187q20 -44 -10 -73q-26 -25 -55 -10q-16 8 -25 28l-45 98q-9 20 -20.5 22 t-30.5 -10l-186 -131q-22 -15 -41.5 -15.5t-30 10.5t-15.5 26.5zM1209.5 350q-0.5 -8 1.5 -9t7 4t13 15t20 27q183 254 236 459q3 11 8 36t9.5 57.5t1 56.5t-16.5 24q-42 0 -117.5 -181.5t-150.5 -437.5q-5 -20 -8 -31.5t-3.5 -19.5z" />
<glyph unicode="&#xdc;" horiz-adv-x="1521" d="M-8 1063q0 112 62 208t163 151t213 55q107 0 194.5 -36t143.5 -102t82.5 -153t14 -195.5t-65.5 -222.5l-219 -473q-37 -79 -37 -162q0 -73 39.5 -117.5t128.5 -44.5q160 0 356 193q22 175 47 260q48 158 90 274.5t91.5 222t101.5 161t104 55.5q48 0 77.5 -44.5 t29.5 -105.5q0 -180 -128 -428.5t-311 -439.5q-6 -62 -6 -133q0 -85 12 -156.5t38 -132.5t74 -96t114 -35q58 0 102.5 18t69.5 47.5t38 61t15 63.5q3 40 -18 68q-15 19 -15.5 39t10 32.5t25.5 19t34 -0.5t34 -27q42 -52 39 -127q-1 -38 -13 -78t-38.5 -81.5t-64 -73.5 t-95 -52t-125.5 -20q-79 0 -140.5 29t-99.5 76.5t-62 115t-33 137.5t-9 152v47q-179 -149 -344 -149q-139 0 -208 77t-69 195q0 95 51 207l220 471q51 112 56 214.5t-31.5 177t-115 119t-186.5 44.5q-125 0 -226.5 -87.5t-101.5 -219.5q0 -101 57 -172.5t148 -71.5 q56 0 103 25t65 71q15 40 47.5 46.5t53.5 -19t8 -61.5q-26 -82 -103 -125t-174 -43q-129 0 -221 102t-92 250zM1163 1544q5 31 31 54.5t57 23.5q34 0 56 -26t16 -60q-6 -32 -32 -54t-58 -22q-36 0 -56 25t-14 59zM1209.5 350q-0.5 -8 1.5 -9t7 4t13 15t20 27 q183 254 236 459q3 11 8 36t9.5 57.5t1 56.5t-16.5 24q-42 0 -117.5 -181.5t-150.5 -437.5q-5 -20 -8 -31.5t-3.5 -19.5zM1368 1544q5 31 31 54.5t57 23.5q34 0 56 -26t16 -60q-6 -32 -32 -54t-58 -22q-36 0 -56 25t-14 59z" />
<glyph unicode="&#xdd;" horiz-adv-x="1472" d="M35 1063q0 112 62 208t163 151t213 55q107 0 194.5 -36t143.5 -102t82.5 -153t14 -195.5t-65.5 -222.5l-160 -354q-37 -79 -37 -162q0 -69 42.5 -118t123.5 -46q82 3 156.5 37t128.5 87t91.5 106.5t63.5 109.5l303 659q22 47 64 50q35 2 48 -27q9 -22 -5 -53l-531 -1151 q-193 -420 -489 -420q-111 0 -189.5 56t-78.5 165q0 82 60 152t157 73q34 0 48 -25.5t0 -51t-48 -25.5q-46 -1 -76.5 -38.5t-30.5 -88.5q0 -46 39 -78.5t119 -32.5q99 0 203 95.5t178 238.5l68 133q6 11 8.5 18t1 9t-4 2.5t-8 -2.5t-10.5 -6t-12 -8q-53 -39 -121 -64 t-131 -28q-138 0 -207 77t-69 195q0 95 51 207l160 354q50 113 54.5 215.5t-31.5 177t-114 118.5t-186 44q-125 0 -226.5 -87.5t-101.5 -219.5q0 -101 57 -172.5t148 -71.5q56 0 103 25t65 71q15 40 47.5 46.5t53.5 -19t8 -61.5q-26 -82 -103 -125t-174 -43q-129 0 -221 102 t-92 250zM1293.5 1572.5q-5.5 15.5 1.5 34t26 31.5l285 201q34 25 62 11.5t26.5 -43.5t-31.5 -56h2l-285 -201q-19 -14 -38.5 -14.5t-31 10.5t-17 26.5z" />
<glyph unicode="&#xde;" horiz-adv-x="1890" d="M-106 -138q20 28 54 18.5t48 -52.5q12 -40 69 -66t136 -26q251 0 422 219q85 108 190 335q7 16 22 49q26 56 39 83q6 13 59 128t91.5 193t94.5 187t105.5 185t88.5 112q19 17 14 28.5t-41 18.5q-49 10 -102 10q-197 0 -328 -136.5t-131 -338.5q0 -71 18 -129 q16 -34 -6 -61t-57 -22.5t-49 46.5q-27 82 -27 166q0 160 76.5 294.5t210 213t293.5 78.5q148 0 262 -41q36 -13 54 -32.5t17 -39t-8 -35t-18 -26.5q-78 -61 -134 -123t-73 -90q-8 -12 -123 -244q-2 -5 -6.5 -13.5t-6.5 -12.5t-4 -9t0 -6t5.5 -0.5t12 5.5t20.5 13 q123 86 252 86q92 0 166.5 -29.5t120.5 -79t70 -110.5t24 -127q0 -97 -49 -194t-131 -173t-198.5 -123.5t-242.5 -47.5q-154 0 -348 86q-21 7 -27 22q-43 -76 -85.5 -135.5t-99.5 -116t-119 -93.5t-142.5 -59t-171.5 -22q-109 0 -193.5 44t-113.5 116q-20 49 0 77zM860 127 q14 3 37 -4q165 -68 291 -68q104 0 200 37.5t163 97t107 136.5t40 155q0 102 -70.5 169t-193.5 67q-270 0 -506 -447z" />
<glyph unicode="&#xdf;" horiz-adv-x="671" d="M-238.5 1.5q-13.5 26.5 1 53.5t47.5 27q30 0 57 15.5t49 46t33.5 50.5t27.5 52l318 694q90 197 216 315.5t282 118.5q136 0 202 -64t66 -159q0 -36 -10.5 -68t-26 -56t-43 -47t-51.5 -38t-62 -31.5t-64 -26.5t-67 -24q-30 -11 -41.5 -15t-47 -19t-54 -25.5t-47.5 -29.5 t-44.5 -36t-27.5 -40.5t-12 -47.5q0 -50 45 -159t45 -160q0 -85 -46.5 -167.5t-127.5 -136t-172 -53.5q-55 0 -101 19q-22 10 -38 20q-35 21 -31 55t32.5 46t59.5 -7q11 -9 33 -16q21 -6 51 -6q93 0 161 73.5t68 174.5q0 54 -44 159.5t-44 163.5q0 34 10.5 65t25.5 54 t43.5 46t51 38t61.5 33.5t62.5 28t65.5 26.5q54 21 81.5 32t71 33t65.5 40.5t39.5 46t18.5 57.5q2 47 -38 81t-119 34q-105 0 -206.5 -88t-172.5 -246l-332 -731q-116 -228 -272 -228q-35 0 -48.5 26.5zM432.5 1.5q-13.5 26.5 0 53.5t46.5 27q26 0 51.5 14t41.5 30t34 44.5 t24 40t17 33.5q16 28 45 31.5t47 -17.5t6 -53q-15 -34 -39 -71t-57.5 -74t-78.5 -61t-91 -24q-33 0 -46.5 26.5z" />
<glyph unicode="&#xe0;" d="M-51 131q0 53 28 115l154 323q14 28 25 48.5t37 56.5t52.5 59t66.5 41.5t83 18.5q41 0 79 -17.5t52 -48.5q15 41 54 45q35 3 47 -24q9 -18 0 -43l-228 -502q-20 -44 -20 -74q0 -47 59 -47q26 0 51.5 14t41.5 30t34 44.5t24 40t17 33.5q16 28 45 31.5t47.5 -17.5t6.5 -53 q-15 -34 -39 -71t-58 -74t-79 -61t-91 -24q-111 0 -151 72q-69 -72 -158 -72q-84 0 -132 40t-48 116zM63.5 145q-1.5 -26 14.5 -44.5t51 -18.5q50 0 91 44t65 95l161 344q14 29 16.5 55t-13.5 46t-54 20q-14 0 -27.5 -4t-24 -9t-22.5 -15.5t-20 -18t-18 -22t-15 -22.5 t-14 -23.5t-11.5 -21t-10 -20.5t-7.5 -16l-147 -315q-13 -28 -14.5 -54zM332 1206.5q8 30.5 35.5 36.5t58.5 -18l199 -197l-2 2q29 -23 23.5 -55t-31.5 -40.5t-56 15.5l-207 201q-28 25 -20 55.5z" />
<glyph unicode="&#xe1;" d="M-51 131q0 53 28 115l154 323q14 28 25 48.5t37 56.5t52.5 59t66.5 41.5t83 18.5q41 0 79 -17.5t52 -48.5q15 41 54 45q35 3 47 -24q9 -18 0 -43l-228 -502q-20 -44 -20 -74q0 -47 59 -47q26 0 51.5 14t41.5 30t34 44.5t24 40t17 33.5q16 28 45 31.5t47.5 -17.5t6.5 -53 q-15 -34 -39 -71t-58 -74t-79 -61t-91 -24q-111 0 -151 72q-69 -72 -158 -72q-84 0 -132 40t-48 116zM63.5 145q-1.5 -26 14.5 -44.5t51 -18.5q50 0 91 44t65 95l161 344q14 29 16.5 55t-13.5 46t-54 20q-14 0 -27.5 -4t-24 -9t-22.5 -15.5t-20 -18t-18 -22t-15 -22.5 t-14 -23.5t-11.5 -21t-10 -20.5t-7.5 -16l-147 -315q-13 -28 -14.5 -54zM347.5 972.5q-5.5 15.5 1.5 34t26 31.5l284 201q34 25 62 11.5t27 -43.5t-31 -56h2l-285 -201q-19 -14 -38.5 -14.5t-31 10.5t-17 26.5z" />
<glyph unicode="&#xe2;" d="M-51 131q0 53 28 115l154 323q14 28 25 48.5t37 56.5t52.5 59t66.5 41.5t83 18.5q41 0 79 -17.5t52 -48.5q15 41 54 45q35 3 47 -24q9 -18 0 -43l-228 -502q-20 -44 -20 -74q0 -47 59 -47q26 0 51.5 14t41.5 30t34 44.5t24 40t17 33.5q16 28 45 31.5t47.5 -17.5t6.5 -53 q-15 -34 -39 -71t-58 -74t-79 -61t-91 -24q-111 0 -151 72q-69 -72 -158 -72q-84 0 -132 40t-48 116zM63.5 145q-1.5 -26 14.5 -44.5t51 -18.5q50 0 91 44t65 95l161 344q14 29 16.5 55t-13.5 46t-54 20q-14 0 -27.5 -4t-24 -9t-22.5 -15.5t-20 -18t-18 -22t-15 -22.5 t-14 -23.5t-11.5 -21t-10 -20.5t-7.5 -16l-147 -315q-13 -28 -14.5 -54zM284 973.5q-5 15.5 2.5 34.5t24.5 32l262 187q19 16 45.5 14.5t38.5 -27.5l86 -186q20 -44 -10 -73q-26 -25 -55 -10q-16 8 -25 28l-45 98q-9 20 -20.5 22t-30.5 -10l-186 -131q-22 -15 -41.5 -15.5 t-30 10.5t-15.5 26.5z" />
<glyph unicode="&#xe3;" d="M-51 131q0 53 28 115l154 323q14 28 25 48.5t37 56.5t52.5 59t66.5 41.5t83 18.5q41 0 79 -17.5t52 -48.5q15 41 54 45q35 3 47 -24q9 -18 0 -43l-228 -502q-20 -44 -20 -74q0 -47 59 -47q26 0 51.5 14t41.5 30t34 44.5t24 40t17 33.5q16 28 45 31.5t47.5 -17.5t6.5 -53 q-15 -34 -39 -71t-58 -74t-79 -61t-91 -24q-111 0 -151 72q-69 -72 -158 -72q-84 0 -132 40t-48 116zM63.5 145q-1.5 -26 14.5 -44.5t51 -18.5q50 0 91 44t65 95l161 344q14 29 16.5 55t-13.5 46t-54 20q-14 0 -27.5 -4t-24 -9t-22.5 -15.5t-20 -18t-18 -22t-15 -22.5 t-14 -23.5t-11.5 -21t-10 -20.5t-7.5 -16l-147 -315q-13 -28 -14.5 -54zM319 901q-6 15 1 34t26 34q49 39 103 39q31 0 92 -27q51 -27 90 -8q31 16 54 0.5t22 -44t-29 -46.5q-48 -29 -86 -29q-40 0 -88 25q-21 10 -33.5 14.5t-30.5 4t-32 -12.5q-19 -15 -39 -16.5t-32 8 t-18 24.5z" />
<glyph unicode="&#xe4;" d="M-51 131q0 53 28 115l154 323q14 28 25 48.5t37 56.5t52.5 59t66.5 41.5t83 18.5q41 0 79 -17.5t52 -48.5q15 41 54 45q35 3 47 -24q9 -18 0 -43l-228 -502q-20 -44 -20 -74q0 -47 59 -47q26 0 51.5 14t41.5 30t34 44.5t24 40t17 33.5q16 28 45 31.5t47.5 -17.5t6.5 -53 q-15 -34 -39 -71t-58 -74t-79 -61t-91 -24q-111 0 -151 72q-69 -72 -158 -72q-84 0 -132 40t-48 116zM63.5 145q-1.5 -26 14.5 -44.5t51 -18.5q50 0 91 44t65 95l161 344q14 29 16.5 55t-13.5 46t-54 20q-14 0 -27.5 -4t-24 -9t-22.5 -15.5t-20 -18t-18 -22t-15 -22.5 t-14 -23.5t-11.5 -21t-10 -20.5t-7.5 -16l-147 -315q-13 -28 -14.5 -54zM332 944q5 31 31 54.5t57 23.5q34 0 56 -26t16 -60q-6 -32 -32.5 -54t-58.5 -22q-36 0 -55.5 25t-13.5 59zM537 944q5 31 31 54.5t57 23.5q34 0 55.5 -26t15.5 -60q-6 -32 -32 -54t-58 -22 q-36 0 -55.5 25t-13.5 59z" />
<glyph unicode="&#xe5;" d="M-51 131q0 53 28 115l154 323q14 28 25 48.5t37 56.5t52.5 59t66.5 41.5t83 18.5q41 0 79 -17.5t52 -48.5q15 41 54 45q35 3 47 -24q9 -18 0 -43l-228 -502q-20 -44 -20 -74q0 -47 59 -47q26 0 51.5 14t41.5 30t34 44.5t24 40t17 33.5q16 28 45 31.5t47.5 -17.5t6.5 -53 q-15 -34 -39 -71t-58 -74t-79 -61t-91 -24q-111 0 -151 72q-69 -72 -158 -72q-84 0 -132 40t-48 116zM63.5 145q-1.5 -26 14.5 -44.5t51 -18.5q50 0 91 44t65 95l161 344q14 29 16.5 55t-13.5 46t-54 20q-14 0 -27.5 -4t-24 -9t-22.5 -15.5t-20 -18t-18 -22t-15 -22.5 t-14 -23.5t-11.5 -21t-10 -20.5t-7.5 -16l-147 -315q-13 -28 -14.5 -54zM385 1004q0 79 65 142.5t150 63.5q62 0 101.5 -41.5t39.5 -103.5q0 -80 -66.5 -143.5t-144.5 -63.5q-64 0 -104.5 42t-40.5 104zM494 1010q0 -21 13 -34t36 -13q34 0 63 26.5t29 61.5q0 23 -13 37 t-34 16q-35 2 -64.5 -26.5t-29.5 -67.5z" />
<glyph unicode="&#xe6;" horiz-adv-x="798" d="M-51 131q0 55 28 115l15 30q40 82 113 130.5t157 48.5q121 0 148 41l34 71q21 47 21 70q0 24 -19 36.5t-51 12.5q-61 0 -104 -70q-25 -41 -64 -33q-32 7 -40 41q-6 28 12 62q23 41 83.5 74t112.5 33q113 0 156 -70q74 70 154 70q75 0 116 -37.5t41 -102.5q0 -45 -16 -88 q-49 -127 -119 -185t-170 -58q-19 0 -59 8q-42 12 -56 -25q-32 -79 -32 -121q0 -99 122 -102q80 0 146 53.5t100 112.5q18 35 48.5 37.5t47 -22.5t0.5 -58q-45 -93 -139 -161.5t-203 -68.5q-81 0 -140 30t-85 87q-73 -117 -178 -117q-82 0 -131 40t-49 116zM59 131 q0 -24 19 -36.5t51 -12.5q26 0 50.5 13.5t42 32t34 44.5t25 43.5t16.5 36.5l45 96q-23 -4 -80 -4q-54 0 -98 -31.5t-70 -83.5l-14 -28q-21 -47 -21 -70zM528.5 453q8.5 -19 42.5 -19q52 0 89 34.5t67 106.5q41 103 -22 111q-82 11 -148 -139l-27 -60q-10 -15 -1.5 -34z" />
<glyph unicode="&#xe7;" horiz-adv-x="475" d="M-72 -285q0 23 14.5 40.5t39.5 17.5q12 0 32.5 -9.5t28.5 -9.5q22 0 37.5 15.5t15.5 37.5q0 26 -22.5 74.5t-22.5 77.5v18v14.5v10.5t-1.5 9t-4 7t-6.5 7q-70 60 -70 149q0 67 45 162l111 233q105 224 256 224q76 0 122 -38.5t46 -103.5q0 -58 -37 -133q-22 -44 -65 -44 q-37 -1 -50 29q-11 24 6 56q29 60 29 92q0 14 -13.5 24.5t-37.5 10.5t-46.5 -12.5t-36.5 -26t-32 -43t-24 -42.5t-21 -44l-106 -225q-29 -62 -29 -109q0 -49 32 -75.5t91 -26.5q80 0 146 53.5t100 112.5q17 29 45.5 31.5t45.5 -20t3 -54.5q-39 -93 -134.5 -161.5 t-205.5 -68.5q-1 0 -8.5 0.5t-13 0.5t-12 -1.5t-10 -5.5t-3.5 -10q0 -26 22.5 -74t22.5 -78q0 -67 -48 -115t-116 -48q-39 0 -77 18t-38 53z" />
<glyph unicode="&#xe8;" horiz-adv-x="475" d="M-31 174q0 67 45 162l111 233q105 224 256 224q76 0 117 -37.5t41 -102.5q0 -42 -17 -88q-49 -127 -119 -185t-170 -58q-19 0 -59 8q-41 12 -55 -25q-33 -82 -33 -121q0 -99 123 -102q80 0 146 53.5t100 112.5q18 35 48.5 37.5t47 -22.5t0.5 -58q-45 -93 -139 -161.5 t-203 -68.5q-107 0 -173.5 52t-66.5 147zM205.5 453q8.5 -19 42.5 -19q51 0 88 34.5t67 106.5q41 103 -22 111q-82 11 -148 -139l-26 -60q-10 -15 -1.5 -34zM297 1206.5q8 30.5 35.5 36.5t58.5 -18l199 -197l-2 2q29 -23 23.5 -55t-31.5 -40.5t-56 15.5l-207 201 q-28 25 -20 55.5z" />
<glyph unicode="&#xe9;" horiz-adv-x="475" d="M-31 174q0 67 45 162l111 233q105 224 256 224q76 0 117 -37.5t41 -102.5q0 -42 -17 -88q-49 -127 -119 -185t-170 -58q-19 0 -59 8q-41 12 -55 -25q-33 -82 -33 -121q0 -99 123 -102q80 0 146 53.5t100 112.5q18 35 48.5 37.5t47 -22.5t0.5 -58q-45 -93 -139 -161.5 t-203 -68.5q-107 0 -173.5 52t-66.5 147zM205.5 453q8.5 -19 42.5 -19q51 0 88 34.5t67 106.5q41 103 -22 111q-82 11 -148 -139l-26 -60q-10 -15 -1.5 -34zM339.5 972.5q-5.5 15.5 1.5 34t26 31.5l284 201q34 25 62 11.5t27 -43.5t-31 -56h2l-285 -201q-19 -14 -38.5 -14.5 t-31 10.5t-17 26.5z" />
<glyph unicode="&#xea;" horiz-adv-x="475" d="M-31 174q0 67 45 162l111 233q105 224 256 224q76 0 117 -37.5t41 -102.5q0 -42 -17 -88q-49 -127 -119 -185t-170 -58q-19 0 -59 8q-41 12 -55 -25q-33 -82 -33 -121q0 -99 123 -102q80 0 146 53.5t100 112.5q18 35 48.5 37.5t47 -22.5t0.5 -58q-45 -93 -139 -161.5 t-203 -68.5q-107 0 -173.5 52t-66.5 147zM205.5 453q8.5 -19 42.5 -19q51 0 88 34.5t67 106.5q41 103 -22 111q-82 11 -148 -139l-26 -60q-10 -15 -1.5 -34zM235 973.5q-5 15.5 2.5 34.5t24.5 32l262 187q19 16 45.5 14.5t38.5 -27.5l86 -186q20 -44 -10 -73 q-26 -25 -55 -10q-16 8 -25 28l-45 98q-9 20 -20.5 22t-30.5 -10l-186 -131q-22 -15 -41.5 -15.5t-30 10.5t-15.5 26.5z" />
<glyph unicode="&#xeb;" horiz-adv-x="475" d="M-31 174q0 67 45 162l111 233q105 224 256 224q76 0 117 -37.5t41 -102.5q0 -42 -17 -88q-49 -127 -119 -185t-170 -58q-19 0 -59 8q-41 12 -55 -25q-33 -82 -33 -121q0 -99 123 -102q80 0 146 53.5t100 112.5q18 35 48.5 37.5t47 -22.5t0.5 -58q-45 -93 -139 -161.5 t-203 -68.5q-107 0 -173.5 52t-66.5 147zM205.5 453q8.5 -19 42.5 -19q51 0 88 34.5t67 106.5q41 103 -22 111q-82 11 -148 -139l-26 -60q-10 -15 -1.5 -34zM287 944q5 31 31 54.5t57 23.5q34 0 55.5 -26t15.5 -60q-6 -32 -32 -54t-58 -22q-36 0 -55.5 25t-13.5 59zM492 944 q5 31 31 54.5t57 23.5q34 0 55.5 -26t15.5 -60q-6 -32 -32 -54t-58 -22q-36 0 -55.5 25t-13.5 59z" />
<glyph unicode="&#xec;" horiz-adv-x="309" d="M-51 129q0 41 31 115l225 501q15 33 47 37t51.5 -19.5t3.5 -57.5l-229 -500q-9 -19 -13.5 -39t-3 -39.5t16 -32t41.5 -12.5q26 0 51.5 14t41.5 30t34 44.5t24 40t17 33.5q16 28 45 31.5t47 -17.5t6 -53q-15 -34 -39 -71t-57.5 -74t-78.5 -61t-91 -24q-81 0 -125.5 38.5 t-44.5 115.5zM148 1206.5q8 30.5 35.5 36.5t58.5 -18l198 -197l-2 2q29 -23 24 -55t-31 -40.5t-56 15.5l-207 201q-28 25 -20 55.5z" />
<glyph unicode="&#xed;" horiz-adv-x="309" d="M-51 129q0 41 31 115l225 501q15 33 47 37t51.5 -19.5t3.5 -57.5l-229 -500q-9 -19 -13.5 -39t-3 -39.5t16 -32t41.5 -12.5q26 0 51.5 14t41.5 30t34 44.5t24 40t17 33.5q16 28 45 31.5t47 -17.5t6 -53q-15 -34 -39 -71t-57.5 -74t-78.5 -61t-91 -24q-81 0 -125.5 38.5 t-44.5 115.5zM314.5 972.5q-5.5 15.5 1.5 34t26 31.5l285 201q34 25 62 11.5t26.5 -43.5t-31.5 -56h2l-285 -201q-19 -14 -38.5 -14.5t-31 10.5t-17 26.5z" />
<glyph unicode="&#xee;" horiz-adv-x="309" d="M-51 129q0 41 31 115l225 501q15 33 47 37t51.5 -19.5t3.5 -57.5l-229 -500q-9 -19 -13.5 -39t-3 -39.5t16 -32t41.5 -12.5q26 0 51.5 14t41.5 30t34 44.5t24 40t17 33.5q16 28 45 31.5t47 -17.5t6 -53q-15 -34 -39 -71t-57.5 -74t-78.5 -61t-91 -24q-81 0 -125.5 38.5 t-44.5 115.5zM101.5 973.5q-4.5 15.5 3 34.5t24.5 32l262 187q19 16 45.5 14.5t38.5 -27.5l86 -186q20 -44 -10 -73q-26 -25 -55 -10q-16 8 -25 28l-45 98q-9 20 -20.5 22t-30.5 -10l-187 -131q-22 -15 -41.5 -15.5t-30 10.5t-15 26.5z" />
<glyph unicode="&#xef;" horiz-adv-x="309" d="M-51 129q0 41 31 115l225 501q15 33 47 37t51.5 -19.5t3.5 -57.5l-229 -500q-9 -19 -13.5 -39t-3 -39.5t16 -32t41.5 -12.5q26 0 51.5 14t41.5 30t34 44.5t24 40t17 33.5q16 28 45 31.5t47 -17.5t6 -53q-15 -34 -39 -71t-57.5 -74t-78.5 -61t-91 -24q-81 0 -125.5 38.5 t-44.5 115.5zM141 983q5 31 31 54.5t57 23.5q34 0 56 -26t16 -60q-6 -32 -32 -54t-58 -22q-36 0 -56 25t-14 59zM346 983q5 31 31 54.5t57 23.5q34 0 56 -26t16 -60q-6 -32 -32 -54t-58 -22q-36 0 -56 25t-14 59z" />
<glyph unicode="&#xf0;" horiz-adv-x="550" d="M-51 131q0 51 28 115l152 323q12 26 25 49.5t38.5 57.5t53 58t67 41.5t82.5 17.5q51 0 97 -19l8 -8q6 44 6 82q0 50 -10 98l-80 -49q-33 -22 -61.5 -8.5t-27 43t34.5 55.5l91 53q-18 23 -54 47q-39 22 -37.5 55.5t32.5 45t69 -7.5q50 -23 88 -80q57 33 98 55q27 15 46 7 t29.5 -24t5 -38t-27.5 -35q-102 -60 -108 -64q20 -67 20 -149q0 -91 -22.5 -187.5t-59.5 -172.5l-137 -293q-12 -26 -25 -49.5t-38.5 -57.5t-53 -58t-67 -41.5t-82.5 -17.5q-82 0 -131 40t-49 116zM62.5 146q-3.5 -25 12.5 -44.5t54 -19.5q86 0 164 163q3 5 4 7l139 299 q26 57 41 121q-21 -8 -31 2q-21 12 -51 12q-86 0 -164 -163q-3 -5 -4 -7l-147 -315q-14 -30 -17.5 -55z" />
<glyph unicode="&#xf1;" horiz-adv-x="626" d="M-239 28.5q1 20.5 14 37t35 16.5q26 0 50 12t40 27.5t33 41.5t24.5 41t19.5 40l232 504q17 36 53 36q42 0 47 -41q11 16 40.5 31.5t58.5 18.5q74 6 120.5 -37.5t46.5 -118.5q0 -21 -9 -57t-21 -60l-148 -317q-20 -44 -20 -74q0 -47 59 -47q26 0 51.5 14t41.5 30t34 44.5 t24 40t17 33.5q16 28 45 31.5t47 -17.5t6 -53q-15 -34 -39 -71t-57.5 -74t-78.5 -61t-91 -24q-81 0 -125.5 38.5t-44.5 115.5q0 52 31 119l149 321q19 47 19 68q0 22 -16 35.5t-43 13.5q-55 0 -102.5 -46.5t-67.5 -92.5l-156 -344q-14 -32 -36 -66t-55.5 -73t-80.5 -64 t-98 -25q-24 0 -37 16.5t-12 37zM257.5 912q-0.5 29 29.5 57q49 39 102 39q31 0 92 -27q51 -27 90 -8q31 16 54 0.5t22 -44t-29 -46.5q-48 -29 -86 -29q-40 0 -88 25q-21 10 -33.5 14.5t-30.5 4t-32 -12.5q-32 -25 -61 -13.5t-29.5 40.5z" />
<glyph unicode="&#xf2;" horiz-adv-x="550" d="M-51 131q0 53 28 115l154 323q14 28 25 48.5t37 56.5t52.5 59t66.5 41.5t83 18.5q84 0 132 -40t48 -116q0 -21 -9 -57t-21 -60l-152 -321q-14 -28 -25 -48.5t-37 -56.5t-52.5 -59t-66.5 -41.5t-83 -18.5q-84 0 -132 40t-48 116zM59 131q0 -24 19 -36.5t51 -12.5 q26 0 51.5 14.5t41 29.5t35 46t24.5 41t18 37l147 319q14 30 16.5 55t-13.5 43.5t-54 18.5q-14 0 -27.5 -4t-24 -9t-22.5 -15.5t-20 -18t-18 -22t-15 -22.5t-14 -23.5t-11.5 -21t-10 -20.5t-7.5 -16l-147 -315q-19 -40 -19 -68zM332 1206.5q8 30.5 35.5 36.5t58.5 -18 l199 -197l-2 2q29 -23 23.5 -55t-31.5 -40.5t-56 15.5l-207 201q-28 25 -20 55.5z" />
<glyph unicode="&#xf3;" horiz-adv-x="550" d="M-51 131q0 53 28 115l154 323q14 28 25 48.5t37 56.5t52.5 59t66.5 41.5t83 18.5q84 0 132 -40t48 -116q0 -21 -9 -57t-21 -60l-152 -321q-14 -28 -25 -48.5t-37 -56.5t-52.5 -59t-66.5 -41.5t-83 -18.5q-84 0 -132 40t-48 116zM59 131q0 -24 19 -36.5t51 -12.5 q26 0 51.5 14.5t41 29.5t35 46t24.5 41t18 37l147 319q14 30 16.5 55t-13.5 43.5t-54 18.5q-14 0 -27.5 -4t-24 -9t-22.5 -15.5t-20 -18t-18 -22t-15 -22.5t-14 -23.5t-11.5 -21t-10 -20.5t-7.5 -16l-147 -315q-19 -40 -19 -68zM341.5 972.5q-5.5 15.5 1.5 34t26 31.5 l284 201q34 25 62 11.5t27 -43.5t-31 -56h2l-285 -201q-19 -14 -38.5 -14.5t-31 10.5t-17 26.5z" />
<glyph unicode="&#xf4;" horiz-adv-x="550" d="M-51 131q0 53 28 115l154 323q14 28 25 48.5t37 56.5t52.5 59t66.5 41.5t83 18.5q84 0 132 -40t48 -116q0 -21 -9 -57t-21 -60l-152 -321q-14 -28 -25 -48.5t-37 -56.5t-52.5 -59t-66.5 -41.5t-83 -18.5q-84 0 -132 40t-48 116zM59 131q0 -24 19 -36.5t51 -12.5 q26 0 51.5 14.5t41 29.5t35 46t24.5 41t18 37l147 319q14 30 16.5 55t-13.5 43.5t-54 18.5q-14 0 -27.5 -4t-24 -9t-22.5 -15.5t-20 -18t-18 -22t-15 -22.5t-14 -23.5t-11.5 -21t-10 -20.5t-7.5 -16l-147 -315q-19 -40 -19 -68zM310.5 973.5q-4.5 15.5 3 34.5t24.5 32 l262 187q19 16 45.5 14.5t38.5 -27.5l86 -186q20 -44 -10 -73q-26 -25 -55 -10q-16 8 -25 28l-45 98q-9 20 -20.5 22t-30.5 -10l-187 -131q-22 -15 -41.5 -15.5t-30 10.5t-15 26.5z" />
<glyph unicode="&#xf5;" horiz-adv-x="550" d="M-51 131q0 53 28 115l154 323q14 28 25 48.5t37 56.5t52.5 59t66.5 41.5t83 18.5q84 0 132 -40t48 -116q0 -21 -9 -57t-21 -60l-152 -321q-14 -28 -25 -48.5t-37 -56.5t-52.5 -59t-66.5 -41.5t-83 -18.5q-84 0 -132 40t-48 116zM59 131q0 -24 19 -36.5t51 -12.5 q26 0 51.5 14.5t41 29.5t35 46t24.5 41t18 37l147 319q14 30 16.5 55t-13.5 43.5t-54 18.5q-14 0 -27.5 -4t-24 -9t-22.5 -15.5t-20 -18t-18 -22t-15 -22.5t-14 -23.5t-11.5 -21t-10 -20.5t-7.5 -16l-147 -315q-19 -40 -19 -68zM304.5 912q-0.5 29 29.5 57q49 39 102 39 q31 0 92 -27q51 -27 90 -8q31 16 54.5 0.5t22.5 -44t-29 -46.5q-48 -29 -86 -29q-40 0 -88 25q-21 10 -33.5 14.5t-31 4t-32.5 -12.5q-32 -25 -61 -13.5t-29.5 40.5z" />
<glyph unicode="&#xf6;" horiz-adv-x="550" d="M-51 131q0 53 28 115l154 323q14 28 25 48.5t37 56.5t52.5 59t66.5 41.5t83 18.5q84 0 132 -40t48 -116q0 -21 -9 -57t-21 -60l-152 -321q-14 -28 -25 -48.5t-37 -56.5t-52.5 -59t-66.5 -41.5t-83 -18.5q-84 0 -132 40t-48 116zM59 131q0 -24 19 -36.5t51 -12.5 q26 0 51.5 14.5t41 29.5t35 46t24.5 41t18 37l147 319q14 30 16.5 55t-13.5 43.5t-54 18.5q-14 0 -27.5 -4t-24 -9t-22.5 -15.5t-20 -18t-18 -22t-15 -22.5t-14 -23.5t-11.5 -21t-10 -20.5t-7.5 -16l-147 -315q-19 -40 -19 -68zM334 944q5 31 31 54.5t57 23.5q34 0 56 -26 t16 -60q-6 -32 -32.5 -54t-58.5 -22q-36 0 -55.5 25t-13.5 59zM539 944q5 31 31 54.5t57 23.5q34 0 55.5 -26t15.5 -60q-6 -32 -32 -54t-58 -22q-36 0 -55.5 25t-13.5 59z" />
<glyph unicode="&#xf7;" horiz-adv-x="1386" d="M334 5q8 15 26 15q9 -3 21 0q37 37 37 113q0 35 -15.5 117.5t-15.5 124.5q0 73 52.5 124.5t127.5 51.5q38 0 72 -24.5t41 -65.5q3 -17 -7 -26.5t-22 -7t-16 14.5q-7 23 -27 35t-41 12q-51 0 -84.5 -32.5t-33.5 -81.5q0 -36 12 -119.5t12 -124.5q0 -31 -6 -61 q-3 -12 -4.5 -20t-3.5 -15.5t-0.5 -12t0 -8.5t3 -6t4 -3.5t6.5 -2t8 -0.5h11.5h12.5q119 0 224 37.5t170 106t65 151.5q0 53 -34 85t-91 32t-93 -29q-24 -20 -38 5q-16 30 8 76q3 6 6 11q79 121 149 158q21 14 20.5 17.5t-18.5 13.5q-102 57 -174 57q-103 0 -168 -68 q-21 -24 -44 -11q-20 11 -11 33q3 8 10 15q88 88 213 88q59 0 132 -31t130.5 -68t126 -68t119.5 -31q94 0 140 63q22 23 43.5 5.5t1.5 -42.5q-29 -38 -77 -61t-108 -23q-93 0 -219 72q-45 27 -101 -17t-100 -116q27 10 56 10q81 0 131.5 -49t50.5 -127q0 -100 -73.5 -182.5 t-192.5 -128t-254 -45.5q-74 0 -144 18q-18 0 -26 15.5t0 30.5z" />
<glyph unicode="&#xf8;" horiz-adv-x="550" d="M-58 -71q-7 27 13 59l27 41q-33 41 -33 102q0 53 28 115l154 323q14 28 25 48.5t37 56.5t52.5 59t66.5 41.5t83 18.5q26 0 54 -7l40 66q23 36 67 32q37 -4 45 -33q6 -20 -9 -44l-47 -74q30 -37 30 -96q0 -21 -9 -57t-21 -60l-152 -321q-14 -28 -25 -48.5t-37 -56.5 t-52.5 -59t-66.5 -41.5t-83 -18.5q-14 0 -49 5l-23 -37q-30 -49 -73 -46q-33 2 -42 32zM59 131q0 -24 19 -36.5t51 -12.5q26 0 51.5 14.5t41 29.5t35 46t24.5 41t18 37l147 319q14 30 16.5 55t-13.5 43.5t-54 18.5q-14 0 -27.5 -4t-24 -9t-22.5 -15.5t-20 -18t-18 -22 t-15 -22.5t-14 -23.5t-11.5 -21t-10 -20.5t-7.5 -16l-147 -315q-19 -40 -19 -68z" />
<glyph unicode="&#xf9;" d="M-51 131q0 39 31 113l229 501q16 35 48 39.5t50.5 -21t1.5 -63.5l-231 -501q-19 -47 -19 -68q0 -24 19 -36.5t51 -12.5q49 0 93.5 46.5t68.5 98.5l235 518q15 35 47 40t51 -19t3 -61l-228 -502q-20 -44 -20 -74q0 -47 59 -47q26 0 51.5 14t41.5 30t34 44.5t24 40t17 33.5 q16 28 45 31.5t47.5 -17.5t6.5 -53q-15 -34 -39 -71t-58 -74t-79 -61t-91 -24q-111 0 -151 72q-69 -72 -158 -72q-84 0 -132 40t-48 116zM299 1206.5q8 30.5 35.5 36.5t58.5 -18l199 -197l-2 2q29 -23 23.5 -55t-31.5 -40.5t-56 15.5l-207 201q-28 25 -20 55.5z" />
<glyph unicode="&#xfa;" d="M-51 131q0 39 31 113l229 501q16 35 48 39.5t50.5 -21t1.5 -63.5l-231 -501q-19 -47 -19 -68q0 -24 19 -36.5t51 -12.5q49 0 93.5 46.5t68.5 98.5l235 518q15 35 47 40t51 -19t3 -61l-228 -502q-20 -44 -20 -74q0 -47 59 -47q26 0 51.5 14t41.5 30t34 44.5t24 40t17 33.5 q16 28 45 31.5t47.5 -17.5t6.5 -53q-15 -34 -39 -71t-58 -74t-79 -61t-91 -24q-111 0 -151 72q-69 -72 -158 -72q-84 0 -132 40t-48 116zM351.5 972.5q-5.5 15.5 1.5 34t26 31.5l285 201q34 25 62 11.5t26.5 -43.5t-31.5 -56h2l-285 -201q-19 -14 -38.5 -14.5t-31 10.5 t-17 26.5z" />
<glyph unicode="&#xfb;" d="M-51 131q0 39 31 113l229 501q16 35 48 39.5t50.5 -21t1.5 -63.5l-231 -501q-19 -47 -19 -68q0 -24 19 -36.5t51 -12.5q49 0 93.5 46.5t68.5 98.5l235 518q15 35 47 40t51 -19t3 -61l-228 -502q-20 -44 -20 -74q0 -47 59 -47q26 0 51.5 14t41.5 30t34 44.5t24 40t17 33.5 q16 28 45 31.5t47.5 -17.5t6.5 -53q-15 -34 -39 -71t-58 -74t-79 -61t-91 -24q-111 0 -151 72q-69 -72 -158 -72q-84 0 -132 40t-48 116zM259.5 973.5q-4.5 15.5 3 34.5t24.5 32l262 187q19 16 45.5 14.5t38.5 -27.5l86 -186q20 -44 -10 -73q-26 -25 -55 -10q-16 8 -25 28 l-45 98q-6 13 -13.5 18.5t-16.5 3.5t-22 -10l-186 -131q-22 -15 -41.5 -15.5t-30 10.5t-15 26.5z" />
<glyph unicode="&#xfc;" d="M-51 131q0 39 31 113l229 501q16 35 48 39.5t50.5 -21t1.5 -63.5l-231 -501q-19 -47 -19 -68q0 -24 19 -36.5t51 -12.5q49 0 93.5 46.5t68.5 98.5l235 518q15 35 47 40t51 -19t3 -61l-228 -502q-20 -44 -20 -74q0 -47 59 -47q26 0 51.5 14t41.5 30t34 44.5t24 40t17 33.5 q16 28 45 31.5t47.5 -17.5t6.5 -53q-15 -34 -39 -71t-58 -74t-79 -61t-91 -24q-111 0 -151 72q-69 -72 -158 -72q-84 0 -132 40t-48 116zM317 944q5 31 31.5 54.5t57.5 23.5q34 0 55.5 -26t15.5 -60q-6 -32 -32 -54t-58 -22q-36 0 -56 25t-14 59zM522 944q5 31 31 54.5 t57 23.5q34 0 56 -26t16 -60q-6 -32 -32 -54t-58 -22q-36 0 -56 25t-14 59z" />
<glyph unicode="&#xfd;" horiz-adv-x="595" d="M-483 -289q0 80 61 151.5t160 74.5q22 1 37 -10t18 -27.5t-0.5 -32.5t-18.5 -27t-36 -10q-52 -4 -81.5 -41t-29.5 -78q0 -50 38 -83.5t120 -33.5q106 0 207.5 95t171.5 262l12 29q-35 -5 -47 -5q-84 0 -132 40t-48 116q0 57 31 115v-2l229 501q15 33 47 39t51 -18t2 -61 l-231 -506q-19 -47 -19 -68q0 -24 19 -36.5t51 -12.5q26 0 51.5 14t42 30.5t35 45t25 41t16.5 33.5v-2l227 501q15 33 47.5 39t51.5 -18t2 -61l-353 -771q-193 -446 -489 -446q-134 0 -201 64t-67 159zM359.5 1.5q-13.5 26.5 0 53.5t46.5 27q26 0 51.5 14.5t41 29.5t34 44.5 t23.5 39.5l17 34q16 28 45 31.5t47.5 -17.5t6.5 -53q-15 -34 -39 -71t-57.5 -74t-78.5 -61t-91 -24q-33 0 -46.5 26.5zM407 972.5q-6 15.5 1 34t26 31.5l285 201q34 25 62 11.5t26.5 -43.5t-31.5 -56h2l-284 -201q-19 -14 -38.5 -14.5t-31 10.5t-17.5 26.5z" />
<glyph unicode="&#xfe;" horiz-adv-x="565" d="M-350 -465l751 1634q23 50 64 49q29 -1 38 -26q5 -14 -1 -29l-197 -428q-1 -6 1 -6t7 6q21 25 50 41.5t55 16.5q155 0 155 -156q0 -29 -30 -117l-152 -321q-103 -224 -264 -224q-83 0 -131 48q-97 -214 -119 -259v3l-121 -273q-18 -40 -52.5 -47t-53.5 20t0 68zM63 110 q15 -28 64 -28q26 0 51.5 14.5t41 29.5t35 46t24.5 41t18 37l147 319q19 47 19 68q0 49 -62 49q-52 0 -96 -44.5t-72 -100.5v2l-167 -371q-18 -34 -3 -62zM331 1.5q-13 26.5 0 53.5t44 27q26 0 51.5 14t41.5 30t34 44.5t24 40t17 33.5q16 28 45 31.5t47 -17.5t6 -53 q-15 -34 -39 -71t-57.5 -74t-78.5 -61t-91 -24q-31 0 -44 26.5z" />
<glyph unicode="&#xff;" horiz-adv-x="595" d="M-483 -289q0 80 61 151.5t160 74.5q22 1 37 -10t18 -27.5t-0.5 -32.5t-18.5 -27t-36 -10q-52 -4 -81.5 -41t-29.5 -78q0 -50 38 -83.5t120 -33.5q106 0 207.5 95t171.5 262l12 29q-35 -5 -47 -5q-84 0 -132 40t-48 116q0 57 31 115v-2l229 501q15 33 47 39t51 -18t2 -61 l-231 -506q-19 -47 -19 -68q0 -24 19 -36.5t51 -12.5q26 0 51.5 14t42 30.5t35 45t25 41t16.5 33.5v-2l227 501q15 33 47.5 39t51.5 -18t2 -61l-353 -771q-193 -446 -489 -446q-134 0 -201 64t-67 159zM311 944q5 31 31 54.5t57 23.5q34 0 56 -26t16 -60q-6 -32 -32 -54 t-58 -22q-36 0 -56 25t-14 59zM359.5 1.5q-13.5 26.5 0 53.5t46.5 27q26 0 51.5 14.5t41 29.5t34 44.5t23.5 39.5l17 34q16 28 45 31.5t47.5 -17.5t6.5 -53q-15 -34 -39 -71t-57.5 -74t-78.5 -61t-91 -24q-33 0 -46.5 26.5zM516 944q5 31 31 54.5t57 23.5q34 0 56 -26 t16 -60q-6 -32 -32 -54t-58 -22q-36 0 -56 25t-14 59z" />
<glyph unicode="&#x152;" horiz-adv-x="608" />
<glyph unicode="&#x153;" horiz-adv-x="798" d="M-51 131q0 53 28 115l154 323q14 28 25 48.5t37 56.5t52.5 59t66.5 41.5t83 18.5q110 0 158 -70q70 70 154 70q75 0 116 -37.5t41 -102.5q0 -45 -16 -88q-49 -127 -119 -185t-170 -58q-19 0 -59 8q-42 12 -56 -25q-32 -79 -32 -121q0 -99 123 -102q80 0 145.5 53.5 t99.5 112.5q18 35 48.5 37.5t47.5 -22.5t1 -58q-45 -93 -139 -161.5t-203 -68.5q-75 0 -132 26.5t-86 76.5q-81 -103 -188 -103q-84 0 -132 40t-48 116zM59 131q0 -24 19 -36.5t51 -12.5q26 0 51.5 14.5t41 29.5t35 46t24.5 41t18 37l147 319q14 30 16.5 55t-13.5 43.5 t-54 18.5q-14 0 -27.5 -4t-24 -9t-22.5 -15.5t-20 -18t-18 -22t-15 -22.5t-14 -23.5t-11.5 -21t-10 -20.5t-7.5 -16l-147 -315q-19 -40 -19 -68zM530.5 453q8.5 -19 42.5 -19q52 0 89 34.5t67 106.5q41 103 -22 111q-82 11 -148 -139l-27 -60q-10 -15 -1.5 -34z" />
<glyph unicode="&#x178;" horiz-adv-x="1472" d="M35 1063q0 112 62 208t163 151t213 55q107 0 194.5 -36t143.5 -102t82.5 -153t14 -195.5t-65.5 -222.5l-160 -354q-37 -79 -37 -162q0 -69 42.5 -118t123.5 -46q82 3 156.5 37t128.5 87t91.5 106.5t63.5 109.5l303 659q22 47 64 50q35 2 48 -27q9 -22 -5 -53l-531 -1151 q-193 -420 -489 -420q-111 0 -189.5 56t-78.5 165q0 82 60 152t157 73q34 0 48 -25.5t0 -51t-48 -25.5q-46 -1 -76.5 -38.5t-30.5 -88.5q0 -46 39 -78.5t119 -32.5q99 0 203 95.5t178 238.5l68 133q6 11 8.5 18t1 9t-4 2.5t-8 -2.5t-10.5 -6t-12 -8q-53 -39 -121 -64 t-131 -28q-138 0 -207 77t-69 195q0 95 51 207l160 354q50 113 54.5 215.5t-31.5 177t-114 118.5t-186 44q-125 0 -226.5 -87.5t-101.5 -219.5q0 -101 57 -172.5t148 -71.5q56 0 103 25t65 71q15 40 47.5 46.5t53.5 -19t8 -61.5q-26 -82 -103 -125t-174 -43q-129 0 -221 102 t-92 250zM1210 1544q5 31 31 54.5t57 23.5q34 0 56 -26t16 -60q-6 -32 -32 -54t-58 -22q-36 0 -56 25t-14 59zM1415 1544q5 31 31 54.5t57 23.5q34 0 56 -26t16 -60q-6 -32 -32 -54t-58 -22q-36 0 -56 25t-14 59z" />
<glyph unicode="&#x2c6;" horiz-adv-x="671" d="M212.5 973.5q-4.5 15.5 3 34.5t24.5 32l262 187q19 16 45.5 14.5t38.5 -27.5l86 -186q20 -44 -10 -73q-26 -25 -55 -10q-16 8 -25 28l-45 98q-6 13 -13.5 18.5t-16.5 3.5t-22 -10l-186 -131q-22 -15 -41.5 -15.5t-30 10.5t-15 26.5z" />
<glyph unicode="&#x2dc;" horiz-adv-x="514" d="M257.5 912q-0.5 29 29.5 57q49 39 102 39q31 0 92 -27q51 -27 90 -8q31 16 54 0.5t22 -44t-29 -46.5q-48 -29 -86 -29q-40 0 -88 25q-21 10 -33.5 14.5t-30.5 4t-32 -12.5q-32 -25 -61 -13.5t-29.5 40.5z" />
<glyph unicode="&#x2000;" horiz-adv-x="927" />
<glyph unicode="&#x2001;" horiz-adv-x="1855" />
<glyph unicode="&#x2002;" horiz-adv-x="927" />
<glyph unicode="&#x2003;" horiz-adv-x="1855" />
<glyph unicode="&#x2004;" horiz-adv-x="618" />
<glyph unicode="&#x2005;" horiz-adv-x="463" />
<glyph unicode="&#x2006;" horiz-adv-x="309" />
<glyph unicode="&#x2007;" horiz-adv-x="309" />
<glyph unicode="&#x2008;" horiz-adv-x="231" />
<glyph unicode="&#x2009;" horiz-adv-x="371" />
<glyph unicode="&#x200a;" horiz-adv-x="103" />
<glyph unicode="&#x2010;" horiz-adv-x="669" d="M122.5 432.5q-14.5 26.5 0 53t49.5 26.5h367q34 0 48 -26.5t0 -53t-48 -26.5h-367q-35 0 -49.5 26.5z" />
<glyph unicode="&#x2011;" horiz-adv-x="669" d="M122.5 432.5q-14.5 26.5 0 53t49.5 26.5h367q34 0 48 -26.5t0 -53t-48 -26.5h-367q-35 0 -49.5 26.5z" />
<glyph unicode="&#x2012;" horiz-adv-x="669" d="M122.5 432.5q-14.5 26.5 0 53t49.5 26.5h367q34 0 48 -26.5t0 -53t-48 -26.5h-367q-35 0 -49.5 26.5z" />
<glyph unicode="&#x2013;" horiz-adv-x="669" d="M125.5 432.5q-13.5 26.5 0 53t46.5 26.5h367q34 0 48 -26.5t0 -53t-48 -26.5h-367q-33 0 -46.5 26.5z" />
<glyph unicode="&#x2014;" horiz-adv-x="987" d="M240.5 432.5q-13.5 26.5 0 53t46.5 26.5h528q34 0 48 -26.5t0 -53t-48 -26.5h-528q-33 0 -46.5 26.5z" />
<glyph unicode="&#x2018;" horiz-adv-x="434" d="M313 971q0 67 60 131t135 102q44 23 66 -4q17 -21 1 -44q-6 -8 -16 -13q-75 -37 -121 -90q27 -3 44.5 -27.5t17.5 -50.5q0 -37 -30.5 -65.5t-68.5 -28.5q-40 0 -64 26t-24 64z" />
<glyph unicode="&#x2019;" horiz-adv-x="395" d="M316 963q6 9 16 14q75 37 121 90q-27 3 -44.5 27.5t-17.5 50.5q0 37 30 65.5t68 28.5q40 0 64.5 -26t24.5 -64q0 -67 -60 -131.5t-135 -102.5q-43 -22 -65 4q-18 21 -2 44z" />
<glyph unicode="&#x201a;" horiz-adv-x="464" d="M35 -104q6 9 16 14q75 37 121 90q-27 3 -44 27.5t-17 50.5q0 37 30 65.5t68 28.5q40 0 64 -26t24 -64q0 -67 -60 -131.5t-135 -102.5q-43 -22 -65 4q-18 21 -2 44z" />
<glyph unicode="&#x201c;" horiz-adv-x="622" d="M285 971q0 67 60 131t134 102q44 23 66 -4q17 -21 1 -44q-6 -8 -16 -13q-74 -36 -120 -90q27 -3 44 -27.5t17 -50.5q0 -37 -30 -65.5t-68 -28.5q-40 0 -64 26t-24 64zM512 971q0 67 60 131t135 102q44 23 66 -4q17 -21 1 -44q-6 -8 -16 -13q-75 -37 -121 -90 q27 -3 44 -27.5t17 -50.5q0 -37 -30 -65.5t-68 -28.5q-40 0 -64 26t-24 64z" />
<glyph unicode="&#x201d;" horiz-adv-x="622" d="M316 963q6 9 16 14q75 37 121 90q-27 3 -44.5 27.5t-17.5 50.5q0 37 30 65.5t68 28.5q40 0 64.5 -26t24.5 -64q0 -67 -60 -131.5t-135 -102.5q-43 -22 -65 4q-18 21 -2 44zM543 963q6 9 16 14q75 37 121 90q-27 3 -44.5 27.5t-17.5 50.5q0 37 30.5 65.5t68.5 28.5 q40 0 64 -26t24 -64q0 -67 -60 -131.5t-135 -102.5q-43 -22 -65 4q-18 21 -2 44z" />
<glyph unicode="&#x201e;" horiz-adv-x="821" d="M62 -104q6 9 16 14q75 37 121 90q-27 3 -44.5 27.5t-17.5 50.5q0 37 30.5 65.5t68.5 28.5q40 0 64 -26t24 -64q0 -67 -60 -131.5t-135 -102.5q-43 -22 -65 4q-18 21 -2 44zM314 -104q6 9 16 14q75 37 121 90q-27 3 -44.5 27.5t-17.5 50.5q0 37 30 65.5t68 28.5 q40 0 64 -26t24 -64q0 -67 -60 -131.5t-134 -102.5q-43 -22 -65 4q-18 21 -2 44z" />
<glyph unicode="&#x2022;" horiz-adv-x="563" d="M186 418q6 52 51.5 90.5t94.5 38.5q59 0 94 -40.5t23 -98.5v-2q-11 -52 -55 -88.5t-97 -36.5q-58 0 -90 41t-21 96z" />
<glyph unicode="&#x2026;" horiz-adv-x="1112" d="M137 59q6 31 32 54.5t56 23.5q34 0 56 -26t16 -60q-6 -32 -32 -54t-58 -22q-36 0 -55.5 24.5t-14.5 59.5zM420 59q6 31 32 54.5t56 23.5q34 0 56 -26t16 -60q-6 -32 -32.5 -54t-58.5 -22q-36 0 -55 24.5t-14 59.5zM702 59q6 31 32.5 54.5t56.5 23.5q34 0 55.5 -26 t15.5 -60q-6 -32 -32 -54t-58 -22q-36 0 -55.5 24.5t-14.5 59.5z" />
<glyph unicode="&#x202f;" horiz-adv-x="371" />
<glyph unicode="&#x2039;" horiz-adv-x="577" d="M139 434q0 32 37 53l309 181q21 12 39 12q26 0 40 -14.5t14 -38.5q0 -37 -37 -58l-238 -133q-34 -19 -14 -57l102 -189q6 -10 6 -30q0 -24 -16.5 -40t-38.5 -16q-34 0 -49 29l-146 266q-8 13 -8 35z" />
<glyph unicode="&#x203a;" horiz-adv-x="661" d="M121.5 166q1.5 35 36.5 55l237 133q35 20 15 58l-103 188q-15 27 -6.5 47t26 31t40.5 6t36 -27l148 -268q32 -56 -29 -86l-309 -180q-40 -19 -66.5 -5.5t-25 48.5z" />
<glyph unicode="&#x205f;" horiz-adv-x="463" />
<glyph unicode="&#x20ac;" horiz-adv-x="1189" d="M91 499.5q-13 26.5 0.5 53.5t45.5 27h74q33 0 39 26l18 62q7 8 4.5 20t-26.5 12q-34 0 -48 27t0 53.5t48 26.5h45q43 0 61 35q99 161 245.5 261.5t293.5 100.5q90 0 163 -39.5t122 -109.5q30 -43 6 -83q-20 -33 -52 -26q-23 5 -40 33q-71 115 -199 115q-107 0 -218 -70.5 t-196 -187.5q-8 -6 -5.5 -17.5t24.5 -11.5h116q37 0 52 -26.5t0 -53.5t-52 -27h-174q-20 0 -33 -7.5t-16 -13t-8 -17.5q-11 -31 -14 -44q-5 -20 2.5 -29t29.5 -9h105q28 0 44.5 -16.5t16.5 -37t-16.5 -37t-44.5 -16.5h-131q-41 0 -35 -70q3 -123 69 -200.5t175 -77.5 q119 0 254 94q42 25 71 16t28 -44t-40 -64q-149 -113 -313 -113q-155 0 -249 106t-108 281v39q0 24 -12 30q-7 3 -18 3h-58q-33 0 -46 26.5z" />
<glyph unicode="&#x2122;" horiz-adv-x="1169" d="M215 743q0 23 14 41.5t35 18.5h262q21 0 35 -18.5t14 -41.5q0 -22 -14 -38.5t-35 -16.5h-73v-262q0 -26 -16.5 -43.5t-37.5 -17.5q-22 0 -39.5 17.5t-17.5 43.5v262h-78q-21 0 -35 16.5t-14 38.5zM606 426v311q0 66 60 66q38 0 65 -41l76 -123q20 -37 41 0l76 123 q27 41 65 41q60 0 60 -66v-311q0 -28 -17 -44.5t-39 -16.5q-23 0 -39 16.5t-16 44.5v149l-53 -88q-57 -91 -115 0l-53 88v-149q0 -28 -16 -44.5t-39 -16.5q-22 0 -39 16.5t-17 44.5z" />
<glyph unicode="&#x25fc;" horiz-adv-x="798" d="M0 0v799h799v-799h-799z" />
</font>
</defs>
</svg>
